<svg xmlns="http://www.w3.org/2000/svg" width="2560" height="1440" viewBox="0 0 2560 1440">
  <defs>
    <style>
      .cls-1 {
        fill: #d47344;
        fill-rule: evenodd;
      }
    </style>
  </defs>
  <path id="mountain-6" class="cls-1" d="M2562,517c0.33,8.3.67,316.863,1,325.166-1479.71,3.8-1561.54,3.5-2565,.812,0-21.588,1-292.432,1-314.02,54.328,11.624,112.672,23.252,167,34.877l70-8.968,41,9.965,124-24.913,80,44.842L532,573.8l66,39.86,76,1c42.361,12.644,84.06,42.9,122,52.814,25.125,6.565,48.543,1.883,78,7.972,77.888,16.1,150.5,52.4,223,69.755,39.63,9.486,153.45-39.984,185-51.818,48.24-18.091,109.3-17.787,164-33.881l36-16.94L1597,631.6c29.99-5.275,55.42-34.977,98-24.912l48,21.923c15.39-5.888,33.25-22.74,56-19.93q33.99,5.979,68,11.958l112-22.919,81-1.993,42-1.993c24.8,5.976,76.12,36.175,110,27.9q15.495-10.463,31-20.927,35.49-15.444,71-30.891l51-1c18.01-7.123,33.77-28.01,55-34.877ZM1169,753.056h0ZM0,44H0Z"/>
</svg>
