<svg xmlns="http://www.w3.org/2000/svg">

  <path id="layer-0" d="M657,1447H2541c7.37,0,.94.21,23,0-0.5-60.02-1-627.295-1-714-24.03,10.152-32.84,27.528-111,20-22.67-.667-76.1-22.461-76-22-47.33,7.664-23.67-33.664-62-28,3.85-6.864-.22-11.535,7-18,7-13.333,7.67-14.334,3-12-9.54,5.986-23.89,18.591-29,29l-20-1c0.42-16.565,4-30.657,4-50V637c-1.34-4.534-.98-11.256-3-16-2.48-5.807-6.76-10.481-7-14-1.9-.993-2.75-1.377-4-3h-1c0.19,13.084,2.44,25.728-3,32-1.35,6.436-6.42,13.82-13,26-3.97,7.351-9.24,17.034-11,26-15.75-4.734-28.01-21.679-39-32-5.26-4.939-11.14-7.888-11-14-2.05.4-2.26-8.085-6-7,2.53,0.491,2.64,17.281,6,25,6.58,15.1,28.52,45.344,40,53-0.4,2.054-.25,1.927-1,3-0.77.689-2.23,1.318-3,2-4.32-2.261-3.94-8.48-7-12-8.47-9.746-18.4-19.316-31-27,0,0.333-5-4.333-5-4-0.33,0,1.33,3,1,3,7.75,9.8,10.8,12.983,14,19,3.99,7.515,4.91,15.787,10,22-0.11,2.533-.12,3.705-1,5-3.91,3.118-10.98,3.014-15,6-2.32-.743-2.23-1.039-4-2-1.33-5.119-5.34-11.523-3-23a21.973,21.973,0,0,1,1-14c-3.78,1.326-5.58,4.007-8,6-10.12,10.661-7.11,10.18-11,14-0.65,1.726-.2.979-1,2-1.98-5.467-3.31-18.2-5-23-1,0-3,7-4,7-0.99,4.8-1.69,7.931-2,28v7c-8.59-3-22.58-28.027-26-45-1,0-1,2.333-4,7-1.76,5.844-1.34,5.931-1,6v23c-2.56-1.784-2.29-9.151-7-12,0.04,5.316,1.81,23.034,0,26v6c-17.98-10.874-31.3-19.731-54-29-6.04-2.467-19.26-9.61-28-10,0,1,8,5,8,6,13.51,6.813,26.54,18.7,37,29,5.27,5.182,9.74,11.886,16,16-5.74,4.035-21.13,4.333-29,5,0.08-8.14,1.17-19.581-1-26-4.22.719-3.47,0.954-7,3-6.89,5.773-8.73,8.74-12,14-2.48,3.982-2.03,8.768-5,12v1h-1c-10.45-15.565-24.77-28.822-22-67-0.67,0-2.33,11-3,11-3.21,13.122-13.47,45.884,2,58v2c-8.68-1.209-18.94-10.205-21-18-4.05,3.048,3.02,15.234,1,20v1h-1c-2.39-8.741-8.44-16.046-11-24-2.19-6.807,1.49-26.5,2-31-6.98,1.216-18.33,36.5-13,44v2h-1c-2.27-4.98-3.12-11.329-6-17-4.82-9.475-26.81-14.567-40-17,5.89,5.646,12.14,8.452,16,13,7.45,8.772,12.93,21.1,18,32a35.269,35.269,0,0,1-8-8c-1,0-10-11-11-11,2.43,3.9,15.24,23.3,19,26-3.44,4.86-8.82,6.224-14,8-0.02-12.256-4.56-17.649-11-22-12.41-8.379-34.57-4.352-42,6-2.27,3.163-1.68,7.62-4,11-2.16,3.141-12.02,6.955-16,8-6.47,1.7-36.39-3.252-42-5-3.77-1.175-12.74-4.559-17-2-7.43-.094-15.16-5.24-19-9-4.4-6.759-4.57-14.562-10-20-10.91-10.915-42.82-19.82-57-6-2.86-6.338-1.38-16.18-7-24-12.99-18.071-55.89-22.533-70-2h-4c3.06-4.544,8.19-7.186,12-11,5.67-5.684,10.11-12.527,15-19,4.59-6.077,2.36-3.333,12-12,7-4.667,7-3.667,11-6,3.6-3.054,13.75-5.927,13-7-3.55-1.423-24.41,6.538-28,8-5.16,2.1-9.11,3.985-15,6-6.28,2.149-16.45,6-23,9-0.33-1-.67-2-1-3-0.73-1.884.69-9.512,2-14,1.5-5.138,4.53-11.325,6-17,1-7.333,1.67-7.334,4-20,2.93-8.2,2.31-10.583,4-14,4-15.667,5.67-18,5-24-7.62,18.164-12.05,29.373-16,37-4.89,9.448-13.39,26.1-22,32,0,0-2.76-8.1-17-13-15.76-5.423-53.86-16.57-69-2-2.05-.4-2.93,1.752-4,1-0.08-3.177,1.31-4.463-1-13-2.39-8.834-12.76-18.461-21-22-12.84-5.513-33.22-5.144-44,2-9.31,6.171-7.47,8.215-8,9-0.46.682-4.45-2.164-14,2-13.01,5.677-22.04,17.969-22,37-3.99.545-6.07,1.665-9,3-2.57-3.959-6.48-6.015-11-8-3.68-8.651-7.3-16.671-7-29-6.73,1.716-10.2,17.435-10,26h-1c-4.51-9.193-10.21-17.76-16-26-2.86-4.076-4.77-5.254-10-12-1,0-11-13-12-13,9.39,14.748,13.27,26.561,15,33,2.24,8.341-1.42,16.689-2,23-3.11-1.691-10.98-4.834-16-4-0.56.092-6.37,2.166-7,2-4.15-1.092-10.68-5.607-16-7l-13-1c-8.5-7.864-27.11-16.993-49-6-12.7,6.378-17.75,11.922-22,27-0.62,2.19-1.51,5.656,0,8v2c-10.73-2.7-24.04-4.425-33,2-2.11,1.513-5.44,8.024-7,9h-11c-5.18,1.41-9.26,5.369-14,7-5.6-5.789-15.04-7.558-21-13h-1c2.24-6.812,18.14-26.412,24-33,0-.333,4-5.667,4-6-9.61,10.377-19.69,13.275-28,16-6.74,2.209-14.68,1.415-20,5h-2c2.01-6.348,4.34-15.585,8-21,2.25-3.329,8.99-8.736,23-16-9.52,1.4-38.09,16.606-43,23-3.56-4.412-.67-8.931-13-30,9.87-6.156,12.63-7.418,25-14,0.33,0,12.67-6,13-6,0-.667,11-4.333,11-5-18.7,4.3-47.21,13.773-60,18-9.07,3-20.37,3.082-28,8h-1c2.6-13.485,4.39-23.856,12-32,0-.667,3-4.333,3-5-15.82,8.629-30.92,22.727-35,29h-1c-0.67-5.333-1.33-8.667-2-14,0.52-3.719,1.26-7.314,6-23,4.17-13.5,4.08-12.5,5-16,1.14-3.82,1.64-5.583,6-15,0-1,4-9,4-10-20.42,23.233-27.91,33.934-29,37-13.93,22.463-14.21,30.226-23,40a2.909,2.909,0,0,1-1,1c-3.37-12.484-11.607-22.8-16-34-1.812-4.621-1.393-7.618-4-11a2.834,2.834,0,0,0-1-1c-0.969,4.232-3.039,20.8-5,24v28h-2c-1.686-6.159-7.166,5.215-12,2,2.9-16.259,2.529-17.609,7-31,4.21-12.61,3.379-17.413,11-36,0-.667,3-8.333,3-9-0.333,0-5.667,7-6,7-13.5,16.463-11.324,20.057-21,32-7.215,10.518-2.455,6.746-12,21-4.125,6.16-8.7,34.046-13,41-8.4-7.205-9.615-10.739-15-22,0-.667-3-11.333-3-12-1.043,13.233-3.682,19.234-4,23-3.021-1.651-4.338-7.217-5-11,0.583-7.25-2.333,1-3,1a161.953,161.953,0,0,0-14,26c-4.7-2.326-5.611-9.308-8-14-6.479-12.723-10.066-17.263-13-37-0.667,0-1.333-14-2-14-0.333,8-1.667,18-2,26,1.021,4.529,2.627,15.956,1,22-1.164,4.325-3.872,18.984-2,23v1c-11.43-2.125-14.31-17.089-10-42,1-7.666,1-4.334,1-7-0.667,0-.333-10-1-10-2.338,8.668-8.814,22.449-14,29v1h-1c0.17-9.584,2-33,2-33,4.085-9.578,4.084-8.591,6-17-4.528,6.727-15.641,17.1-20,24-4.623,7.319-6.349,17.575-12,24-1.524.782-4.27-1.093-6-3-3.434-4.906-6.29-32.8-7-40-1.844,2.839-3.947,9.9-5,14-1.659,6.462-.648,15.09-2,24,2.744,18.858,1.626,29.363,11,41,4.739,5.884,6.212,3.868-3,12-2.042,1.8-10.448-10.979-14-9-9.324,5.194-20.2,15.946-21,17-23,30.387-13.8,27-34,27-39.232,0-43.921,10.688-82,11m444-99c-11.1,8.438-20.16,14.113-36,29,9.77,3.909,13.33,4.239,22,5,7.32-10.183,11.18-18.244,16-34h-2ZM0,1448V770.162c8.286,1.187,16.717,4.256,24.1,6.657l7.229,1.21c2.593,0.847,8.615,4.673,12.048,3.631,2.011-.611,5.5-2.942,7.831-3.631,2.349-.7,4.367-0.057,6.024-1.21h1.2c0-.2-0.109-0.776,0-0.606C136.487,774.579,120.283,790.332,223,750c0.989,1.408,16.166-.421,36-3,8.489,0.876,9.565-.367,12-1-2.748-8.289-6.361-28.453-5.364-37.538C269.725,713.716,278.778,737.945,283,743c1.317,2.372-.512.016,3,0-0.409-7.8-5.991-34.994-1.678-39.723v-1.21h1.2C285.438,692.621,289.371,717.429,301,741c3.2-1,4.8-4,5-4-1.252-4.957-11.981-34.093-9.631-38.855V693.3h1.2c4.23,17.958,18.754,25.263,27.107,38.732h1.205c-1.66-4.4-1.038-7.89-3.012-12.709-3.414-8.333-8.121-13.949-7.831-26.628h1.807a144.213,144.213,0,0,0,9.638,17.55c2.463,3.738,7.046,6.564,9.638,10.289,1.883,2.7,2.637,6.1,4.819,8.472v0.605h0.6c-0.376-12.9-5.971-19.086-9.036-28.443-0.994-3.034-2.848-11.328-1.2-13.92,0.014-1.65.024-2.773,0.6-3.631a2.909,2.909,0,0,1,1.808-.605c1.321,9.269,7.373,13.733,11.445,19.971,2.88,4.413,4.242,9.12,7.831,12.709v1.21h0.6c-0.347-10.119-4.086-14.251-6.626-21.181-1.151-3.14-1.855-8.334,0-10.893V683.62c4.741,0.738,10.086,17.116,13.252,21.182v1.21h0.6c-0.847-5.818-9.126-19.477-6.024-24.207v-1.211c2.528,0.6,9.59,13.493,11.445,16.34v1.211h0.6c-0.748-8.551-4.594-13.652-4.819-21.787,4.382,0.463,7.878,6.5,9.638,9.683h1.2c-1.783-4.973-4.265-11.888-4.217-17.55h1.808c1.583,2.471,3.861,4.2,5.421,6.657h0.6c-0.863-3.757-2.194-7.214-2.409-11.5,2.927,0.555,5.845,3.288,7.228,5.447h0.6c-1.745-3.036-3.123-5.225-3.012-10.288a7.928,7.928,0,0,1,5.421,3.631h0.6c-0.786-1.732-1.294-4.959-2.41-6.657a9.562,9.562,0,0,1,.6-3.026c3.708,0.7,4.463,3.29,6.627,5.447v1.21h0.6c-0.439-4.419-2.266-6.108-2.41-10.893,2.945,0.17,4.483.878,5.422,3.026h0.6q-0.3-3.632-.6-7.262c2.434,0.487,2.638,1.266,3.614,3.025,0.89-1.239.964-4.769,0.6-5.446v-1.211a8.583,8.583,0,0,1,3.011,2.421c1.207-.744.714-1.955,0.6-4.841a10.9,10.9,0,0,1,1.807,2.42h1.2c-0.015-1.65-.024-2.773-0.6-3.631v-1.815c1.422,0.531.994,0.227,1.807,1.21,1.436-.784,1.788-2.15,2.41-3.631a1.71,1.71,0,0,0,.6-0.605h0.6c-0.154,2.111-.211,2.548-1.2,3.631,0.895,1.47.413,0.682,3.012,0.605-1.59,2.064-3.941,3.2-5.422,5.447a8.616,8.616,0,0,1,3.012-.606v2.421a12.828,12.828,0,0,1-3.012,1.211c0.708,0.488,1.008.487,2.41,0.605-0.527,2.95-2.833,4.154-5.421,4.841v0.605l4.216,1.211c-0.593,3.36-3.442,4.274-6.626,4.841V657.6a31.8,31.8,0,0,0,4.819,1.21,3.1,3.1,0,0,1-.6,1.815c-1.447,1.89-4.193,2.777-7.229,3.026v0.605c1.729,0.609,4.633.669,7.229,0.606a3.1,3.1,0,0,1-.6,1.815c-1.662,2.128-5.91,3.1-9.035,3.631,1.164,2.18,5.907,4.1,9.035,4.237v1.815a60.851,60.851,0,0,1-13.854,1.211c2.41,1.864,7.647,2.894,11.445,3.025v1.816h-0.6c-2.712,2.183-10.379,2.69-14.457,3.026,2.873,2.382,9.562,3.687,14.457,3.631v1.815c-5.355.718-11.193,1.873-17.469,1.816,4.035,3.321,12.049,4.473,19.277,4.236v1.816c-8.528,1.27-18.41,3.736-28.312,3.631,1.7,1.116,4.747.011,7.228,0.605,5.082,1.217,11.14,2.927,17.469,3.026v1.816c-2.439.337-4.551,1.315-6.626,1.815-3.52.849-8.916-.677-11.445-0.605a87.008,87.008,0,0,0-10.843,1.21c2.752,1.921,7.413,1.3,10.843,2.421,5.138,1.686,12.565,7.463,18.674,5.447-1.871,3.437-6.353,1.5-10.843,2.421-6.9,1.414-17.657-.547-27.107,2.42,2.246,1.529,6.233.955,9.036,1.816,6.68,2.052,18.834,8.057,27.709,4.841-1.739,3.019-7.024,2.621-10.843,3.631-2.016.534-5.735,1.334-7.831,1.816H362.631c-3.992.977-7.268,3.36-11.446,4.236V739.9c7.134,1.576,11.609,5.259,16.867,8.473,4.589,2.8,9.889,2.974,15.059,5.447,2.829,1.352,7.1,3.973,10.241,4.841,4.625,1.28,18.858-4.823,22.89-6.052,16.736-5.1,32.8-10.946,49.395-13.314,79.569-11.358,81.286-.58,154.208,4.237C633.941,741.343,657,731,657,731c0.05,22.747,0,706.08,0,716"/>
</svg>
