<svg xmlns="http://www.w3.org/2000/svg">

  <path id="mountains-7-1" d="M0,1027.82V507.967H3.838c2.985,4.813,4.691,6.739,7.676,11.552,5.947,5.041.553,1.778,6.4,7.22,3.625,6.859-1.386,2.528,3.838,4.332h6.4c2.424-1.761,28.413-1.777,33.262,0,10.363,3.8,13.814,12.419,28.145,13,2.43-4.7,11.017-7.641,15.352-10.109,0-1.443,3.837-2.888,3.837-4.332,1.706,0,3.412-4.332,5.118-4.332,0-1.444,3.837-2.888,3.837-4.332,8.95-1.322,14.47-7.086,21.749-11.552,4.884-3,29.085-8,31.982-7.22,2.983-1.233,6.5-5.77,8.955-7.22,4.577-2.707,18.422-.748,24.307-4.333,28.735-17.5,59.316-41.819,102.344-41.877,8.022,20.385,25.1,29.45,35.82,44.765,2.371,3.386,4.98,14,6.4,15.885,2.626,3.493,7,2.944,12.793,2.888,1.306,1.161,7.387-2.376,5.117-1.444,5.117-1.564,1.279-1.685,7.676-2.888a200.112,200.112,0,0,1,42.217-4.332c8.056,8.387,21.377,9.2,38.379,8.664,6.668-5.171,7.42-5.527,16.631-11.552,1.509-1.16.871-2.561,5.117-2.888,0-1.444,6.4-1.445,6.4-2.888,11.605-6.562,14.015-11.8,23.028-17.329,9.1-5.576,23.148-6.151,31.982-11.552,11.028-6.742,18.576-14.208,35.821-14.441,4.234,3.858,4.143,4.147,10.234,7.221,0,1.444,5.117,4.332,5.117,5.776,7.888,5.78,10.927,14.129,19.19,18.772l10.234,1.444c5.572,2.728,12.843,9.778,19.19,13,12.488,6.333,34.566-3.909,35.82-13,20.063,2.326,38.909-16.94,52.452-27.436,5.548-4.3,11.491-4.272,16.63-8.665,5.343-4.565,10.948-12.079,16.631-15.884l6.4-1.444c4.827-4.581,14.2-18.478,20.469-20.217,7.454-2.068,8.284,5.355,16.631,5.777,5.032-7.139,34.051-23.729,43.5-25.993,4.662,4.16,2.88,1.984,7.676,5.776,0,1.444,2.558,2.888,2.558,4.332,1.279,0,2.559,4.332,3.838,4.332,0.856,8.675,4.94,16.259,11.514,18.773,4.056,3.114,9.073,1.884,14.072,4.332,9.63,4.716,23.384,13.345,28.145,23.1V466.09c2.018,6.46,9.144,17.661,16.631,18.772-0.558,16.219,11.215,33.1,17.91,46.209,2.956,5.788,1,12.725,6.4,15.885,3.625-4.853,6.772-2.891,7.676-11.553,9.84-.683,9.978-6.332,16.631-8.664,7.705-2.7,18.87,2.78,24.306,4.332V535.4c10.76-.432,10.91-5.471,23.03-5.776,0.9,3.39,1.31,3.226,2.56,5.776,2.7-2.15,4.91-6.862,10.23-5.776,0.85,0.173-.97,3.783,2.56,2.888,2.69-.682,15.28-10.091,17.91-11.552,8.14-4.526,15.16-3.647,23.03-8.664,20.16-12.855,39.41-38.535,66.52-37.545,4.6,9.828,17.74,20.26,28.15,23.1,15.08,4.123,34.44-4.418,44.77,4.332,8.99,11.083,8.9,16.443,29.43,15.884,4.5-3.131,45.95-3.976,53.73-5.776,5.4,7.22,15.68,17.139,25.58,18.772,2.86,0.472,7.2-3.433,11.52-1.444,3.94,1.821,5.45,9.689,8.95,11.553q7.68,0.721,15.35,1.444c3.76,1.723,5.71,8.443,8.96,10.108l25.58,1.444a24.806,24.806,0,0,0,1.28-7.22c18.02-1.9,18.56-7.1,30.71-14.441,0-1.443,6.39-4.332,6.39-5.776,2.56,0,5.12-4.332,7.68-4.332,11.43-11.813,6.86-3.049,23.03-18.772,9.97-7.456,13.92-7.588,28.14-24.549,13.58-.741,15.22-9.668,30.7-10.108,2.4,7.123,15.13,21.512,24.31,21.66,6.41,6.126,18.61-.585,28.14,2.888,2.87,1.043,6.24,6.4,8.96,7.221,6.29,1.886,18.31-3.532,26.86-1.444,4.41,1.073,13.17.881,17.92,2.888q8.94,6.5,17.91,13h14.07c27.63,0.041,37.85-14.1,63.96-14.44,3.62,13.384,17.83,27.463,29.43,31.768h35.82c5.35,1.751,15.92,6.4,24.3,4.333,3.8-.937,8.75-5.926,12.8-7.221h10.23c3.57-1.361,8.37-6.659,11.51-8.664,14.03-8.952,28.78-12.425,40.94-23.1,0.89-.784,1.66-5.109,2.56-5.777l7.68-1.444c5.21-3.836,14.46-14.595,15.35-23.1,25.29,0.842,46.03-10.493,66.52-20.217,8.22-3.9,13.23-10.632,23.03-13,0.43-2.406,4.69-1.926,5.12-4.332,2.05-.8,4.35-4.044,7.67-4.332,2.86-2.7,4.41-4.7,8.96,0,3.8,3.931-1.32-.955,7.67,7.22,0,1.444,3.84,5.776,3.84,7.22,3.97,2.654,5.05,4.7,8.96,7.22,2.71,1.751,5.53-.121,8.95,1.444,2.33,1.065,2.25,4.3,3.84,5.777,5.23,4.846,16.99,6.825,23.03,11.552,6.75,5.294,7.83,17.934,14.07,23.1,6.57,5.449,17.96,4.166,24.31,10.109,10.14,9.5,8.54,24.085,21.74,36.1,0,1.444,3.84,4.333,3.84,5.777,9.96,7.094,14.52,20.1,29.43,21.66,13.01-11.5,19.99-20.307,43.49-20.216,0-1.926,5.12-2.407,5.12-4.332,4.25-.122,1.96-2.148,5.12-2.889,0-.481,2.55-0.962,2.55-1.444-0.96-1.549,3.07.079,2.56-2.888,6.49,0.394,7.73-2.569,12.8-7.22,1.03-1.474.45-.4,1.28-2.888,0.96-1.549.77-1.365,1.28-4.332,13.2-.066,15.94-6.637,23.02-13,14.56-13.072,32.08-22.463,44.78-37.545,21.57,0.067,28.31,16.733,43.49,18.772,9.09,1.22,16.88-9.94,28.15-7.22,10.44,2.521,21.88,23.5,34.54,17.329,0.12-.057,13.76-8.326,14.07-8.665,1.52-1.633.83-5.782,2.56-7.22q7.68-2.888,15.35-5.776c0-1.925,7.68-3.851,7.68-5.776,19.27-8.8,16.52-18.472,39.66-18.773,3.33,6.432,26.33,34.743,46.05,47.654,4.77,3.124,1.84-1.079,1.28,502.524-0.03,31.461,5.16,29.131-14.07,28.881-70.01-.9-2424.848.76-2544.53,0"/>
  <path id="mountains-7-2" d="M895.51,597.5c-0.315,14.389.206,23.93,5.117,31.769,1.352,2.157,5.451,4.752,6.4,7.22,1.369,3.572-.2,7.644,1.279,10.108,8.917,10.133,32.576,22.932,49.893,23.1v4.332h6.4c3.709,9.742,15.942,17.811,26.866,18.772v4.332c7.725,5.312,11.842,15.019,23.032,15.885,10.77-9.291,19.89-20.177,38.37-20.217,2.36,2.335,8.74,6.075,11.52,7.22h6.39l3.84,7.221c6.6,5.483,13.79,5.784,21.75,10.108,13.38,7.269,10.35,10.973,30.7,11.552V727.46h1.28v-4.332c2.66-.537,2.46-0.349,3.84-1.444,1.03-1.474.45-.4,1.28-2.888-4.23-2.479-8.56-9.194-12.79-11.552-6.14-3.422-11.51-1.878-16.63-5.776l-7.68-13c-5.95-3.953-18.61,1.166-24.31-2.888-4.78-5.732-7.2-14-11.51-20.216-2.66-3.84-4.88-1.644-8.96-4.332-3.16-2.087-15.99-26.662-17.91-31.769-5.38-.675-4.26-1.716-8.95-2.888v-7.22c-14.55-.108-23.89-7.486-34.542-10.109-0.25-3.361-.246-4.08-1.279-5.776-4.063-12.982-14.607-9.763-15.352-27.437-9.318-3.181-10.694-11.653-17.91-15.884-1.372-1.085-1.209-.868-3.838-1.444-0.954-27.485-26.727-65.4-37.1-85.2-5.3-10.114-5.131-25.93-12.793-33.213-1.48-1.407-22.129-10.773-24.307-11.552h-7.676c-5.78-3.064-9.941-15-12.793-21.661h-2.558c-3.181,13.367-12.23,14.664-12.793,31.769,5.941,3.855,11.368,12.6,11.513,23.1-1.87,1.255-17.276,38.2-17.91,41.877,14.471,4.173,14.437,10.958,23.027,20.216,0.145,11.357,2.986,21.206,0,30.325-1.017,3.109-5.069,4.72-6.4,7.22-3.059,5.764-3.715,12.618-5.117,20.217-9.6,4.447-15.263,11.42-23.028,17.328v1.444h1.28c8.375,6.634,33.042-1.687,42.217-4.332C876.032,593.555,888.532,596.691,895.51,597.5Zm1199.98-40.433v-4.332q3.21-.721,6.4-1.444v-1.444h1.28v-4.332c12.27,0.274,12.38-6.063,23.03-8.664,1.87,3.646.56,2.23,5.11,2.888q-0.63,12.995-1.27,25.992h1.27c3.06-4.313,7.08-5.732,14.08-5.776,3.27,6.294,14.37,32.243,11.51,43.321-1.64,6.365-6.96,11-8.95,17.329h2.55c3.2-3.257,7.17-1.855,11.52-4.333q1.275-2.164,2.56-4.332c11.61-5.421,20.72,4.736,25.58,7.221,3.41,0.481,6.83.962,10.24,1.444q2.55,3.609,5.11,7.22c7.06,5.335,16.96,6.073,25.59,5.776v4.332c9.62,2.151,14.48,7.782,14.07,21.66-3.08,2.8-5.56,7.7-6.39,13h2.55c3.89-8.673,15.47-7.7,17.91-17.329,7.59-.645,9.51-4.67,15.36-5.776,9.82-1.86,20.7,7.425,30.7,8.664v-2.888c-3.43-1.287-3.31-1.484-5.12-4.332-2.43,1.936-1.12,1.853-5.12,2.888v-7.22c-18.35-10.365-32.77-28.164-58.84-30.325v-5.776c-4.21-3.353-5.82-4.513-14.08-4.332v-5.776c-11.02-8.037-23.3-22.392-39.65-23.1q-0.645-3.61-1.28-7.221c-12.17-4.335-37.58-30.23-43.5-41.877-4.02-7.906-4.5-14.46-8.95-21.66-2.3-3.706-21.07-9.3-25.59-13-5-4.088-5.22-11.685-8.96-17.328-3.05-4.617-42.83-27.931-49.89-28.881v-4.332c-3.95-1.48-4.64-3.52-7.67-5.776v7.22c-0.92.6-3.54-1.315-2.56,1.444,1.1,3.12,5.66,4.889,5.11,10.109-1.18,11.311-6,22.874-3.83,36.1h2.56c6.3,3.613,14.47-6.616,24.3-7.22,3.72,10.79,12.25,17.37,19.19,24.549-1.3,14.98,2.21,37.457-1.28,50.541-1.27,4.788-4.5,9.557-6.39,14.44h1.28C2078.73,568.192,2088.24,558.777,2095.49,557.064ZM573.127,463.2c-0.395,15.793-8,17.02-11.514,27.436h1.279c6.169,7.383,13.585,13.652,17.91,23.105l19.19-13c7.624-2.82,19.053,3.866,23.027-2.888H621.74c-7-6.421-17.944-7.156-25.586-13C588.068,478.682,582.442,468.7,573.127,463.2ZM2536.85,493.526a34.8,34.8,0,0,0,8.96-1.444v-2.888c-12.86-4.178-16.63-21.672-30.71-24.548v1.444c1.03,1.7.99,2.428,1.28,5.776,7.19,1.928,12.17,9.414,17.91,13C2534.72,488.713,2536.43,489.676,2536.85,493.526ZM307.032,466.09c0,0.962,1.279,9.145,1.279,10.108,0.427,0,4.691-2.888,5.117-2.888C312.622,470.777,308.065,467.575,307.032,466.09ZM2360.31,519.519h5.12a63.119,63.119,0,0,1,2.55,18.773c-2.81,2.463-3.18,3.5-3.83,8.664,21.2,1.605,25.98-11.837,44.77-17.329,24.76-7.235,38.35,10.718,56.29,11.553v4.332c5.86,2.116,8.18,7.435,12.79,10.108,7.43,4.3,16.39,1.554,24.31,5.776,9.31,4.96,7.77,13.991,23.03,14.44v-1.444c-7.08-5.118-9.95-13.166-15.35-20.216-4.73-6.177-16.23-7.9-19.19-15.884v-13c0.32-1.4,1-.547,0-1.444-2.64-3.428-6.87-3.136-12.8-2.888-11.78,8.438-27.29-10.434-33.26-13-3.37-1.446-6.69.336-8.95-1.444-1.03-1.7-.99-2.428-1.28-5.776-3.25-.507-16.84-1.714-20.47-4.332-8.41-6.071-10.35-15.091-24.31-15.885-12.75,18.8-44.03-5.557-53.73-10.108-1.16,11.254-1.87,22.783-1.28,33.213,6.67,3.153,16.53,6.714,24.31,10.108A22.969,22.969,0,0,1,2360.31,519.519ZM318.546,546.956c-2.656.537-2.462,0.349-3.838,1.444-5.014,5.5-16.776,24.28-17.91,33.213H291.68v1.444h2.559c2.659,1.449,6.9-.636,11.514-1.444v-4.332c12.447,0.154,22.894-9.6,38.379-2.889,5.418,2.35,7.756,8.864,12.793,11.553,4.954-5.031,47.753-9.36,61.406-2.888,10.683,5.063,21.792,16.2,30.7,23.1,2.847,2.206,6.418-.177,10.235,1.444,4.319,1.835,8.363,7.97,12.793,10.109l39.658,8.664v-1.444c-5.629-2.982-10.3-8.806-15.352-11.553-3.7-2.01-7.59-.016-10.234-2.888-4.97-5.4-7.192-14.006-12.793-18.772-7.8-6.639-18.709-9.737-24.307-18.773h-7.675v-5.776c-7.994-5.259-18.69-7.248-31.983-7.22v-5.776h-3.838c-2.316-4.912-18.691-19.62-23.027-21.661H372.276c-4.867-2.546-7.532-10.692-14.072-13-4.457-1.57-10.838-.242-14.072-1.444A84.363,84.363,0,0,0,327.5,487.75c-2.91-3.509-6.4-4.439-8.955-8.664-3.239,1.182-4.439,1.17-7.676,0v2.888c4.825,5.969,18.108,42.892,11.514,56.318C320.512,542.1,319.266,537.3,318.546,546.956Zm427.286-25.993v5.776c-3.711,1.207-3.293,2.008-7.676,2.888-0.709,13.959-9.041,14.893-10.234,27.437-5.117.956-5.613,2.827-10.234,4.332v5.776H712.57c-2.754,12.081-6.348,19.549-6.4,37.545,12.078,7.966,24.753,22.9,40.937,24.549-0.1,4.393-.966,3.963,0,5.776,4.85,7,9.166,14.429,20.469,14.44,3.072-2.607,8.5-3.075,11.514-5.776-11.564-4.562-22.661-9.064-28.145-20.216-1.587-3.229-.484-7.433-2.558-10.109-4.057-5.232-8.309-1.224-10.235-10.108-4.309-7.549,2.293-42.789,3.838-50.541h3.838c1.217-6.989,4.269-5.687,6.4-10.108q1.278-9.386,2.558-18.773c3.306-7.233,13.912-10.473,19.19-15.884,4.93-5.056,7.63-17.152,10.234-24.549h-2.559C777.3,491.093,754.258,519.737,745.832,520.963ZM1316.4,600.385h-5.12a15.905,15.905,0,0,1-2.56,4.332v2.888c3.1,1.308,2.04,1.544,5.12,2.888,3.13-6,9.24-6.159,17.91-5.776,2.35,9.377,15.44,16.706,25.59,17.329-1.39,13.979-.75,29.1-1.28,43.321h1.28c5.59-5.677,40.43-23.692,51.17-21.661,7.55,1.429,14.31,8.986,23.03,11.552,1.94-3.723,27.88-24.189,31.98-25.992h25.59c0.54,7.388,1.22,13.316,0,20.216-7.56.966-10.34,7.771-10.24,17.329-2.26,3.448-2.55,8.342-2.56,14.44h1.28c19.91-31.663,30.53-24.915,63.97-20.216,0.82,8.207,4.49,7.82,6.39,13q0.645,10.107,1.28,20.216c7.45-1.543,3.22-3.342,6.4-5.776,6.32-4.844,15.25-2.639,21.75-7.22h1.28c2.92-3.016,2.87-8.956,6.39-11.552,8.54-6.291,23.1-4.542,25.59-17.329-3.97-1.767-2.89-.541-3.84-5.776h-7.67a20.111,20.111,0,0,1,1.27-5.776h-6.39v-4.332c-14.57-3.211-22.63-15.121-34.54-21.661-11.57-6.351-24.06-4.382-37.1-8.664-14.8-4.856-23.91-15.459-42.22-17.328V584.5c-6,.069-19.66,1.158-23.03,0-4.5-1.548-3.74-4.766-10.23-5.776-3.46-16.934-29.37-19.013-46.06-21.661-2.6-.413-9.29-3.164-12.79-4.332l-11.51,1.444c-3.31-1.905-5.73-10.791-11.52-13H1353.5c-2.98-1.476-5.25-8.428-7.68-10.109-4.5-3.128-14.89.518-19.19-1.444-6.49-2.967-10.16-11.787-15.35-14.44-6.82,0-8.53-1.444-15.35-1.444,0,0.963-7.67,1.925-7.67,2.888-4.69-.481-5.55.481-10.24,0-9.56.007-32.68,6.545-39.66,1.444-17.64-7.288-.98-19.1-34.54-18.772-4.71-3.47-16.47.4-23.03-1.444-10.91-3.068-12.34-10-20.46-8.665,0-2.406-2.56-3.369-2.56-5.776-2.26-1.388-2.15-1.815-5.12-2.888v2.888c2.27,2.771,2.42,4.529,2.56,10.108,3.41,2.332,4.78,6.406,7.67,8.665l11.52,4.332q0.63,3.609,1.28,7.22c2.61,6.3,5.13,6.374,10.23,10.108,0.43,1.444.85,2.888,1.28,4.332,5.3,4.157,13.63,2.44,19.19,5.776,4.49,2.7,7.75,9.15,12.79,11.553,8.35,3.976,16.48,2.355,25.59,5.776,11.02,4.139,20.7,12.945,30.7,17.328,5.59,2.452,6.95-1.088,11.52,0l35.82,8.665v2.888C1325.62,586.414,1317.79,592.894,1316.4,600.385ZM671.633,509.411c-9.821.458-40.116,19.277-40.938,28.881h-5.117c-2.957,9.665-9.45,12.707-10.235,25.992-22.614-.214-28.582,16.252-46.054,20.217-0.075,5.1-5.6,16.847-7.676,20.216-1.509,1.159-2.151,2.561-5.117,2.888,0,1.444-2.559,4.332-2.559,5.776-3.341.233-.5,0.622-2.559,1.444v1.444h1.28v1.445c13.973-7.149,18.839-28.457,33.262-33.213,7.485-2.469,35.783.344,43.5-5.776,1.964-3.2,1.658-8.211,3.838-11.553,1.631-2.5,6.484-4.121,7.675-7.22v-13c2.471-5.433,5.3-10.919,12.793-11.553v-5.776a34.794,34.794,0,0,0,8.955-1.444v-1.444h1.28v-4.332c2.655-.537,2.462-0.349,3.838-1.444,3.9-4.615,8-9.459,12.793-13v-4.332h3.838c1.641-2.992,2.657-3.325,3.838-7.22h1.279c1.266-1.459-1.261-1.428-1.279-1.444-1.373-1.086-1.21-.869-3.838-1.445C678.257,499.29,671.889,496.168,671.633,509.411Zm907.027,30.325c13.39,0.477,14.53,10.448,28.14,11.552,0.32,10.628.07,26.34,1.28,34.657h2.56c0.83-8.057,1.52-9.419,1.28-17.329h6.39v-1.444c-0.96-1.549-.76-1.365-1.27-4.332h3.83c0.21-5.047,2.07-8.327,2.56-11.552,1.03-6.732-5.27-15.784-1.28-23.105q2.565-5.053,5.12-10.108c8.02-.068,15.67-2.99,20.47-7.22-1.03-1.475-.46-0.4-1.28-2.888-4.87-2.5-9.58-5.693-15.35-7.22h-40.94c-2.27-1.029-5.12-6.248-7.68-7.221l-23.02,1.445c-3.39-1.185-6.88-4.514-11.52-5.777v5.777c1.99,2.651,1.73,7.324,3.84,10.108C1561.32,517.66,1575.49,516.576,1578.66,539.736Zm171.42-7.221v-5.776c-5.82-2.147-10.92-9.366-12.79-15.884h-1.28c-0.34,7.324-2.32,10.458-3.84,15.884,7.04,5.637,10.79,11.413,23.03,11.553,1.64-2.648,2.52-2.472,3.84-5.777a16.52,16.52,0,0,0-5.12-1.444C1752.55,532.157,1752.71,531.94,1750.08,532.515ZM175.264,635.042c0,1.444,5.117,2.888,5.117,4.332,4.53,3.262,5.577,6.9,8.955,11.552,1.706,0,3.092,5.776,7.676,4.332,0,1.444,3.838,1.806,6.4,2.888,10.659,2.888,16.205,4.333,26.865,7.221v-4.332h-3.838c-3.715-6.143-7.245-6.741-7.676-17.329,3.453-3.37,4-9.823,7.676-13,7.841-6.758,20.859-10.147,24.307-21.661h-1.28c-1.656-3.563.55-.983-2.558-2.888-7.561,10.615-26.363,10.3-43.5,10.108H193.174c-2.4-1.421-5.4-6.053-8.955-7.22H173.985c-2.935-1.416-4.076-6.8-6.4-8.664l-7.675-1.444c-13.819-7.518-19.065-21.572-37.1-21.66,0-1.444-3.838-1.445-3.838-2.889-8.954,0-14.073-1.444-23.028-1.444-5.08-9.9-8.661-20.311-23.027-20.216a20.212,20.212,0,0,0-1.279-5.776c-4.727-2.369-11.006-7.1-15.352-8.664H17.91c-2.9-1.134-4.049-4.354-7.676-5.777L8.955,546.956c2.3,2.1.687,3.186,2.559,5.776,6.02,8.331,16.434,14.1,21.748,23.1L35.82,584.5c6.649,6.836,18.863,6.205,24.307,14.44,6.289,9.191-1.926,26.019-2.559,37.545h1.279c0.987-.985,2.855-1.893,3.838-2.888a29.875,29.875,0,0,0,2.559-5.776c9.406,0.09,15.608-1.016,25.586-4.332l30.7,1.444c11.727-3.014,28.253-2.909,43.5-2.888C167.255,628.928,167.55,634.3,175.264,635.042ZM1922.79,561.4a22.828,22.828,0,0,1,1.28-7.22c-4.07-1.874-2.88-3.626-6.4-5.776-1.37-1.086-1.21-.869-3.84-1.444v-7.22c-3-2.07-5.29-3.966-8.95-5.777v2.889c7.26,6.765,4.26,17.3,8.95,27.436,2.81,6.074,11.69,10.252,15.35,15.885,3.43,5.262.16,13.7,5.12,17.328,0.43-.963.85-1.925,1.28-2.888,3.36-4.822,4.33-12.531,6.4-18.773C1933.68,572.5,1933.25,563.179,1922.79,561.4Zm-122.81-4.332c-8.22-1.081-27.25,9.862-30.71,17.328h2.56c3.41,2.037,18.06-6.577,23.03-8.664,11.4-4.792,19.54-6.3,29.42-13,0.43-1.444.86-2.888,1.28-4.332,2.13-.482,4.27-0.963,6.4-1.444,4.9-4.691,8.3-10.39,14.07-14.441v-1.444h-2.56c-6.65,6.568-33.91,17.094-43.49,21.661v4.332Zm-652.45-7.22c1.09,5.844,1.28,14.136,3.84,20.216h2.56c3.05,7.736-3.22,14.174-2.56,18.773,0.82,5.711,7.28,18.127,8.96,23.1,2.73,8.107-1.37,22.022-2.56,25.993v27.437h1.28v-2.888c3.28-4.218,2.64-12.036,5.11-17.329,5.46-11.684,11.55-5.159,11.52-25.992-2.69-3.674-1.7-8.069-3.84-13-5.03-11.577-11.48-25.148-16.63-38.989C1152.76,560.609,1152.9,553,1147.53,549.844Zm1196.15,25.992c-2.66.538-2.46,0.35-3.84,1.445-10.28,4.794-22.01,24.085-25.59,36.1h2.56c7.7-10.237,27.76-15.853,29.43-31.768C2343.01,579.5,2344.26,580.977,2343.68,575.836Zm-584.64,0c-5.62,4.9-19.05,8.331-23.03,14.441-4.73,7.263-4.98,24.8-8.95,33.213,4.42,0.9,10.66,9.062,11.51,7.22,4.03-5.634,2.26-16.918,1.28-24.549,4.23-3.327,5.22-9.406,8.95-13,6.48-6.225,15.65-7.942,21.75-14.44h-1.28v-2.889h-10.23Zm197.01,37.545v5.777h-5.12c-0.99,8.438-5.34,11.182-7.67,17.328-2.01,5.282-.26,10.2-2.56,15.884-2.02,4.981-19.32,24.4-24.31,25.993v1.444h3.84v4.332c2.88,0.259,17.78,4,19.19,2.888,0.43-1.444.85-2.888,1.28-4.332,2.83-1.977,5.19-.828,7.67-2.888v-2.888c3.84-2.566,8.17-.593,11.52-2.888,12.77-8.762,35.33-25.361,44.77-37.545,7.77-10.02,10.92-23.758,21.75-30.325v-1.444H2014.9C2005.48,612.69,1971.63,612.2,1956.05,613.381Zm484.86,28.881h-5.12v4.332c-5,1.666-8.28,4.683-8.96,11.552,15.6,0.416,21.93-12.752,38.38-15.884,0.43-2.888.85-5.776,1.28-8.664,2.73,0.111,5.16,1.509,6.4,1.444,0.24-.013,22.31-18.43,23.03-20.217h-2.56c-6.67,5.055-16.13,1.743-25.59,4.333-8.86,2.425-17.2,6.444-25.59,10.108a16.142,16.142,0,0,1-2.55,4.332Q2440.26,637.93,2440.91,642.262Zm-1138.58-23.1c-1.31,1.161-2.91-.932-5.12,0,0,0.481-1.28,8.182-1.28,8.664,1.28,0,6.4-2.888,7.68-2.888C1302.8,622.4,1303.36,620.643,1302.33,619.158Zm-786.772,7.22c6.358,5.578,18.669,8.7,29.424,8.664,1.077-3.45.514-2.375,2.559-4.332v-1.444h-7.676C536.46,631.439,523.754,626.631,515.558,626.378Zm57.569,23.1c2.236,1.854,16.915,5.319,20.468,5.776v-4.332C591.2,649.985,577.076,649.552,573.127,649.482ZM511.72,659.59v-4.332c-9.5-1.288-17.111-2.226-26.865-1.444v1.444h1.279C491.6,659.7,502.6,659.719,511.72,659.59Zm93.389-1.444c2.757,4.6,6.91,6.283,10.234,10.109,8.7,0.235,27.3,2.926,33.262-1.444C634.814,663.258,624.946,658.286,605.109,658.146ZM2041.76,720.24h3.84v-4.332c19.79-14.285,38.48-28.44,55.01-46.209a27.431,27.431,0,0,1,1.28-8.664h-10.23v1.444c-8.78,4.469-12.98,15.889-20.47,21.66-7.04,5.422-15.04,5.314-23.03,10.108-5.34,3.206-19.99,27.111-20.47,36.1a20.751,20.751,0,0,1,6.4,5.776,3.942,3.942,0,0,0,1.28-1.444c3.2-2.55,4.47-6.113,7.67-8.664A22.958,22.958,0,0,1,2041.76,720.24ZM235.391,666.811a30.893,30.893,0,0,0,26.865,21.66v-1.444c-0.872-1.114-1.677-3.222-2.558-4.332C254.17,675.74,245.089,668.709,235.391,666.811Zm37.1,59.2c13.591-.938,11.912-10.9,25.586-11.552a16.943,16.943,0,0,0,7.676,5.776c2.184-3.935,3.244-3.607,3.838-10.108-11.465.433-13.675-3.71-25.586-4.332C281.078,714.847,273.732,714.745,272.491,726.016Z"/>
  <path id="mountains-7-3" d="M905.745,529.627c4.16,2.752,8.157,10,10.234,11.553l3.838-1.444c9.006,2.456,13.129,8.986,12.793,23.1-3.346,3.643-1.552,21.629-1.279,31.769-3.416,2.081-5.4,2.879-11.514,2.888-5.778-4.025-21.715.557-25.586-1.444l-3.838-1.444c1.145-3.978-.249-11.979,1.279-17.328a65.1,65.1,0,0,1,2.559-7.221h2.559q-0.64-2.166-1.28-4.332c1.5-2.731,6.354-4.125,7.676-7.22,3.426-8.021.11-17.885,0-27.437C905.43,530.161,904.429,530.793,905.745,529.627Zm112.575,121.3c1.63,8.146,12.97,20.776,8.96,28.881-0.43,1.444-.85,2.888-1.28,4.332-6.5-1.68-6.41-5.8-12.79-8.664-2.12-.951-9.18,1.794-14.077,0-3.556-1.3-6.079-5.946-7.675-7.22L986.34,669.7q0.641-1.444,1.28-2.888c-6.41-2.518-19.028-5.812-26.866-7.221,0.037-2.887,1.309-.406,0-2.888-1.318,1.5-11.305-4.386-14.072-5.776-3.572-8.867-7.493-12.568-7.676-25.992,9.831-3.947,21.284-6.569,31.983-4.332C971.056,634.212,999.38,648.884,1018.32,650.926Zm431.13-50.541v4.332c5.05,1.164,8.06,3.432,14.07,4.332v5.776c-6.24,3.717-18.18,3.068-28.14,2.889-5.92,5.962-25.68,18.992-38.38,14.44-0.74,4.756-18.14,3.158-26.87,2.888-2.01-2.641-1.13-2.015-5.12-2.888-0.1-7.664-1.36-26.308,0-28.881l5.12-8.664c1.7-1.254,5.19-.518,6.4-1.444,4.94-5.535,3.27-15.184,11.51-17.329,4.36,3.422,9.25,1.532,12.79,2.889,3.78,1.445,7.64,8.707,11.52,10.108,0.98,0.356,4.83-2.957,7.67-1.444-0.42.962-.85,1.925-1.28,2.888C1426.83,593.753,1442.56,599.869,1449.45,600.385Z"/>
</svg>
