<svg xmlns="http://www.w3.org/2000/svg">

  <path id="mountain-4" d="M311.51,837.9h-3.622c-0.24-4.05-1.048,6.619-3.622,4.977v0.8c-1.767,2.224-1.933,3.09-4.346,4.626-0.559-.548-1.617-1.053-2.173-1.606-0.582-.947-0.56-1.35-0.724-3.213-2.885.3-1.562,2.157-2.9,0-1.195-1.437-2.284-8.826-2.468-11.627-1.5.3-1.394,0.194-2.173,0.8-2.783,4.071-1.16-1.6-4.051,2.443-2.725-2.026-5.339-12.291-7.968-11.681q-0.361-2.007-.724-4.015h-2.173v2.409h-2.9c-0.868,2.743-1.286,5.935-3.622,7.228-0.854.645-1.218,0.621-2.9,0.8-0.269-1.667-.175-1.545-0.724-2.409v-0.8h-2.173q-0.363,2.007-.725,4.015c-4.1.536-8.209-18.222-12.314-17.687v-2.409h-7.243c-0.142,1.869-.14,2.269-0.725,3.213-0.371-3.26-.146-3.276-2.9-4.016-0.854.645-1.218,0.621-2.9,0.8A13.783,13.783,0,0,1,234,815.373q-0.361-2.811-.724-5.622h-2.9v-2.409c-1.5.3-1.394,0.194-2.173,0.8a14.89,14.89,0,0,0-1.448,4.818h-0.725v-3.212h-2.173v-1.606c-0.93-1.4-1.219-3.391-1.449-5.622h-2.173v-2.409h-3.622q-0.723,4.015-1.448,8.031h-0.724c-4.789-2.826-4.062-9.3-5.8-6.251q-0.363-3.213-.725-6.425a9.388,9.388,0,0,0-5.07,1.606c-2.631,1.047-2.094,2.021-3.622,4.016v-0.8c-1.462-2.036-1.994-5.427-2.173-8.833h-2.173v1.606c-1.265,1.806-1.711,5.4-2.173,8.031h-1.449v-1.607c-0.544-.861-0.435-0.759-0.724-2.409-1.5.3-1.394,0.194-2.173,0.8-0.494.62-.95,1.792-1.449,2.409-1.054-2.041.157-.905-2.173-1.606-0.218,2.886-.859,6.259-2.173,8.031-1.391,1.041-4.527,1.379-6.519,1.606-0.469-3.39-.534-5.573-3.622-6.424-0.431,2.94-.722,5.227-2.9,6.424-2.1,1.492-8.877,1.447-11.59,1.606q-0.362-3.211-.724-6.424c-2.561.575-1.8,0.986-4.346,1.606v-0.8h-0.725q-0.361-2.811-.724-5.622h-2.173c-0.27,1.667-.175,1.546-0.724,2.41-0.872,2.307-5.836,9.273-8.693,9.637-1.256-4.619-1.3-8.493-5.794-9.637-0.27,1.667-.176,1.545-0.725,2.409v-2.409c-1.5.3-1.394,0.194-2.173,0.8-0.979,1.228-1.266,3.46-2.173,4.818l-1.449-7.228c-2.393.536-1.694,0.8-3.621,1.607q-0.363-2.811-.725-5.622h-2.173l-2.173,7.228v-0.8c-3.345-4.317-6.024-8.521-6.519-16.062-1.5.3-1.394,0.194-2.173,0.8-2.755,3.308-3.515,9.049-5.071,13.652h-0.724c-1.018-4.707-3.82-7.907-4.346-13.652H97.826v1.606a10.858,10.858,0,0,0-2.173,5.622H93.48c-1.665,2.718-4.432,5.079-5.795,8.031H86.961v-3.213c-1.5.3-1.394,0.195-2.173,0.8-1.784,2.576-1.852,6.94-3.622,9.637v-1.606c-1.55-1.466-2.771-6.743-3.047-9.64-2.656-.267-3.142,6.692-5.8,6.424-0.127-4.584-2.647-10.579-3.469-14.452H66.679c-0.241,1.339-.483,8.3-0.724,9.637H65.23c-0.372-3.26-.147-8.9-2.9-9.637L57.987,803.5H57.262c-0.142-4.57-1.581-7.579-2.9-11.243H52.192c-0.457-3.538-1.308-4.468-1.449-8.834-3.33,2.134-6.013,13.53-5.235,7.225,0.238-1.933-.407-6.9-0.559-9.635h-2.9c-0.766,3.234-2.109,15.837-2.9,19.273-0.582-.82-0.257-11.462-0.724-12.848-0.974-1.35-1.186-2.524-1.449-4.818-1.5.3-1.394,0.194-2.173,0.8-1.346,1.934-1.561,5.214-2.9,7.227-1.48-1.027-2.052-.55-3.622,0-0.247-2.929-4.116,15.943-6.52,15.256-1.486,5.016-16.09,46.551-32.062,64.421-23.774,30.165-2.848,12.7-26.089,28.105-11.43,7.574-2.229,21.935-29.712,34.529-36.8,16.864-23.37,28.656-41.307,37.741-12.642,6.4-13.018,5.166-28.988,16.06-17.9,12.213-26.089,36.108-32.611,47.438,341.574,0.21,54.117.06,739.2,0.8,0.205-.51-1.546-4.71-7.114-5.82-8.923-1.78-22.854-.94-18.162-4.33,2.263-1.64-.188-5.74,2.883-7.76,3.237-2.13,6.947-2.21,11.177-4.79,27.346-16.634,13.63-11.97,25.49-12.481,44.143-1.909,47.173-1.839,117.253-3.4,38.383-.858,82.392-2.245,124.39-4.539,7.761-.424,60.611,1.4,86.665-1.135,7.394-.72-5.843-2.85-1.02-3.4,3.879-.446,33.493-0.881,34.666-1.135,3.658-.79,5.728-2.906,0-3.4-27.226-2.37-99.347-5.685-109.1-6.81-28.032-5-7.507,1.148-38.744-10.214-17.242-9.48-5.967,4.135-32.157-13.9-7.108-9.331-9.636,6.593-33.1-17.872-5.661-9.316-1.434-5.211-3.418-13.777-0.706-3.046-6.245,15.454-7.8,9.237-1.7-6.8,1.124,4.943-4.959,5.013-0.76.009-.808-1.7-2.179-10.687,0.733,4.8.332,1.518-1.019-2.27-3.345-5.766-1.772-9.354-2.616-10.469-3.719,7.254-2.657,6.166-3.324,8.838-1.182,4.734.91-1.015-1.2,3.9-0.242,0-2.479,7.621-2.72,7.621q-0.363-2.009-.725-4.016h-0.724q-0.361,2.009-.724,4.016a3.011,3.011,0,0,1-.725-1.606c-1.914-3.073-.689-2.387-4.346-4.82-0.366,4.278-2.716-9.162-3.622-7.836v-0.8c-1.622-2.181-1.348-11.449-3.621-12.988-0.213,2.279-.483,8.044-1.449,9.358v-0.8c-1.209-1.44-1.7,3.726-2.173,1.413h-0.724c-0.451,8.148-1.141-1.777-1.449,3.021-1.12-.91-0.611-0.871-2.173-1.606a26.907,26.907,0,0,1-.725,5.622c-0.631-.6-0.817-1.012-1.448-1.607-0.27,1.667-.175-2.994-0.725-2.13-0.269-1.667-.175,2.994-0.724,2.13-0.938,1.982.311-.588-1.449,0.472a9.372,9.372,0,0,0-1.448-4.016v1.606c-0.632.6-.817,1.012-1.449,1.607v-0.8c-3.071-3.011-2.1-10.055-6.519-12.849v4.819c-2.508,4.066-.457,5.712-2.9,11.854h-0.724c-0.027-5.225-1.284-4.416-2.173-8.642-0.241,0-.483-3.4-0.724-3.4q-0.363,2.009-.725,4.016c-0.631-.595-0.817-1.012-1.448-1.606-0.864,7.035-3.044-4.255-3.622,2.443-1.5-.3-1.394-0.2-2.173-0.8,2-2.614-.39-12.814-2.9-16.062v0.8a16.475,16.475,0,0,0-1.448,3.212h-0.725c-0.3-2.875.342-2.02-1.448-3.212-0.351,3.074-1.192,4.193-2.173,6.425h-1.449c-0.02-4.263-1.058-8.8-2.9-11.243-0.752,6.435-2.945,8.654-4.347,15.258H634.57v-0.8c-1.918-3.053-.957-24.145-3.622-27.935v1.607c-2.335,3.512-.711,7.348-4.346,9.637a5.714,5.714,0,0,0-1.448-3.213c-1.326,2.126-7.526,4.55-7.968,4.016a9.416,9.416,0,0,1-1.449-2.409c-1.271.506-.7,0.154-1.449,0.8a26.286,26.286,0,0,0-2.9,4.818h-0.724v-0.8c-0.864-.7-0.815-8.605-1.449-9.55,1.6,0.415,1.437,8.85,2.9,7.944-1.54-1.091-2.624-10.267-3.622-11.96,2.291,0.007.974,9.3,2.174,7.141-1.453-1.121-1.5-9.025-2.174-11.156h0.725v0.8c0.561,1.544.724,6.338,0.724,6.338-1.284-1.565-2.074-12.363-2.9-14.369a3.011,3.011,0,0,0-.725,1.606c-2.834,2.4-3.33,5.088-3.621,8.834l1.448-.8v0.8a6.836,6.836,0,0,0-2.173,2.409c1.5,0.3,1.394.195,2.173,0.8-2.536,1.963-.7,2.484-1.448,3.212q-0.363.8-.725,1.606H601.25a18.3,18.3,0,0,0-1.449-4.015c-1.524.632-1.308-.026-2.173,0.8-1.176,1.084-.812.514-1.448,2.409-1.12-.91-0.611-0.871-2.174-1.606-0.3,2.875.342,2.021-1.448,3.212-0.1-2.716-.358-4.141-1.449-5.621v1.606c-1.951,2.35-1.8,4.569-2.173,7.227h-1.449v-0.8a9.4,9.4,0,0,1-1.448-2.409c1.641,0.321.785,0.738,2.173,0-1.711-2.112-1.878-5.052-4.346-6.425-1.32,2.943-1.7,3.245-5.795,3.213a2.541,2.541,0,0,0-1.449-.8q-1.086-4.015-2.173-8.031h-0.724c-0.287,3.641-1.136,5.976-3.622,7.228-1.5-2.347-1.3.164-2.173-2.41-1.429-1.478-1.147-3.613-2.9-4.818-0.746,5.58-3.232,8.06-4.346,12.849h-1.448a25.3,25.3,0,0,0-2.174-9.637c-0.833.941-1.332,2.278-2.172,3.213-0.71-4.727-3.142-4.709-4.347-8.834a3.012,3.012,0,0,0-.724,1.606c-0.98,1.385-1.542,3.893-2.173,5.621h-0.724c0.022-3.73-.732-7.477-2.9-8.834a5.708,5.708,0,0,1-1.449,3.213c-0.5-3.587-.866-3.746-4.346-4.016a30.562,30.562,0,0,1-2.9,10.44c-1.271-.506-0.7-0.154-1.449-0.8-1.68-2.094-2.532-7.115-2.9-10.44h-2.173c-0.5,2.774-1.553,7.568-3.622,8.834-0.368-3.387-1.96-10.588-4.346-12.046-0.373.444-1.645-.361-3.622-0.8a21.094,21.094,0,0,0-2.173-7.228,3.012,3.012,0,0,0-.724,1.606c-1.308,1.929-1.543,5.337-2.9,7.228v-1.606c-1.647-2.132-2.125-5.84-2.9-9.637a3,3,0,0,0-.724,1.606c-0.98,1.228-1.266,3.46-2.173,4.819-0.829-6.691-4.272-11.47-5.8-18.471a2.182,2.182,0,0,0-.725.8c-3.01,3.689-3.443,11.382-5.794,18.471H492.6c-0.084-4.841-2.654-10.093-4.346-10.441a2.171,2.171,0,0,1-.724-0.8,3,3,0,0,0-.724,1.607c-2.328,2.867-2.556,8.247-2.9,11.243h-0.724v-0.8c-2.355-2.554-1.455-8.464-4.346-10.44v1.606c-1.56,2.2-.551,3.115-3.622,4.015a19.58,19.58,0,0,1-3.622,1.606c-0.527-5.614-1.672-6.713-2.9-12.046-1.689,0-2.041-1.384-2.9-1.606-0.96,1.41-1.213,4.162-2.173,5.621-0.6-2.606.355-1.227-1.448-2.409a18.362,18.362,0,0,1-1.449,4.016H460c-0.194-2.787-.381-4.489-2.174-5.622,0,0-.317,3.189-0.724,1.606v-0.8c-1.566-2.115-1.61-5.9-2.9-9.637a3.011,3.011,0,0,0-.725,1.606c-2.96,4.274-4.165,10.092-5.8,13.653a2.2,2.2,0,0,1-.724-0.8c-2.079-1.986-2.962-7.05-3.622-10.44a2.171,2.171,0,0,0-.724.8c-0.892,1.077-1.322,2.877-2.173,4.015V848.65c-0.883-1.268-1.267-3.568-2.173-4.819v0.8c-1.6,2.262-1.726,4.637-2.173,6.425a9.452,9.452,0,0,1-2.9.8c-4.2-3.6-11.594-4.916-16.66-7.228-0.637-1.925-.55-2.977-2.173-4.015-0.886,2.489-.271,1.816-2.9,2.409a2.538,2.538,0,0,0-1.449-.8q-0.724-3.614-1.448-7.228a3,3,0,0,0-.725,1.607c-1.12.909-.61,0.871-2.173,1.606-1.558-2.314-2.225,17.967-5.07,18.961-0.414-1.971-3.343-7.267-3.622-6.425a5.974,5.974,0,0,0-1.449,3.213H394.81c0.074-3.743-.583-5.3-1.449-9.638h-1.448q-1.088,3.614-2.174,7.228v-1.606c-0.838-1.689.373-3.325-.724-6.425-1.346-3.8-4.417-4.594-5.795-10.44a2.186,2.186,0,0,0-.724.8c-2.183,2.891-2.125,7.533-2.9,11.243a3.008,3.008,0,0,1-.724-1.606,14.332,14.332,0,0,1-2.9-8.03H373.8c-0.746,4.16-2.241,6.25-3.622,9.636-1.6-2.121-1.214-5.027-3.622-6.424-0.789,1.612-2.188,2.325-2.9.8-1.862-2.9-1.534-8.568-4.346-10.44v1.606c-2.187,2.741-2.877,8.7-3.622,12.849a3,3,0,0,1-.724-1.606q-1.088-3.613-2.173-7.228c-1.586.722-1.046,0.693-2.174,1.607-0.467-2.786-1.586-4.579-3.621-5.622-0.6,2.931-1,4.445-1.449,6.425a3,3,0,0,1-.724-1.606c-2.315-2.509-1.408-7.741-4.346-9.637v0.8c-1.572,2.447-1.155,6.458-3.622,8.03,0.039-3.817-.675-8.23-2.9-9.637-1,4.082-2.834,3.113-4.346,5.622q-1.449,6.022-2.9,12.046H326v-0.8c-1.86-1.893-2.643-6.944-3.622-9.637-4.554-.166-0.572-1.235-4.346-2.409-0.791,1.246-2.178,1.339-2.9,2.409-1.883,2.8-.794,7.011-3.621,8.834V837.9Z"/>
  <path id="mountain-3" d="M2594.44,570.011l-1.21,0c-0.4,1.292-.8,2.584-1.21,3.875h-0.6c0.2,0.645.4,1.291,0.61,1.936l-1.21,0c-0.39-1.985-.97-2.234-1.22-4.517-2.19.531-1.59,1.325-2.42,3.231-0.4.216-.8,0.431-1.21,0.647v0.646l1.21,0c0.01,0.43.01,0.861,0.01,1.291-0.41.216-.81,0.432-1.21,0.647v2.583h-1.21l0.6-1.292-2.42,0-0.6,2.583h-0.6v3.228c-0.11.244-1.43,0.932-1.81,1.939l1.21,0v0.646c-0.61.431-1.21,0.862-1.82,1.293-0.37.888,1.03,0.388,1.22,1.29-0.41.215-.81,0.431-1.21,0.647a4.663,4.663,0,0,0,0,3.873h-0.6c-0.69.736-.01,0.257-1.21,0.648-0.66-4-2.6-5.643-3.04-9.679-1.67.469-1.35,0.182-1.81,1.939l-1.21,0c-0.01-.43-0.01-0.861-0.01-1.291l-1.21,0c-0.34,2.248-1.34,2.389-1.81,3.876l1.21,0v0.645c-0.8.647-1.61,1.294-2.41,1.941-0.55,1.224,1.27-.046,1.21,1.289h-0.61l-0.6,3.874c-0.4.216-.8,0.432-1.21,0.647-0.29.859,0.41-.243,0.61,0.645l-0.6,1.292c0.4,0.215.8,0.429,1.21,0.644,0.33,1.462-.62,1.44-1.21,1.938v0.646h-0.61v-0.646h-0.6c-0.2-1.076-.41-2.151-0.61-3.227-1.67.47-1.35,0.182-1.81,1.939-2.38,2.4.48,1.431-.6,3.875-0.61.431-1.21,0.862-1.82,1.293-0.6.774-.04,1.583-0.6,2.583-0.4-.214-0.81-0.429-1.21-0.643-0.4,1.291-.8,2.583-1.21,3.875-0.6-.215-1.21-0.429-1.81-0.643-0.23-2.5-.94-2.673-1.22-5.163l-1.21,0-0.6,3.229c-0.4.216-.81,0.431-1.21,0.647-0.24.608,1.19,1.24,0.61,2.581h-0.61a14.126,14.126,0,0,1-1.21,1.293c0.21,0.645.41,1.291,0.61,1.936h-0.6v-1.291l-1.21,0c-0.21-.646-0.41-1.291-0.61-1.936l1.21,0c-0.2-2.287-.8-2.548-1.22-4.517-1.91-.07-1.13-1.26-1.81.648l-1.21,0v1.291c-0.61.216-1.21,0.432-1.82,0.648v0.646h0.61v0.645l-1.81,0c0.33-1.581.62-1.428,1.2-2.584h-0.6c-0.69-.734-0.01-0.257-1.21-0.644,0-.43-0.01-0.86-0.01-1.291,0.61,0.215,1.22.429,1.82,0.643-0.49-2.076-1.55-2.293-2.43-3.869l1.21,0c-0.23-2.286-.75-1.959-1.21-3.872,0.85-.04-0.09.112,0.61,0.645,0.95,0.736.56-1.588,0.6-1.938a5.429,5.429,0,0,1-1.82-3.224l-1.82,0v0.646c-1.42,1.207-1.79,2.343-1.8,5.167l-1.22,0c0.21,0.43.41,0.86,0.61,1.29l1.21,0v0.645c-1.06,1.025-1.35.747-1.81,2.585,1.91-.076,1.13-1.263,1.82.643l-1.21,0c0.2,0.86.4,1.721,0.61,2.581h-0.61c-0.69.736,0,.257-1.21,0.647v1.292l1.82,0V612.7c-1.45.68-1.94,0.726-2.42,2.586l1.21,0v0.646h-0.6v0.645l-1.82,0c0,1.076.01,2.152,0.01,3.228h-1.21l0.6,1.936c-0.8.217-1.61,0.433-2.42,0.649,0.01,0.861.01,1.722,0.01,2.582-0.75.5-1.65,2.15-1.82,1.94v-0.646c-0.69-.734-0.24,0-0.6-1.29-1.92-.07-1.14-1.26-1.82.648-0.8-.214-1.61-0.428-2.42-0.642v0.646h-0.6v1.291c-0.61.431-1.21,0.862-1.82,1.294,0.21,0.645.41,1.29,0.61,1.935a2.011,2.011,0,0,0-1.21,1.293c0.41,0.215.81,0.429,1.21,0.644,0.44,2.06-2.61,1.86-1.2,2.584,0.47,0.655.74,0.634,1.21,1.289-0.53.384-1.66,0.591-1.21,1.939h0.61v1.291c-1.91.076-1.13,1.264-1.82-.643l-1.81,0v1.291c-0.77.688-.63,1.148-1.21,1.938h-0.6v1.291c-0.61.216-1.21,0.432-1.82,0.648-0.4.646-.8,1.293-1.21,1.939l-1.21,0c0,0.215.01,0.43,0.01,0.645-0.61.431-1.21,0.863-1.82,1.294v1.291c-0.4-.214-0.8-0.429-1.21-0.644q-1.5,1.939-3.02,3.878l-1.21,0-4.23,5.17c-0.6.432-1.21,0.863-1.81,1.294v1.937c-0.6.216-1.21,0.432-1.81,0.648v0.646c-0.41.215-.81,0.431-1.21,0.647v1.291c-0.4.216-.81,0.432-1.21,0.647V665.7h-0.6c-0.41,1.292-.81,2.584-1.21,3.875h-0.6l-0.6,4.52h-0.61v2.582h-0.6v1.937h-0.6v1.937h-0.61c0,0.43,0,.861.01,1.291h-0.61v1.291c-0.4.216-.8,0.432-1.21,0.647l-0.6,2.583h-0.6c-0.81,1.077-1.62,2.155-2.42,3.232h-0.61v-1.291l-1.81,0v1.937h-0.61v-0.646h-0.6c0-.861,0-1.721-0.01-2.582-1.01-.859-2.01-1.719-3.02-2.578,0-.215-0.01-0.43-0.01-0.645l1.22,0c-0.01-.646-0.01-1.291-0.01-1.937-0.16-.46-1.38-0.277-1.21-1.289,0.03-.2,1.6-0.147,1.21-1.938h-0.61v-1.292h-0.6c-0.21-.645-0.41-1.29-0.61-1.935l-1.82,0a5.518,5.518,0,0,1-1.2,2.584h-0.61a4.283,4.283,0,0,0,.01,3.228h-0.61l-0.6,1.937h0.6c0.69-.736,0-0.257,1.21-0.647v1.291c-1.67.47-1.35,0.182-1.81,1.939l1.82,0v0.645h-0.61a5.066,5.066,0,0,1-1.81,1.294v-0.646a5.009,5.009,0,0,1-1.22-1.934h-1.21c-0.68,1.111-.38.876-1.81,1.294q-1.515-5.484-3.04-10.969h-1.21c-0.4,1.292-.8,2.584-1.21,3.875h-0.6c0.2,0.645.4,1.291,0.61,1.936h-0.61c-0.4.861-.8,1.723-1.21,2.584h0.61v0.645c-0.4.216-.81,0.432-1.21,0.648-0.46,1.626,1.57-.363,1.21,1.289-0.6.431-1.21,0.863-1.81,1.294v0.645h0.61v0.646h-0.61v2.582h-0.6c-0.69.736,0,.257-1.21,0.647v-1.291l-1.82,0a7.744,7.744,0,0,1-1.2,3.875h-0.61c0.54,1.326.69-.34,1.21,0.644l-0.6,1.937c-1.67-.464-1.35-0.178-1.82-1.934h-0.6c0-1.076-.01-2.152-0.01-3.228-0.6-.429-1.21-0.859-1.81-1.288-0.21-1.291-.41-2.582-0.61-3.872h-0.61c-0.69.736,0,.257-1.21,0.647l-0.6,2.583h-0.61c0.21,0.645.41,1.29,0.61,1.936-0.6.431-1.21,0.862-1.81,1.293v0.646h0.6l-0.6,1.937h0.61v0.645c-0.41.216-.81,0.432-1.21,0.648l-0.6,5.81-1.21,0a11.777,11.777,0,0,0-1.21-3.226c-1.22.372-.53-0.076-1.21,0.648-0.46.438-1.79,1.86-1.82,2.584,0.58-.131,1.46-0.3,1.22.644-0.61.431-1.21,0.863-1.82,1.294,0.2,0.645.41,1.29,0.61,1.936-0.4.215-.81,0.431-1.21,0.647-0.24.875,0.2,0.049,0.61,0.645-0.21.43-.41,0.861-0.61,1.292-0.4-.215-0.81-0.43-1.21-0.644-0.2-.43-0.4-0.86-0.61-1.29,0.47-.719.8,0.243,0.61-0.647,0,0-.62-0.016-0.61-1.29h0.61v-0.645h-0.61v-1.291h-0.61c-0.2-1.075-.4-2.151-0.61-3.226-2.95.2-1.82,0.417-3.62,1.3-0.01-.215-0.01-0.43-0.01-0.646-1.44-.389-1.12-0.2-1.81-1.288h-0.61v-1.937h-0.61v-0.645c0.15-.332.97-0.095,0.61-1.292h-0.61c-0.4-1.506-.81-3.012-1.21-4.517-1.68.469-1.36,0.182-1.82,1.939-0.69.736-.24,0-0.6,1.292l-1.21,0v-1.937l-1.82,0-0.6,2.583h-0.61a0.994,0.994,0,0,0,.61,1.29l-0.6,1.938h-1.21c-0.41-1.29-.81-2.581-1.22-3.871l-1.21,0a9.175,9.175,0,0,1-1.2,3.229h-0.61c0.43,1.242.78-.1,1.21,0.644-0.21,1.079-1.01.906-1.21,1.293-0.78,1.556.12,2.286,0.01,2.582h-0.61v0.645h-0.6l0.6,1.936-1.21,0v-1.937l-1.21,0c-0.51,2.688-2.02,3.609-3.02,5.814h-0.6v-0.645c-0.52-1.219-.61,1.292-0.61,1.292-0.8-.214-1.61-0.428-2.42-0.642v1.291h-0.6c-0.11-3.245-1.25-3.839-1.83-6.453-1.67.469-1.35,0.182-1.81,1.939-0.69.737-.24,0-0.6,1.292l-1.21,0c-0.38-1.984-.97-2.234-1.22-4.517l-1.21,0v0.645c-1.05.01-.78-1.127-1.81,0v1.291h-0.61c-0.06-.266.34-2.037-0.6-1.29v0.645h-0.61l-0.6,3.229c-0.4.216-.81,0.432-1.21,0.647-0.49,1.609,1.57-.355,1.21,1.29-0.6.431-1.21,0.862-1.81,1.293-0.31.851,0.43-.225,0.61,0.645-0.2.646-.41,1.292-0.61,1.937h0.61v0.645c-0.4.216-.81,0.432-1.21,0.647-0.53,1.065.22,1.932-.6,2.584-1.7,1.347-1.56-1.153-2.42,1.94-0.61-.214-1.21-0.429-1.82-0.643v-0.646h1.21c-0.08-1.127-1.55-1.4-1.82-1.934,0.21-.646.41-1.292,0.61-1.938h0.6c0.41-2.037-1.52-3.114-1.82-4.516l0.6-1.292h-0.6v-1.291h-0.61c-0.2-1.075-.4-2.151-0.61-3.227l-1.81,0c-0.36,1.747-1.19,1.87-1.21,1.938,0.2,0.861.41,1.721,0.61,2.581-0.61.432-1.21,0.863-1.82,1.294,0.21,0.43.41,0.86,0.61,1.291-0.35.616-.97,0.282-1.21,1.292h1.21v0.645h-0.6a5.608,5.608,0,0,0-.6,2.583l-1.21,0c-0.21-1.076-.41-2.151-0.61-3.227l-1.82,0c-0.59-2.177-.73-1.234-1.82-2.58h-0.6v-1.291h0.6v0.646c0.93-.244.74-0.605,1.21-1.293-0.81-.644-1.61-1.289-2.42-1.933v-0.646c0.63-.664,1.9.208,1.81-1.293h-0.6c-0.01-.431-0.01-0.861-0.01-1.292-1.52-1.32-.25-1.557-3.02-1.932a9.183,9.183,0,0,1-3.03,3.878c0.69,1.248.29-.406,1.22,0.644-0.17,1.1-.83.739-1.21,2.584l1.81,0c0,0.215,0,.43.01,0.646h-0.61c-0.69.737,0,.258-1.21,0.648v1.291l1.82,0v0.646c-0.14.068-2.19,0.932-1.82,1.293h0.61c0.2,0.645.41,1.29,0.61,1.935-1.67.47-1.36,0.182-1.82,1.94l1.21,0a1.092,1.092,0,0,1-.6.646c-0.69.736,0,.257-1.21,0.648v1.291l2.42,0v0.646h-0.6c-0.69.737,0,.258-1.21,0.648,0.2,0.645.4,1.29,0.61,1.936h-0.61c-0.68,1.111-.38.876-1.81,1.294l0.6-2.583-1.21,0c-1.71-3.041-1.77-.778-2.43-4.515-2.44.778-1.11,1.021-2.41,2.586h-0.61V717.55c-0.69-.734-0.24,0-0.61-1.29l-1.81,0v1.291c-0.61-.215-1.21-0.429-1.82-0.643v-0.646l1.21,0c-0.16-1.087-1.06-.956-1.21-1.289a16.425,16.425,0,0,1-1.22-5.162l-1.81,0c-0.4,1.292-.81,2.584-1.21,3.875h-0.6c-0.36,1.653,1.54-.368,1.21,1.29-0.61.431-1.21,0.862-1.81,1.293l0.6,1.936h-0.6V719.5h-0.61c0.21,0.43.41,0.86,0.61,1.29-0.4.216-.8,0.432-1.21,0.647l-0.6,3.229h0.61v0.646h-0.61v0.645c-1.99.871-6.69,2.334-10.28,1.306V726.62l-6.06.009v0.645l-3.63.006v0.645l-1.81,0v0.646h-1.21v0.646l-1.81,0v0.645l-2.42,0v0.645l-10.29,1.307v0.645l-1.21,0-0.6,1.292c-0.81.216-1.62,0.433-2.42,0.649-0.2.431-.41,0.862-0.61,1.292l-1.21,0v0.646h-1.21V737l-1.21,0c0,0.215,0,.43.01,0.645l-1.22,0c0,0.215.01,0.43,0.01,0.646h-1.21v0.646l-1.21,0a17.2,17.2,0,0,0-3.63,3.233c-0.4.216-.81,0.431-1.21,0.647v3.228c-0.87.921-1.53,3.606-1.81,5.167q-8.16,2.916-16.33,5.834l-5.44.654c-0.2.43-.4,0.861-0.61,1.292-0.8.216-1.61,0.432-2.42,0.649v0.645a7.981,7.981,0,0,1-3.62,1.942c0-.43,0-0.86-0.01-1.291,0.61-.216,1.21-0.432,1.82-0.648V759.65l-3.03-2.577v-0.646c0.09-.113,2.06.365,1.21-0.647h-0.61c-0.4-.645-0.81-1.29-1.21-1.935a2.532,2.532,0,0,0,1.21-1.293c-1.87-1.349-2.83-4.706-3.64-7.1,0-.861,0-1.722-0.01-2.582h-0.6v0.646c-1.01,2.153-2.01,4.307-3.02,6.46h-0.6v0.645l1.21,0v1.292c-1.29.784-1.31,1.456-3.02,1.941v1.291l-1.21,0c0.37,1.331.74,1.593,0,3.227h-0.6v1.291h-0.61c0.01,0.43.01,0.861,0.01,1.291-0.41.216-.81,0.432-1.21,0.647l0.6,1.936c-0.4.216-.8,0.432-1.21,0.648-0.81,1.676-.13,1.513.01,3.227-2.09-.6-2.05-1.6-2.43-3.869,1.22-.372.53,0.076,1.21-0.648-1.44-1.066-.39-0.45-1.21-1.935h-0.6c-0.01-.43-0.01-0.86-0.01-1.291h-0.6c-0.49-1.056.23-2.007-.61-2.581l-1.21,0-0.6,2.583c-0.41.216-.81,0.431-1.21,0.647,0.2,0.861.4,1.721,0.61,2.581-0.81.647-1.62,1.294-2.42,1.941,0.4,1.075.81,2.15,1.21,3.225h-0.6a6.93,6.93,0,0,0-1.21,2.584c-0.6-.214-1.21-0.428-1.82-0.643-0.26,3.173-1.75,3.857-2.41,6.46h-0.6v-0.645h-0.61V773.9c-0.61-.214-1.21-0.428-1.82-0.643-0.34,2.205-1.02,3.951-3.02,4.524v0.645l-3.02,0a29.623,29.623,0,0,0-2.43-7.1h-0.61v0.646c-1.09,1.01-1.8,3.055-2.41,4.522-0.69-.734-0.24,0-0.61-1.29-1.61-1.481-2.39-4.619-2.43-7.743l-1.21,0c-0.3,3.59-2.26,4.77-3.02,7.751l1.21,0-0.6,1.938c-0.4.215-.8,0.431-1.21,0.647-0.45,1.149.42,0.98,0.61,1.29l-0.6,1.292h-0.61l-0.6,1.292c-1.19.3-.79-0.337-1.21-0.644-0.62-.452-1.06-0.32-1.22-1.289,0.13-.322.95-0.1,0.61-1.292-0.41-.215-0.81-0.429-1.21-0.644-0.04-1.055.99-.757,1.21-1.293-0.21-.645-0.41-1.29-0.61-1.935l1.21,0v-0.646h-0.61c0.2-.43.4-0.861,0.61-1.292-0.41-.214-0.81-0.429-1.22-0.644v-1.291h-0.6c0-.645,0-1.291-0.01-1.936-0.4-.215-0.8-0.429-1.21-0.644,0.2-.861.4-1.722,0.61-2.583h-0.61c-0.2-.861-0.41-1.721-0.61-2.581h-0.6c0-.645-0.01-1.291-0.01-1.936h-0.6c-0.21-1.506-.41-3.012-0.61-4.518h-0.61v0.645c-2.27,2.1-2.58,6.325-4.83,8.4V766.2c0.1,0.113,2.06-.371,1.21.644h-0.6c-0.6,1.076-1.21,2.153-1.81,3.23-0.69-.734-0.24,0-0.61-1.29-1.05-.972-1.51-2.769-1.82-4.516l-1.21,0c-0.25,1.152-2.57,6.435-3.02,6.46l1.21,0a6.88,6.88,0,0,1-1.2,2.584h-0.61v0.645h0.61a5.261,5.261,0,0,1-.61,2.583l-1.81.649V775.9c-0.69.737-.24,0-0.61,1.292l-1.21,0v-3.227h-0.6c-0.02-.851,1.07-1.1.6-2.583h-0.61V770.1h-0.6c-0.01-.43-0.01-0.861-0.01-1.291h-0.6c-0.21-1.291-.41-2.582-0.61-3.872h-0.61c-0.69-.734,0-0.258-1.21-0.644-0.25,1.152-2.57,6.436-3.02,6.46l1.21,0a5.656,5.656,0,0,1-1.2,2.584h-0.61c0,0.86,0,1.721.01,2.582h-0.61v1.291h-0.6c-0.2.645-.4,1.292-0.61,1.937l-1.21,0q-0.9-3.549-1.82-7.1l-1.82,0c0,0.43.01,0.86,0.01,1.291-1.1-.608-0.96-0.893-2.43-1.288-0.34,1.929-1.13,2.963-1.81,4.522-0.69-.735-0.24,0-0.6-1.291h-0.61c-0.2-1.075-.4-2.151-0.61-3.226-1.67.469-1.35,0.182-1.81,1.939-0.75.623-2.08,4.393-2.42,4.522l1.21,0a5.927,5.927,0,0,1-1.2,2.584h-0.61c0.21,0.861.41,1.721,0.61,2.582h-0.6a4.758,4.758,0,0,1-1.82,1.294v-0.645h0.61c-0.21-.645-0.41-1.291-0.61-1.936h-0.61c-0.39-1.248.73-.369,1.21-0.647v-0.646h-0.6l0.6-1.292h-0.6a53.677,53.677,0,0,1-3.04-9.033l-1.21,0c-1.01,2.153-2.01,4.306-3.02,6.46-0.69-.735-0.24,0-0.61-1.291-0.69-.734-0.24,0-0.6-1.29l-1.82,0-0.6,3.229c-0.4.215-.81,0.431-1.21,0.647,0.2,1.075.41,2.151,0.61,3.227h-0.61l-0.6,1.291h-0.6l-2.43-7.742c-3.1,1.006-2.4,4.721-4.84,6.462v0.646c0.41,0.214.81,0.429,1.21,0.643,0.42,1.761-1.39,1.867-1.81,2.585l-0.6,2.583h1.21v0.645h-0.6c-0.61.862-1.21,1.723-1.82,2.585l-1.21,0c-0.59-1.28-1.89-2.623-2.42-3.87-0.21-1.291-.41-2.582-0.61-3.872-0.61-.215-1.21-0.429-1.82-0.643-0.25,1.152-2.57,6.436-3.02,6.46l1.21,0c-0.41,1.89-.67,2.115-2.41,2.586-0.41-1.291-.81-2.581-1.22-3.872-1.21.372-.52-0.076-1.21,0.648-1.2,1.142-.5,1.363-1.2,2.584-0.41.215-.81,0.431-1.21,0.647v2.582h-0.61v-0.646c-1.16-1.145-.54-1.152-1.21-2.58h-0.61c-0.53-1.244-.25-3.869-1.21-4.517l-1.21,0c-0.57,2.8-1.92,3.821-2.41,6.459h-0.61v0.645l1.21,0c-0.45,2.252-3.69,3.473-2.41,5.168l-1.21,0c-0.41-.86-0.81-1.72-1.22-2.58-1.58.551-.87,0.031-2.42,0.649-1.25,3.029-1.76,3.319-2.41,7.1a4.983,4.983,0,0,1-1.21-1.934c-1.09.611-.95,0.895-2.42,1.294,0-1.506,0-3.012-.01-4.518h-0.6v0.646a9.382,9.382,0,0,0-1.81,3.23c-0.4-.214-0.81-0.429-1.21-0.643v-0.646h-0.61v0.646h-0.6V803.8c-0.4.215-.81,0.431-1.21,0.647,0.2,0.645.4,1.29,0.61,1.936h-0.61c-0.55.7-.53,1.886-1.21,0.648h-0.6c0.03-.854,1.06-1.105.6-2.583h-0.61l-0.6-2.582c-1.66.419-1.38,0.847-3.03,1.3-0.2-1.291-.41-2.582-0.61-3.872h-0.6v0.646c-1.19,1.1-1.17,2.186-1.81,3.876h-0.61c0.2,0.645.41,1.29,0.61,1.936-0.4.215-.81,0.431-1.21,0.647-0.71,1.148-.23,2.793.01,4.519l-1.22,0c-0.35-2.03-.98-2.879-1.21-5.163-1.67.469-1.36,0.182-1.81,1.939-0.69.737-.25,0-0.61,1.292l-1.21,0-0.6,1.938c-0.61-.215-1.21-0.429-1.82-0.643l-1.2,3.875c-0.41.216-.81,0.431-1.21,0.647-0.47,1.083.77,0.56,1.21,0.644-0.61.861-1.21,1.723-1.81,2.585h0.6c0.66,0.579-.6.646-0.6,0.646h-0.61l0.6-1.937h-0.6c-0.79-2.259-1.56-3.721-1.82-6.453l-1.21,0c-0.41,1.291-.81,2.583-1.21,3.875-0.4.215-.81,0.431-1.21,0.647,0.2,0.645.41,1.291,0.61,1.936h-0.61a6.373,6.373,0,0,0-1.2,2.584c0.4-.216.8-0.432,1.21-0.648v0.646h-0.61c-0.69.736,0,.257-1.21,0.647v1.291c0.86-.036-0.24-0.489.61-0.646,0.52-1.221.6,1.29,0.6,1.29l-1.21,0c0.01,0.645.01,1.291,0.01,1.936-0.28.642-1.98,0.52-.61,1.938l-1.21,0v0.645l-1.81,0v-1.291h-0.61c-0.41-.767,1.05-0.475,1.21-1.293-0.4-.215-0.81-0.429-1.21-0.644a18,18,0,0,1-1.82-7.1l-1.22,0-0.6,3.874-1.81-.643-0.6,3.228h-0.61v1.291c-0.4.216-.8,0.432-1.21,0.648,0.21,0.86.41,1.721,0.61,2.581h-0.6c-0.69.736,0,.257-1.21,0.647,0.2,0.645.4,1.291,0.61,1.936h-0.61v0.646q-3.015.649-6.05,1.3v0.645l-1.81,0v0.645l-2.42,0v0.645c-0.81-.213-1.62-0.427-2.42-0.641v1.291c-3.43.633-6.04,2.169-9.68,2.6v-0.645h-0.61c0.2-.646.4-1.292,0.61-1.938-0.61-.214-1.22-0.429-1.82-0.643v-0.645h0.6c-0.4-.645-0.81-1.29-1.21-1.935l1.21,0v-1.936h-1.21a8.148,8.148,0,0,0-2.43-3.224v-0.645c0.09-.114,2.06.364,1.21-0.648h-0.6a5.933,5.933,0,0,0-1.22-1.289v-1.291c-0.4-.215-0.8-0.429-1.21-0.644v-1.291h-0.61v-1.291h-0.6c-0.2-.645-0.41-1.291-0.61-1.936-0.69.737-.24,0-0.6,1.292q-0.915,2.905-1.81,5.813l1.21,0-0.6,1.937-1.82,0v2.582h-0.6v-1.291c-0.64-1.148-.61,1.292-0.61,1.292a14.6,14.6,0,0,0-3.62,6.461h-0.6v-0.646h-0.61c-0.2-1.291-.41-2.582-0.61-3.872h-0.61c-0.08.294,0.38,2-.6,1.292-0.01-.251.29-2.055-0.61-1.291,0,0.216.01,0.431,0.01,0.646-1.01,1.1-1.18,2.973-1.81,4.521h-0.61c0.2,0.646.41,1.291,0.61,1.936h-0.61l-3.03-4.514c0.86,0.033-.24.489,0.61,0.644,0.52,1.219.6-1.292,0.6-1.292-0.82-.751-0.93-1.176-1.21-2.58h0.6c0.69,0.734,0,.257,1.21.644l-0.6-1.936h-0.61v-1.291h-0.61c-0.2-1.506-.4-3.012-0.61-4.518h-0.6c-0.78-2.623.27-4.813-1.22-6.454v0.646c-1.08,1.023-.52,1.278-1.21,2.584h-0.6v1.291c-0.4.216-.81,0.431-1.21,0.647v1.291c-0.4.216-.8,0.432-1.21,0.648V824.6h-0.6c-0.4.647-.81,1.293-1.21,1.939l1.82,0v0.646l-4.23,3.234v1.291c0.6-.216,1.21-0.432,1.81-0.648v0.645c-0.6.431-1.21,0.863-1.81,1.294a1.079,1.079,0,0,1-.61.646c-0.4-1.935-.81-3.872-1.21-5.808h-0.61v0.646l-1.81-.643v1.291h-0.61v-0.646c-0.52-1.218-.6,1.292-0.6,1.292l-1.21,0v-1.291a4.9,4.9,0,0,0-1.21,1.938h-0.61c-0.1-.1.34-2.194-0.6-1.29v0.646h-0.61l-0.6,3.228c-0.6.431-1.21,0.863-1.81,1.294-0.15.63-.06,0.877,0.6,0.645h0.61c0.02,1.036-1.64,1.517-1.82,1.939,0.21,0.645.41,1.291,0.61,1.936l-1.21,0c-0.11-2.937-.87-2.772-1.82-4.516l1.21,0c-0.44-2.006-1.77-2.944-2.43-4.515-0.92-2.222-1.01-4.948-1.82-7.1-0.69.737-.24,0-0.6,1.292h-0.61l-0.6,3.229h-0.6v1.291h-0.61V829.8h-0.6a5.4,5.4,0,0,0-1.21,2.584c0.61-.216,1.21-0.433,1.82-0.649v0.646c-1.18.741-1.44,1.729-2.42,2.586v-0.646c-0.41-.214-0.81-0.429-1.21-0.644v-0.645c0.09-.114,2.05.364,1.21-0.647h-0.61c-0.61-1.074-1.21-2.15-1.82-3.225,0.81,0.214,1.62.428,2.42,0.642v-0.645c-2.64-1.876-4.74-9.455-5.46-13.548-0.69.736-.24,0-0.61,1.292-1.37,1.312-.44,1.438-1.2,3.229h-0.61v1.291c-0.75,1.547-1.94,2.531-2.41,4.522l-1.21,0c-0.2-1.29-.41-2.581-0.61-3.872l-1.21,0c-0.33,4.01-2.77,5.668-3.62,9.043l1.81-.649c0,0.216,0,.431.01,0.646a10.513,10.513,0,0,0-3.63,3.879l1.81,0c0,0.215.01,0.43,0.01,0.645a2.457,2.457,0,0,0-1.21,1.293h-0.61v-1.291h-0.61c-0.2-1.506-.4-3.012-0.61-4.518l-1.21,0c-0.27,3.421-2.26,4.6-3.01,7.105,0.62,0.857,1-.783,1.21.644h-0.61c-0.78,1.3-1.38,1.444-1.81,3.23,0.4-.215.81-0.431,1.21-0.647v0.646h-0.6c-0.35.269-.09,1.054-1.21,0.647v-0.646c-0.98-1.016-1.67-3.874-1.83-5.807l-1.21,0c0,0.646,0,1.291.01,1.937-0.41.215-.81,0.431-1.21,0.647a1.108,1.108,0,0,1-.61.646q-0.6-3.226-1.22-6.453c-0.8.216-1.61,0.433-2.42,0.649a20.259,20.259,0,0,1-1.81,5.167h-0.6a6.475,6.475,0,0,0-.61-2.581h0.61v0.645c0.52,1.219.6-1.292,0.6-1.292-1.81-1.233-2.8-4.218-3.04-7.1l-1.21,0-0.6,3.228h-0.6V833.1c-0.4.216-.81,0.432-1.21,0.648,0.2,0.645.41,1.29,0.61,1.935-0.61.431-1.21,0.863-1.82,1.294,0.21,0.66,1.57.625,1.22,1.289h-0.61c-0.69.736,0,.257-1.21,0.648-0.2-1.506-.41-3.013-0.61-4.518h-1.21v1.292h-0.6c-0.25-2.872-1.11-3.795-1.22-7.1-2.78.944-.78,0.387-1.81,2.585h-0.61v1.291c-0.4.216-.8,0.432-1.21,0.647V834.4c-0.6.431-1.21,0.862-1.81,1.293v1.292c-0.6.431-1.21,0.862-1.81,1.293,0.2,0.645.4,1.291,0.61,1.936l-1.21,0c-0.42-2.33-1.74-4.474-2.43-6.452,0-.861-0.01-1.722-0.01-2.582-0.4-.215-0.8-0.429-1.21-0.644v-1.291h-0.61v-3.873h-0.61c-0.69-2.539.79-6.1-.61-7.746v0.646c-0.75.692-.63,1.144-1.21,1.938h-0.6v1.291c-0.81.647-1.61,1.293-2.42,1.94-1.2,1.77-.68,2.566-3.02,3.232v1.291h1.21a1.1,1.1,0,0,1-.6.646c-0.94,1.7-2.51,2.411-4.24,3.234,0.01,0.43.01,0.861,0.01,1.291,0.6-.216,1.21-0.432,1.81-0.648v0.645a1.091,1.091,0,0,0-.6.647c-0.81.431-1.61,0.863-2.42,1.295l-1.83-6.453a1.119,1.119,0,0,0-.6.646h-0.6v1.937h-0.61v-1.291c-0.69-.735-0.24,0-0.61-1.29h-1.21c0,0.646.01,1.291,0.01,1.937-1.92.076-1.14,1.264-1.82-.643a5.582,5.582,0,0,0-2.42.649c-0.35-2.713.13-1.021-1.82-1.934-0.26-2.766-1.1-3.2-1.22-6.453-0.6.216-1.21,0.432-1.81,0.648v1.937h-1.21c-0.5-6.87-4.41-9.2-4.86-16.131l-1.21,0c-0.31,4.153-2.69,6.752-4.23,9.689,0.61-.216,1.21-0.432,1.82-0.648v0.646a22.352,22.352,0,0,0-1.81,2.584c-0.41.216-.81,0.432-1.21,0.648v1.291h-0.61l-0.6,3.228c-0.4.216-.8,0.432-1.21,0.648,0.01,0.645.01,1.291,0.01,1.936h-0.61V827.38c-0.72-.5-0.54.392-0.6,0.647-2.05,1.34-1.26,1.855-2.42,3.876-0.4.216-.81,0.432-1.21,0.648v2.582h-0.6v-1.291l-2.42,0c-0.21-.86-0.41-1.721-0.61-2.581l-1.82,0-0.6,2.583c-0.6.216-1.21,0.432-1.81,0.648l-0.6,3.229c-0.41.215-.81,0.431-1.21,0.647v2.582c-0.4.216-.81,0.432-1.21,0.647q-0.3,2.906-.6,5.811l-1.21,0v-2.582l-2.42,0-0.6,1.937a1.1,1.1,0,0,1-.61-0.645h-0.61l0.6-3.228c-0.4-.215-0.8-0.429-1.21-0.644a18.345,18.345,0,0,1-1.82-6.453l-1.82,0-1.2,3.875h-0.61c0,0.43,0,.861.01,1.291h-0.61v2.582c-0.4.216-.8,0.432-1.21,0.647l-0.6,3.875h-0.6c-0.26-2.766-1.11-3.2-1.22-6.453l-2.42,0-0.6,3.229-1.21,0q-0.915-2.258-1.82-4.516l-1.82,0-0.6,5.166H1822v1.291h-0.61c-0.49,1.55.53,2.415,0.61,3.226-0.4.216-.8,0.432-1.21,0.648,0.01,1.075.01,2.152,0.01,3.227l-1.21,0-0.6,3.874a11.325,11.325,0,0,0-4.84.653c-0.21-.86-0.41-1.721-0.61-2.581-1.26.181-1.74-.037-2.42,0.649V857.8h-0.6c0-.215-0.01-0.43-0.01-0.646-1.6-1.544-.28-2.009-1.21-3.871-0.81-.644-1.62-1.289-2.42-1.933a26.093,26.093,0,0,1-1.83-5.162l-2.42,0q-0.3,2.905-.59,5.811c-0.41.215-.81,0.431-1.21,0.647,0.2,1.076.4,2.151,0.61,3.227h-0.61v2.582h-0.6a1.755,1.755,0,0,0,.61,1.936c-0.2.645-.41,1.291-0.61,1.937h-0.6c-0.19-3.712-.92-2.36-1.82-4.516-0.21-1.506-.41-3.012-0.61-4.518l-1.82,0v0.645h-0.6v1.937l-2.42,0-0.6,3.229h-0.61v1.291c-0.4.216-.8,0.432-1.21,0.647l-1.2,5.812c-0.69-.734-0.24,0-0.61-1.29-0.4-.215-0.8-0.429-1.21-0.644v-3.873h-0.61a19.415,19.415,0,0,1-1.82-6.453l-1.82,0v0.645h-0.6V857.2l-1.21,0V855.26l-1.82,0v0.645c-1.34,1.256-2.26,4.01-3.01,5.815h-0.61c0.01-4.977-1.96-6.023-2.43-10.325l-1.82,0v0.646h-0.6v1.936h-0.61a9.347,9.347,0,0,0-1.2,5.166l-1.21,0-0.6,3.874c-0.6.216-1.21,0.432-1.81,0.648l0.6-3.228c-0.41-.215-0.81-0.429-1.21-0.644l-1.83-6.453-1.81,0c-0.2,1.076-.4,2.153-0.61,3.229h-0.6v1.291c-0.4.215-.81,0.431-1.21,0.647-0.99,2.072.95,1.67-1.2,3.229a1.11,1.11,0,0,1-.61.647v-1.291c-1.55.094-2.11,0.068-3.03,0.65,0,0.215.01,0.43,0.01,0.645l-3.03,0c-1.61.648-3.23,1.3-4.84,1.944V863.7c-0.69-.734-0.24,0-0.61-1.29l-3.63,0c-0.36,1.546-.19,1.2-1.21,1.939,0,0.215,0,.43.01,0.645-0.85.148,0.16-.241-0.61-0.644h-0.61v-3.228c-0.4-.215-0.81-0.429-1.21-0.644,0-1.076,0-2.152-.01-3.227h-0.6V855.97c-0.75-1.559-1.93-2.487-2.43-4.515l-1.81,0a30.735,30.735,0,0,1-2.42,3.877c-0.6.431-1.21,0.862-1.81,1.293v2.583c-0.61,1.906-1.44,3.926-.6,5.81h-0.6v0.646c-0.69-.735-0.24,0-0.61-1.29l-4.84.007-0.6,1.937a6.163,6.163,0,0,0-2.42-.642c-0.21.646-.41,1.292-0.61,1.938h-0.6c-0.21-1.291-.41-2.582-0.61-3.872l-2.42,0c-0.19,2.476-1.04,3.387-1.81,5.167h-0.61v-1.291c-0.4-.215-0.81-0.429-1.21-0.644-0.49-.809-1.15-4.119-1.82-4.516l-1.82,0c-0.4.646-.8,1.292-1.21,1.938h-0.6V865.7c-0.8.647-1.61,1.294-2.42,1.94,0,0.861.01,1.722,0.01,2.583h-0.61c0,1.075,0,2.151.01,3.227l-1.21,0c-0.01-.861-0.01-1.722-0.01-2.582H1701c-0.14-.773,1.16-1.151.6-2.583-0.4-.215-0.81-0.429-1.21-0.644a32.8,32.8,0,0,1-3.04-9.679l-1.82,0-1.8,5.813c-0.41.215-.81,0.431-1.21,0.647v1.291h-0.61c0,1.076.01,2.152,0.01,3.228h-0.61v-1.291c-1.47-1.365-3.39-7.523-3.64-10.324l-1.82,0c-0.23,3.205-1.86,4.934-3.02,7.105,0,0.431,0,.861.01,1.292-0.41.215-.81,0.431-1.21,0.647-0.47.833-.89,3.361,0,3.873l-1.21,0v-0.646h-0.61c-0.2-1.29-.4-2.581-0.61-3.872l-1.81,0c-0.2.123-1.17,3.27-1.81,2.584v-0.645c-1.48-1.377-3.17-7.109-3.65-9.678l-1.81,0c0-.861-0.01-1.722-0.01-2.582l-1.81,0v0.645h-0.61c0,0.645,0,1.291.01,1.937h-0.61V859.3h-0.6c-0.4,1.292-.81,2.584-1.21,3.875l-2.42,0-0.6,1.292a12.582,12.582,0,0,0-2.42-.642c-0.08,1.4-1.79,6.1-2.42,6.459l-2.42,0c-0.26-3.013-1.49-4.546-1.82-7.744l-1.82,0V863.2h-0.6l-0.6,3.229h-0.61v1.291h-0.6v1.291c-0.6.431-1.21,0.862-1.81,1.293v3.874h-1.21v-1.936h-0.61V871.6l-1.81,0c-0.41,1.291-.81,2.583-1.21,3.875-4.03.564-1.9,2.085-3.63,3.233l-1.21,0v-3.228c-0.4-.214-0.81-0.429-1.21-0.644,0.26-.655,1.03-1.307.6-2.583h-0.6c-0.01-.43-0.01-0.86-0.01-1.291h-0.6l-2.43-5.161-1.81,0c-1.37,2.659-3.4,3.835-3.63,7.752l-1.21,0c0.01,1.076.01,2.152,0.01,3.227,0,0-.62-0.151-0.6,1.292l0.6,1.291h-0.6c-0.17.849-.29,1.968,0.6,1.936,0,0.215.01,0.431,0.01,0.646l-1.21,0a6.676,6.676,0,0,0,.6,2.581c-1.44.394-1.12,0.207-1.81,1.294a1.1,1.1,0,0,1-.61-0.645c-0.82-.751-0.92-1.177-1.21-2.58l-4.84.652c-1.16,2.674-3.5,4.253-4.23,7.108-0.69-.735-0.24,0-0.6-1.291-0.69-.734-0.25,0-0.61-1.29l-2.42,0a6.588,6.588,0,0,1-1.21,1.293v1.291h-0.6v1.291c-0.61.431-1.21,0.862-1.82,1.294,0.01,0.86.01,1.721,0.01,2.582-0.74,2.12-1.63,2.665-1.81,5.812l-6.66,1.3a9.512,9.512,0,0,0-1.21-5.162h-0.61q-0.6-2.9-1.22-5.808l-2.42,0c0,0.646.01,1.291,0.01,1.937h-0.61c-0.51,1.181-2.6,5.659-1.2,6.457l-1.21,0a1.082,1.082,0,0,1-.61.646c-0.07-4.154-.64-2.8-1.82-5.161v-1.292h-0.6q-0.615-3.227-1.22-6.453l-2.42,0c-0.2,2.839-1.45,3.961-2.42,5.814v1.291c-0.4.216-.8,0.431-1.21,0.647-1.26,2.812,1.08,2.673-1.8,4.522a1.111,1.111,0,0,1-.61.646V898.17h-0.61v-1.937l-1.82,0-1.8,5.813h-1.21c-0.41-1.5-.81-3.011-1.22-4.517l-1.82,0c-0.64,3.037-2.16,3.352-1.2,6.457h-0.6V903.35c-0.85-.145.16,0.241-0.61,0.646h-0.6c-0.56,1.076.4,2.1,0.61,2.581h-0.61v-0.645c-0.89-.954-0.55,1.239-0.6,1.292h-0.61V905.29l-2.42,0v1.937h-0.6c-0.2-4.1-2.56-5.907-3.04-10.324l-1.82,0v0.645h-0.6c-0.2,1.076-.4,2.152-0.61,3.229h-0.6v1.291c-0.4.215-.8,0.431-1.21,0.647,0,0.861,0,1.721.01,2.582l1.2-.647c0,0.215.01,0.43,0.01,0.645h-0.61c-1.24,1.629-1.46.268-1.81,3.231,0.4-.216.81-0.432,1.21-0.648v0.646h-0.61c0,0.215,0,.43.01,0.645h-0.61v-0.645h-0.61c0.01,1.291.01,2.583,0.01,3.874h-0.61c0.21,0.43.41,0.86,0.61,1.29-0.4-.215-0.81-0.429-1.21-0.644V913.7h-0.6v1.937l-1.21,0c-0.35-1.577-.64-1.423-1.22-2.58,0.41,0.214.81,0.429,1.21,0.643v-2.582c-1.95-1.328-2.79-4.648-3.03-7.742l-1.82,0c-0.77,3.944-2.9,4.657-3.01,9.687l-3.63-.64c-0.01-.43-0.01-0.861-0.01-1.291l-4.23.006c0.07,2.041,1.18,1.208-.61,1.938l-0.6,1.938h0.61c-1.04,1.379-1.23.367-1.82,2.585-0.69-.735-0.24,0-0.6-1.291h-0.61v-2.582h-0.61v-0.646l-1.81,0c-0.09,2.687-.76,3.049-1.21,5.166l-1.21,0a4.951,4.951,0,0,0,.61,2.581h-0.6c-0.2.431-.4,0.862-0.61,1.292h-0.6v-1.291l-1.21,0V920.2h0.6c-0.38-.916-0.71-0.478-1.21-1.289l1.21,0v-1.936c-0.41.215-.81,0.431-1.21,0.647v-0.646h0.6v-0.646l-1.21,0,0.6-1.292h-0.6c-0.41-1.506-.81-3.012-1.22-4.517l-1.21,0,0.6-1.938c-1.25.181-1.73-.036-2.41,0.649v1.291h-0.61v-0.645h-0.6c-0.01-.861-0.01-1.722-0.01-2.583h-0.6v-0.645l-1.82,0c-0.28,1.766-2.42,4.152-1.2,5.167h-1.21a1.11,1.11,0,0,1-.61.647v-0.646h0.61c-0.21-.645-0.41-1.29-0.61-1.935h-0.61c-0.2-1.291-.4-2.582-0.61-3.873l-1.21,0v-1.291l-1.21,0V903.44l-1.82,0c-0.21,1.105-1.24,2.715-1.2,3.23h0.6v0.646h-0.6v-0.645l-1.82,0c-0.35,2.03-.97,2.881-1.2,5.166h-1.21v3.228l-1.21,0c0.07,2.04,1.19,1.208-.6,1.938v1.936h-0.6v-1.291h-0.61v-2.582l-1.21,0c0-.861-0.01-1.722-0.01-2.583l-1.21,0c0.2-.43.41-0.861,0.61-1.292l-1.21,0,0.6-1.292h-0.61c-0.2-1.506-.4-3.012-0.61-4.518l-2.42,0a17.062,17.062,0,0,1-1.2,4.52h-0.61c0.21,0.43.41,0.86,0.61,1.29-0.4-.214-0.81-0.429-1.21-0.643v2.582c0.41-.216.81-0.432,1.21-0.648v0.646h-0.6V913.8c-0.41-.214-0.81-0.429-1.21-0.643V913.8h-0.61c-0.63,1.192.88,2.165,0.61,2.581l-1.21,0c0.2,0.43.41,0.86,0.61,1.29h-0.61v-0.645h-0.6c-0.01-.913.55,0.264,0.6-0.647,0.07-1.256-.61-1.29-0.61-1.29,0.21-.431.41-0.861,0.61-1.292-0.41-.215-0.81-0.429-1.21-0.644a15.23,15.23,0,0,1-1.22-5.162l-1.21,0c-0.2-1.506-.41-3.013-0.61-4.518l-2.42,0c-0.17,2.555-2.08,6.7-3.62,7.752v0.646l-1.82,0-0.6,4.52h-0.6a13.948,13.948,0,0,0-.61-5.164l-1.82,0v2.582l-1.81,0c0.03-.912.46,0.253,0.6-0.646,1.14-.557-1.21-0.644-1.21-0.644-0.2-1.076-.41-2.151-0.61-3.227l-1.81,0V910.6a8.46,8.46,0,0,0-3.63.651c-0.68-2.643-.72-0.731-1.82-1.934l0.6-1.292c-1.16-.9-0.86.286-1.81-1.288h0.6v0.645l1.82,0c-0.43-5.015-3.86-7.11-4.86-11.612l-1.81,0c-0.41.646-.81,1.292-1.21,1.938h-0.61V899c-0.6.431-1.21,0.863-1.81,1.294-1.21,1.854-1.17,3.349-3.02,4.523v1.937c0.61-.216,1.21-0.432,1.82-0.648v0.645h-0.61c-1.37,1.8-1.64.379-1.81,3.876l1.21,0v1.291h-0.6v-0.645c-1.56.412-.6,1.356-1.21,1.938-0.6-.214-1.21-0.429-1.82-0.643-0.2-1.075-.4-2.151-0.61-3.227l-1.81,0-0.6,3.874h-0.61c-0.2-1.721-.4-3.442-0.61-5.163l-2.42,0c-0.22,2.5-.93,2.676-1.2,5.166l-1.21,0v1.937c0.4-.216.81-0.432,1.21-0.648v0.646c-0.4.216-.81,0.432-1.21,0.647v0.646h-0.6v-0.646c-0.41-1.5-.82-3.011-1.22-4.517-1.82.2-1.65,0.09-2.42,1.3h-0.6v0.645h0.6v0.646h-0.6v1.937h-0.61l-0.6,1.938a1.057,1.057,0,0,1-.6-0.645h-0.61v-1.936h-1.21c0.13-.9.06,0.06,0.6-0.646-0.12-1.1-1.08-.987-1.21-1.289v-1.291h-1.21v-0.645h0.6c-0.2-.645-0.4-1.291-0.61-1.936l-3.02,0c0.2,0.43.4,0.86,0.61,1.29h-0.61c-0.62.864-1.21,0.632-1.81,1.294l0.6,1.29-1.21,0-0.6,1.292h-0.61c-0.49,1,.76,2.447.61,2.581l-1.21,0c0,0.645,0,1.291.01,1.936,0.8-.216,1.61-0.433,2.42-0.649v0.646h-1.21c-0.58.933-.84,1.758-1.82,0.649v1.936a6.819,6.819,0,0,0,3.03-.65v0.646h-0.61c-1.24,1.45-1.07.985-2.42,0.649,0.01,0.645.01,1.291,0.01,1.936l1.81,0v0.645h-0.6c-0.54,1.178.42,2,.61,2.581a10.293,10.293,0,0,0-3.03,1.3c-0.34-3.116-1.14-1.9-1.82-4.516h0.61c0.34,1.3-.08.559,0.6,1.29V922.3l-1.21,0v-1.936h-1.21q-0.615-3.872-1.22-7.744h-0.61v-0.646l-1.82,0c-0.12,2.547-1.37,2.873-.6,4.52h-1.21c0.21,0.43.41,0.861,0.61,1.29l-2.42,0,0.6-1.292c-0.4-.214-0.8-0.429-1.21-0.644v-3.227c-0.01-.039-0.36.06-0.61-1.29l-1.81,0c-0.05,1.644-.06,2.275-0.61,3.229h-0.6l-0.6,3.228h-0.61c0.21,0.645.41,1.291,0.61,1.936l-1.21,0c0.2,0.43.41,0.86,0.61,1.29h-0.61v-0.646c-0.84-.144.16,0.242-0.6,0.647h-0.61c-0.66,1.334.74,1.866,0.61,2.581a1.16,1.16,0,0,0-.6,1.292h0.6v0.645c-0.6.217-1.21,0.433-1.81,0.649,0.2,0.645.4,1.29,0.61,1.935h-0.61v-0.645c-0.87-1.011-2.01-5.384-1.22-5.808l-2.42,0c0.2,0.43.41,0.86,0.61,1.29h-0.61l-1.2,3.875-1.21,0c-0.63.623,0.6,0.645,0.6,0.645,0.71,1.009-.96.577-1.21,0.647v-3.227l-1.82,0a14.458,14.458,0,0,1-2.41,7.105c-0.4.215-.8,0.431-1.21,0.647-1.17,1.876-1.17,3.369-3.02,4.523,0.49,0.836.96,0.292,1.22,1.29h-0.61c-0.34,1.583-.4.348,0,1.936h-0.6v-0.645c-0.69-.735-0.24,0-0.61-1.291a4.122,4.122,0,0,0-2.42.649v-0.645h-0.61v-1.937a6.462,6.462,0,0,1-1.21-1.289h0.61v0.646c0.52,1.218.6-1.292,0.6-1.292-2.26-1.529-3.05-5.056-3.04-9.033l-3.02,0,0.6-2.583c-0.41-.214-0.81-0.429-1.21-0.644l-1.83-7.1-1.21,0c-0.57,3.09-2.35,4.681-3.01,7.751,0.4-.216.8-0.432,1.21-0.648v0.646a4.3,4.3,0,0,0-2.42,3.231c0.4-.215.81-0.431,1.21-0.647v0.646h-0.61c-0.68.737,0,.258-1.2,0.648v1.936c0.4-.215.8-0.431,1.21-0.647v0.646c-0.61.431-1.21,0.862-1.82,1.293,0.21,0.43.41,0.861,0.61,1.291h-0.6c-0.69.736-.01,0.257-1.21,0.647v1.291h0.6l-0.6,1.938a5.581,5.581,0,0,0,2.42-.65v0.646h-0.6v0.645c-1.09.612-.95,0.9-2.42,1.295-0.21-1.291-.41-2.582-0.61-3.872l-1.82,0q-0.6-3.226-1.22-6.453l-1.21,0a11.316,11.316,0,0,1-1.81,4.521v-0.645h-0.6l0.6-1.292h-0.6v-0.645c0.1-.265,1.03-0.147.6-1.292-0.4-.215-0.81-0.429-1.21-0.644a14.918,14.918,0,0,1-1.22-6.453h-1.21v-1.291l-3.63.651c-0.1,2.918-.92,3.446-1.81,5.167v1.291c-0.4.216-.81,0.432-1.21,0.648,0.24,0.686,1.52.55,1.21,1.289-0.8.647-1.61,1.293-2.42,1.94,0.21,0.645.41,1.291,0.61,1.936l-1.21,0c-0.39-.839-0.78-0.7-1.21-1.29v-0.645h0.6c-0.4-.645-0.81-1.29-1.21-1.935H1341v0.646c0.52,1.219.6-1.292,0.6-1.292-2.01-1.353-2.46-4.192-2.43-7.743l-1.82,0a10.066,10.066,0,0,1-1.2,5.166c-0.4.215-.81,0.431-1.21,0.647,0.2,0.645.41,1.291,0.61,1.936h-0.61v0.645l-1.81,0v2.582h-0.6c0-.861-0.01-1.722-0.01-2.582-0.6.216-1.21,0.432-1.81,0.648-0.2-.86-0.41-1.721-0.61-2.581l1.21,0c-0.61-2.49-1.78-2.026-2.43-4.515l-1.81,0c-0.61-.86-1.21-1.72-1.82-2.58h0.6a10.239,10.239,0,0,0,4.24,1.93c-0.44-1.782-.17-1.443-1.81-1.933-0.62-2.566-2.52-3.145-3.64-5.159h0.6v0.645l3.03,0.641c-0.2-.645-0.4-1.29-0.61-1.935h-0.6V912.1h-0.61l0.6-1.292-1.21,0c0.2-.43.41-0.861,0.61-1.292l-1.21,0-1.83-5.807-1.81,0v1.291c-0.6.216-1.21,0.432-1.81,0.648,0.33,1.8.46,0.064,0,1.936-0.61.217-1.21,0.433-1.82,0.649-0.28,3.2-1.74,3.244-2.41,5.813,0.61-.216,1.21-0.432,1.81-0.648,0.01,0.215.01,0.43,0.01,0.646a5.794,5.794,0,0,0-3.03,3.877l3.03,0v0.645l-1.21,0c-0.81,1.351-2.44,2.831-3.63,1.942-0.33.619-.3,1.946-0.6,2.583-0.4-.214-0.81-0.429-1.21-0.644-0.4-1.075-.81-2.15-1.21-3.225l1.21,0a5.633,5.633,0,0,0-1.22-2.581h-0.6c0-.645,0-1.291-0.01-1.936h-0.6c-0.2-1.721-.41-3.443-0.61-5.164a5.582,5.582,0,0,0-2.42.649v0.646h0.6v0.645h-0.6v1.937c-0.4.216-.8,0.432-1.21,0.647v1.291h-0.6l-0.6,1.938,1.21,0c-0.2.431-.41,0.861-0.61,1.292-0.6.216-1.21,0.432-1.81,0.648v1.291h1.21v0.645h-0.6v0.645h-0.61v-0.645c-1.24-1.133-3.41-6.052-3.64-8.387l-1.82,0c0.17,1.619.74,2.735,0.01,5.164h-0.61c0.01,0.861.01,1.722,0.01,2.582h-0.61v1.291h-0.6v1.291h-0.6c-0.55.895-.42,1.132-0.61,2.583l-1.21,0v-3.228l-1.21,0c-0.4,1.292-.8,2.584-1.21,3.875h-0.6c-0.17-3.533-1.33-3.572-2.43-5.806-0.2-1.076-.41-2.152-0.61-3.227h-0.6c0-.43-0.01-0.861-0.01-1.291h-0.6c-0.2-1.721-.41-3.443-0.61-5.164l-1.82,0v0.646h0.61c0.17,0.455-2.08,5.487-2.42,5.813V916.04l-1.21,0a17.676,17.676,0,0,1-1.8,6.458c-0.41.216-.81,0.432-1.21,0.647-0.5,1.13.79,0.5,1.21,0.644,0.18,0.885-1.87,2.236-2.42,2.586v0.645c0.09,0.114,2.06-.37,1.21.644h-0.6c-0.69.736-.01,0.257-1.21,0.647l-0.6,3.229,1.21,0v0.646h-0.61v0.645c-0.69-.734-0.24,0-0.6-1.29-0.61-.214-1.21-0.429-1.82-0.643l0.6-1.937h-0.6c-0.2-.43-0.41-0.86-0.61-1.29h0.61v0.646c0.52,1.219.6-1.292,0.6-1.292-2.1-1.422-3-4.756-3.04-8.388l-1.81,0c-0.3,3.59-2.27,4.77-3.02,7.751h0.61v-0.645c0.51-1.221.6,1.29,0.6,1.29-1.09.611-.95,0.9-2.42,1.3,0,0.43.01,0.86,0.01,1.291l1.21,0v0.645l-1.82,0c-0.2-.645-0.4-1.291-0.61-1.936h-0.6l0.6-1.937h-0.6c0-.431,0-0.861-0.01-1.291h-0.6c-0.56-.956-0.54-1.586-0.61-3.227h-1.21l-1.83-8.389-1.21,0c-0.57,3.183-2.35,5.3-3.01,8.4h-0.61c-0.2-1.721-.41-3.442-0.61-5.163l-1.81,0,0.6,1.29h-0.6v1.291h-0.61c0,0.645.01,1.291,0.01,1.936H1249l-0.6,1.938-1.82,0q-0.9,2.907-1.81,5.813h-0.6c-0.2-1.506-.41-3.012-0.61-4.518l-1.21,0c-0.4,1.291-.81,2.583-1.21,3.875-0.4.216-.8,0.431-1.21,0.647,0.21,0.645.41,1.291,0.61,1.936h-0.6v0.645h-0.61v-0.645h-0.6v3.227h-0.61v-1.936h-1.21c-0.33-3.01-1.61-3.589-1.82-7.1l-1.21,0c-0.2.861-.4,1.722-0.61,2.583-0.69-.734-0.24,0-0.6-1.29-1.04-.726-0.82-0.407-1.21-1.935h0.6c0.69,0.734,0,.257,1.21.644a5.255,5.255,0,0,0-1.21-2.58h-0.61v-1.291a24.512,24.512,0,0,1-3.04-10.324l-1.81,0c-0.12,4.332-1.88,6.539-3.62,9.043v1.291c-0.4-.215-0.81-0.429-1.21-0.644v1.937c0.81-.217,1.61-0.433,2.42-0.649v0.645l-4.23,3.88c0.2,0.645.4,1.29,0.61,1.936h-0.61a5.442,5.442,0,0,0-1.2,3.23l1.21,0v0.646h-0.61c-0.06.143-.87,2.342-1.21,1.938v-0.646c-0.79-.675-0.9-1.317-1.81-1.933-0.01-1.076-.01-2.152-0.01-3.228-1.29-.433-1.23-0.01-0.61-1.29h-1.21c-0.61-.64.61-0.646,0.61-0.646,0.83-.928-1.08-0.6-1.21-0.644-0.21-1.506-.41-3.012-0.61-4.518l-1.82,0c0.2,0.43.41,0.86,0.61,1.29h-0.61v1.291h-0.6c-1.02,2.471-.2,3.148-3.02,3.878-0.21-1.721-.41-3.443-0.61-5.164l-1.82,0v1.937l-1.21,0c0.21,0.43.41,0.86,0.61,1.29l-1.21,0c0.2,0.43.4,0.86,0.61,1.29-0.41.216-.81,0.431-1.21,0.647v1.937c-0.4.215-.81,0.431-1.21,0.647-0.5,1.223.85,2.178,0.61,2.581h-0.61c-0.69-.734,0-0.257-1.21-0.644v-0.645H1200l0.6-1.292-1.82,0c0,0.645.01,1.291,0.01,1.936h-0.61c0.2,0.43.41,0.86,0.61,1.29h-0.61c-1.04,1.38-1.23.368-1.81,2.585l-2.42,0c0,0.86.61,10.429-1.81,11.293-2.42,3.447-1.41,2.585-3.03,2.587-2.41,3.447-1,2.369-4.23,3.234,0,1.08-.01,2.7-2.88,2.705-5.25,3.256.58,0.411-6,5-11.88,9.919-8,1.514-8,5-0.2,0-5.8,5-6,5-10.95,8.361,1.32.377-10,6-4.63,3.3-.31.673-10,4-6.04,2.924-.01.408-7,3-2.28.612-.27,0.525-10,4-0.8,1.723-20.35,2.6-12.28,2.592,0,0.215-6,.43-6,0.645-0.41.216-.81,0.432-1.21,0.648v1.291c-0.61.431-1.21,0.862-1.82,1.293,0.01,0.431.01,0.861,0.01,1.292l-3.63,3.233c0,1.506-9,.012-8.99,1.516-1.41,1.73-31.67-.23-33.08,1.49-2.02,0-52.98,7-55,7-1.61,1.94-70.389,10.06-72,12-0.4.22,51.4,5.78,51,6,0,0.43,40,5.57,40,6,179.17-4.54,297.16-8.46,322-9-0.18-.36-1.6,4-1,5,0.47-.05-34.8,2.57-35,4-0.4,0-21.6,16-22,16,0,0.22,72,.78,72,1-1.82,0,142.82-5,141-5,88-6.78,95-7.22,95-7,7.96-.01,6.66.63,54,14-1.61.72-100.02,10.39-103,22,83.6,11.52,51.77,8.78,160,11.22,34.55,0.78,43.29,7.94,73,7.78,149.82-.81,409.81-0.06,832.99-1-0.19-148.243-.39-193.018-0.58-341.261q-0.075-61-.16-122.007-0.015-17.106-.04-34.214h-0.61v-1.291c-0.41-.214-0.81-0.429-1.21-0.644l0.6-1.937a2.836,2.836,0,0,1-1.21-1.289l1.21,0V588.71c-0.61-.429-1.21-0.859-1.82-1.288-0.15-.519,1.6-3.459,1.81-3.876-1.97-1.236-2.41-2.186-2.43-4.515,0.44-.706.82,0.239,0.61-0.647h-0.61v-1.291h-0.6q-0.615-2.9-1.22-5.808l-1.21,0-0.6,3.228h-0.61v1.292c-0.4.215-.8,0.431-1.21,0.647-0.47,1.137.78,0.49,1.22,0.644-0.21.645-.41,1.291-0.61,1.937h-0.6v2.582c-0.53,1.624-1.11,3.606-2.41,4.522v0.646h-0.61v-0.646h-0.6c-0.56-1.074.39-2.1,0.6-2.583h-0.61c0.69-.736,0-0.257,1.21-0.647a4.954,4.954,0,0,0-1.21-3.226h-0.61c-0.2-1.721-.41-3.443-0.61-5.164h-0.6C2595.25,573.023,2594.84,571.517,2594.44,570.011Z"/>
</svg>
