<svg xmlns="http://www.w3.org/2000/svg">

  <path id="mountain-2" d="M-171.724,870.018q0.349,2.065.7,4.131l3.585,0.013-0.006,1.376c-1.584,1.168-1.79,1.659-2.167,4.121l0.717,0c1.065-.711,4.486-1.376,5.734.709a6.248,6.248,0,0,0-2.159,2.056c2.107,0.9,2.087.429,1.426,2.07-1.117,1.024-1.32.53-2.16,2.056a7.7,7.7,0,0,0,4.3,1.392c1.055-1.731.905-1.255,3.591-1.364-0.524,2.431-.888,1.7-1.45,4.124,2.324,0.578,1.1-.334,2.145,1.383-1.384,1.14-1.648,1.254-2.164,3.433l2.151,0.008q0,1.032-.008,2.064a25.473,25.473,0,0,0-5.747,2.731c2.494,0.139,3.038.27,4.3,1.392-1.478.837-2.093,1.127-2.879,2.742l3.585,0.013c0.261,1.429.168,1.325,0.709,2.067,2.576,1.771,4.167,1.2,5,4.834-2.4.4-4.7,0.893-5.747,2.732l1.434,0c0.768,0.52.677,0.416,2.149,0.7,0.261,1.429.168,1.325,0.709,2.066,1.208-.92,2.258-1.118,4.307-1.36,1.438,1.577,3.207,1.424,4.289,3.455l-0.717,0c-3.574,3.19-4.595,5.329-10.06,5.468l0-.688-0.717,0q0,1.032-.008,2.064l-5.734-.709c0,0.23,0,.459,0,0.688l1.434,0c1.521,1.443,2.776,1.878,5.728,2.085,1.015-2.2,1.9-2.531,5.03-2.734,0.261,1.429.168,1.325,0.709,2.067,1.2-1.329,1.036-1.144,3.59-1.363,0.193,1.781-.339,1.219,2.863,1.386q0,1.032-.008,2.064l-2.871.678q0,1.032-.008,2.064a10.663,10.663,0,0,0-3.588.675l0.709,2.067c-4.089.569-2.868,2.189-7.181,2.726-1.467-.908-6.086-1.084-7.882-1.4,0,0.229,0,.459,0,0.688l1.434,0c3.219,3.856,7.373,2.027,12.184,1.42q-0.006,1.377-.011,2.752l1.434,0.006c1.288-1.131,1.806-1.2,4.307-1.361,1.2,2.238,3.095,1.9,4.286,4.144-3.833,1.78-3.288,3.143-5.046,6.862-5.723.025-7.322,1.209-12.908,0.642l0,0.688,0.717,0,0,0.688a7.855,7.855,0,0,1,2.146,1.384c6.055-.325,9.824-3.575,12.189.043a2.5,2.5,0,0,0-1.437.683l1.434,0c0.848-.549,1.208-0.527,2.871-0.677,0.65,2.714,2.559.334,2.849,4.826-2.457.956-2.6,3.042-4.318,4.113-1.141.712-3.442,0.1-4.3,0.673,1.82,1.008.81-.147,1.427,2.069-2.6.459-5.845,1.034-6.462,2.041l5.019,0.018c1.164,0.687,5.913-.45,8.607-0.657q0,0.688,0,1.376c-2.261,1.241-2.2,3.963-2.887,4.806-1.295.79-2.168,0.227-2.871,0.678l0.717,0c1.014,0.664,2.345.68,4.3,0.7,3.354-2.439,9.061-.135,11.477-1.335l0.717,0a2.618,2.618,0,0,0-1.431-.693c-1.967-1.5-3.146-.15-5.011-2.083a2.491,2.491,0,0,0,1.437-.683c-2.976.032-4.294-.117-5.731-1.4,2.008-.23,3.078-1.064,4.307-1.361,5.6-1.351,10.46,3.2,15.055.742-2.772-.116-7.381-0.779-9.313-2.1l0.717,0c1.116-1.025,1.32-.53,2.159-2.056-2.566-.3-1.806.318-2.863-1.387,1.019-.882-0.065-0.806-0.709-2.066l4.3,0.015a8.606,8.606,0,0,0,3.58,1.389l0-.688c-1.539-1.431-1.8-2.558.016-4.128-1.607-1.064-1.631-.584-2.141-2.76a23.751,23.751,0,0,0,5.019.018l0-.689c-0.536-.74-0.428-0.652-0.709-2.066,2.285,0.356,2.091.607,3.58,1.389q0.008-2.064.016-4.129c2.241,0.359,6.187,2.538,7.154,4.155-1.715.573-1.181,0.272-2.156,1.368,2.276,0.079,4.6-.449,6.45.711-1.747,1.909-.691.145-0.011,2.752-1.489.251-1.38,0.162-2.153,0.681l1.434,0c2.038,1,4.08-1.007,5.73,1.4a2.488,2.488,0,0,0-1.437.683c2.325,0.578,1.1-.334,2.146,1.383a7.9,7.9,0,0,0-2.156,1.369c2.325,0.578,1.1-.333,2.146,1.384-2.329.561-1.094-.342-2.156,1.368,0,0,2.8.144,1.431,0.693l-1.434,0a2.619,2.619,0,0,1-1.436.683l0,0.688c3.593,0.378,6.038,1.928,9.31,2.786q0,0.344,0,.688l-0.717,0c-1.653,1.195-5,.912-5.741,1.356l0.717,0c3.619,2.515,13.677,2.821,20.783,2.827q0-.687.005-1.376c-3.657-1.41-11.178-4.036-13.6-6.929,4.408-.19,4.43-1.146,7.89-0.66,0.052-2.072.362-1.044,1.447-3.435l-1.434,0c-0.767-.52-0.676-0.417-2.148-0.7q0.006-1.375.011-2.752c3.552-.13,5.374-0.73,7.887.028q0-.689.005-1.376c-1.609-.8-1.062-1-2.143-2.072-0.848.549-1.208,0.527-2.871,0.678q0-1.032.008-2.065l-4.3-.7q0-.689.005-1.376c4.043-.241,3.639-1.418,7.178-2.039,2.174,2.032,7.281,2.309,11.462,2.794q0-.689.005-1.376l-2.868-.011c-1.391-1-4.24-1.1-5.728-2.084l-0.717,0c0-.229,0-0.459,0-0.688a4.97,4.97,0,0,0,2.873-1.366c-1.627-.694-1.987-0.52-2.86-2.074,0.674-1.308.275-.8,0.011-2.753l3.585,0.013c1.161,1.033,1.447,1.073,3.58,1.389l0-.688c-1.558-1.355-.7-1.859-1.423-2.757,0.533-.6.906-0.773,1.439-1.371a11.193,11.193,0,0,1-2.855-3.451c2.31,0.07,4.536.3,5.019,0.018,0.642-1.234.22-1.244,0.013-3.44l3.582,0.7c0-.229,0-0.459,0-0.688-0.626-.893-0.635-1.7-0.7-3.443l2.868,0.01a21.146,21.146,0,0,0,2.138,3.448,2.976,2.976,0,0,1,3.585.013c-1.442.956-1.485,0.921-2.162,2.745l1.434,0c1.112,0.576,2.92-.688,4.3,1.391-2.281.852-.444,0.492-0.011,2.753-1.669.128-2.027,0.125-2.871,0.677a7.771,7.771,0,0,0,3.58,1.389c1.169-1.024,1.455-1.062,3.59-1.363a8.437,8.437,0,0,1-.728,2.75c2.325,0.578,1.1-.333,2.146,1.384-1.2,1.023-.731.5-0.722,1.373l0,0.688c0.456,0.706,1.555.146,0.714,0.691a13.659,13.659,0,0,1-2.876,2.054c0,0.229,0,.459,0,0.688,0.456,0.706,1.555.146,0.715,0.691-0.533.6-.906,0.773-1.439,1.37,4.33,0.292,5.693,2.347,9.308,3.474l0,0.688-0.717,0c-1.4.992-4.249,1.065-5.744,2.043l1.434,0c2.65,1.9,9.341.189,11.459,3.482l-0.717,0c-1.906,1.605-4.481,1.817-5.752,4.108,2.1-.262.9-1.122,2.148,0.7l-0.717,0c-0.713.693,0.7,0.683,0.714,0.691,2.464-2.023,2.7-.667,5.736.021q0-1.032.008-2.064c3.688,0.048,9.1.788,13.626-.64a2.62,2.62,0,0,0-1.431-.693c-2.829-3.827-10.064-4.4-13.594-7.617l5.019,0.018c0.207-1.78-.33-1.223,2.873-1.366a4.289,4.289,0,0,0,1.429,1.381q0-.689.005-1.376c-1.766-.9-0.489.293-1.429-1.381,2.082,0.048,3.921.047,5.022-.67l-6.448-1.4c-0.025-1.86.123-.454-0.706-2.755l0.717,0,0-.688c3.4,0.013,7.379-.514,9.329-2.031-4.3-.431-7.416-2.6-10.739-4.167q0-.687.005-1.376l4.3,0.016q0-.688.005-1.377c3.551-1.355,10.378,2.958,13.618,1.426-2.025-.333-6.91-1.907-7.874-3.469a7.879,7.879,0,0,0,2.156-1.368,22.5,22.5,0,0,1-3.577-2.077c1.6-1.88.765-.669,0.014-3.441l3.585,0.013a8.693,8.693,0,0,0,4.294,2.08q0-.689.005-1.376c-2.42-2.4.7-1.865,0.016-4.129-0.468-1.542-1.741-1.7-2.135-4.136a23.618,23.618,0,0,0,5.019.018q0-.688.005-1.376c-1.161-.933-0.8-0.443-1.426-2.069l2.151,0.007A2.627,2.627,0,0,0-7,920.151q0.008-2.064.016-4.129l2.868,0.011c2.509,4.616,3,1.142,5,4.146A18.308,18.308,0,0,0-2,923.609l0.717,0c1.667-1.115,4.444-1.3,7.175-1.351q0,0.345,0,.688c-1.618,1.092-1.508,1.122-1.442,2.059q0,0.345,0,.688C4.9,926.4,6,925.842,5.16,926.387c-0.619.444-2.258,0.912-2.873,1.366l1.434,0c1.044,1.741.311,1.064,2.863,1.386,1.055-1.73.9-1.254,3.59-1.363-0.279,2.652-1.358,2.266,1.421,3.446-1.127,1.233-1.413.876-2.162,2.744,0.821,0.3,3.366.806,1.429,1.381-1.247,1.182-2,1.025-2.879,2.742,1.766,0.9.489-.293,1.429,1.382-1.489.25-1.38,0.161-2.154,0.68l2.868,0.01q0,1.032-.008,2.064c3.32,0.033,4.315.346,5.728,2.085l0.717,0c0.707,0.7-.709.677-0.72,0.685-1.4.993-4.249,1.066-5.744,2.044l1.434,0c2.927,2.4,7.2,1.309,11.462,2.793q0,0.688-.005,1.377c-2.471.362-2.238,0.762-4.308,1.36q0,0.345,0,.688c3.754,0.286,2.343,1.411,4.291,2.768,0.944,0.658,1.72-2.318,3.582.7a6.255,6.255,0,0,0-2.159,2.056l0.717,0a20.141,20.141,0,0,1,5.739-.668l0,0.688c-1.261.951-2.024,0.475-.722,1.374l0.712,1.379c-1.816.044-2.665,0.073-3.588,0.675l1.434,0c0.529,0.6.9,0.78,1.429,1.381,2.208-.607,2.125-1.082,5.024-1.358q0,0.345,0,.688l0.717,0,0,0.688c-0.461.7-1.556,0.135-.72,0.686q0,0.343,0,.688c0.456,0.7,1.555.146,0.714,0.69-0.533.6-.906,0.773-1.44,1.371,2.325,0.578,1.1-.333,2.146,1.384-2.9.988-1.866,1.79-2.879,2.742,3.232,2.851,7.861,2.9,12.893,3.487q0-.689.005-1.377c-0.331-.874-0.055-1.258.728-2.749-0.814-1.251-1.587-.77-2.14-2.76,3.432,0.2,3.623,1.172,5.024-1.358-1.766-.9-0.489.293-1.429-1.382,3.814,0.1,3.384,1.363,3.6-2.739,4.018,0.267,2.2,1.534,4.291,2.768,1.067,0.628,2.229-2.684,4.3.7-1.927.607-1.859,0.7-2.876,2.054,3.287-.257,5.029-1.4,6.45.711-0.934.379-.532,0.019-0.72,0.686,0.529,0.6.9,0.779,1.428,1.381-1.816.044-2.665,0.073-3.588,0.675a7.771,7.771,0,0,0,3.58,1.389c1.169-1.024,1.455-1.062,3.59-1.363,0,0.229,0,.459,0,0.688l0.717,0-1.442,2.059c2.325,0.578,1.1-.334,2.145,1.384a2.488,2.488,0,0,0-1.437.683l2.868,0.01c1.135-2.372,8.845-3.5,11.488-4.087q0-1.032.008-2.064c-4.737,1.629-10.822-2.543-12.165-6.237l3.585,0.013c2.015-1.092,4.207.759,5.019,0.018l0.717,0a2.626,2.626,0,0,0-1.431-.694c-0.767-.52-0.676-0.416-2.148-0.7q0-1.032.008-2.065l-2.151-.007c-0.572-2.42-1-1.864-2.138-3.448l0.717,0q0-.343,0-0.688c3.852-.251,2.638-0.987,3.59-1.363,0.708-.28,7.047.743,9.318,0.721l0.722-1.373c-3.512-2.241-6.456-5.344-11.448-6.234q0-1.032.008-2.064L73.2,945.9l-1.426-2.069c3.856,0.14,7.758-.878,8.612-2.033-0.931-.385-0.531-0.022-0.714-0.691,1.009-.605,4.024-0.732,5.024-1.358-2.848-.236-5.393-1.526-6.44-3.463,0.984-.7-0.2-0.442-0.709-2.067l0.717,0q0-.343,0-0.688c3.551-.129,5.374-0.729,7.887.029,0.492-2.168.483-1.442,1.445-2.747a25.808,25.808,0,0,1-7.162-2.09l0.725-2.062c-3.273-.141-3.613-0.025-4.291-2.768l3.585,0.013q0-1.032.008-2.064c4.469,0.254,13.587,3.777,15.764,2.809-2.1-.722-9.093-3.5-10.017-5.541a12.912,12.912,0,0,0,2.873-1.365c-2.67-2.164-2.658-3.557-3.558-6.894a10.52,10.52,0,0,1,2.871-.678c1.248,1.565,2.692,2.2,5.008,2.771l0-.689c-2.681-3.061.334-4.012-.688-7.571-0.329-1.145-1.645-1.83-2.138-3.448,2.776,0.079,3.606.3,5.019,0.018l0.725-2.061c-1.307-1.084-1-.611-1.423-2.758,2.66,0.282,2.116.405,3.58,1.389q0.012-3.1.024-6.192l2.868,0.01c0.247,1.408.665,3.813,1.415,4.822,0.848-.55,1.208-0.528,2.871-0.678-0.376,2.65-1.1,3.081-2.17,4.809,3.482,0.111,3.178-.326,7.173-0.663q0,0.688-.005,1.376c-1.618,1.092-1.509,1.122-1.442,2.059,0.808,1.067.775,0.583,1.426,2.07-1.816.044-2.665,0.073-3.588,0.675,4.826,3.051,1.458,1.893,7.882,1.4-0.372,2.193-.633,2.007-1.448,3.436,2.566,0.295,1.806-.319,2.863,1.386-1.442.956-1.485,0.921-2.162,2.744l2.151,0.008q0,1.032-.008,2.064a14.459,14.459,0,0,0-5.03,2.735c2.7,0.107,2.522-.316,3.58,1.389-1.485.808-1.351,0.465-2.159,2.056,2.7,0.108,2.522-.315,3.58,1.389l-0.717,0,0,0.689c2.84,0.313,4.381,1.079,5.725,2.772l0.717,0c0.708,0.7-.709.678-0.719,0.685-1.7,1.476-4.476,1.43-6.464,2.729l4.3,0.7c0.585,2.235-.355,1.05,1.426,2.069,2.549-1.758,6.844.114,7.879,2.093l-0.717,0c-1.891,1.57-2.871,1.171-3.6,4.116-2.329.561-1.094-.341-2.156,1.368,2.955,0.693.488,0.3,2.143,2.072,1.736-1.875,5.048-.938,7.167.714l-0.717,0,0,0.688c-2.97,1.491-5.061,3.941-8.623,4.786q0,1.032-.008,2.064l-1.434,0c-2.674,1.447-5.294-.475-7.892,1.348l0.717,0c3.279,2.56,6.735.5,10.755,0.039q-0.006,1.375-.011,2.752l0.717,0c1.363-1.042,2.579-1.222,5.025-1.358,1.054,2.039,2.729,2.03,4.289,3.455l-0.717,0c-2.2,2.695-3.777,2.639-3.61,6.179-3.307.228-11.161,0.44-13.631,2.016l0.717,0c3.568,3.2,7.784.046,11.475-.647,1.7,3.182,4.361,2.455,8.585,4.848q0,0.687,0,1.376a84.355,84.355,0,0,0-8.623,4.785l1.434,0.006q0,0.687,0,1.376l-0.717,0c-1.513,1.222-4.691.956-6.462,2.041a128.208,128.208,0,0,0,13.624.049l0,0.688c-1.717,1.216-.379,1.292-1.442,2.059l0,0.688c-1.4.282-.512-1.059-1.434,0l0.717,0c1.94,1.206,10.3.925,12.906,0.046a2.614,2.614,0,0,0-1.431-.693c-3.369-2.78-9.458-2.844-12.885-5.551l0.717,0c1.413-.92,6.385-1.261,7.89-0.659l0-.688c0.145-.524.888-0.833,2.159-2.057-2.957-.259-4.065-0.478-5.008-2.77l1.434,0c1.848-1.123,4.546-1.109,7.172-.662-2.358-2.361-7.58-2.653-9.3-5.538,6.907-.374,9.153-1.217,15.774.056q0-.687,0-1.376l-5.736-.02c0.492-2.167.484-1.442,1.445-2.747-2.072-1.16-2-1-2.135-4.136,3.308,0.105,4,.762,6.448,1.4q0-.689,0-1.376c-0.3-.705-0.911-3.792-1.413-5.51,2.887,0.1,3.92.388,5.025-1.358-1.766-.9-0.489.294-1.429-1.381l3.585,0.013q0.006-1.377.011-2.753c2.945,0.086,7.458,1.6,8.591,3.472-1.715.573-1.181,0.272-2.157,1.368l1.434,0c1.113,0.549,3.33-.3,5.017.706a7.913,7.913,0,0,0-2.157,1.369c2.844,0.006,8.388,1.984,9.308,3.473-0.823.3-3.372,0.782-1.439,1.371,1.6,0.8,3.8-.414,5.733.709-1.26.951-2.024,0.475-.722,1.374l0.711,1.378c-1.816.045-2.665,0.074-3.587,0.675l1.434,0.006c1.442,0.73,4.334.068,6.45,0.711l-0.709-2.067c2.329-.561,1.094.341,2.157-1.368-2.782-.391-2.7-0.869-4.294-2.08q0-.688,0-1.376l0.717,0,0-.688c3.531,0.112,6.639.611,9.326-1.342-3.439-.324-3.449-1.143-7.165-1.4l0.006-1.376a2.491,2.491,0,0,0,1.436-.683c-2.082.034-3.921,0.019-5.016-.706a2.453,2.453,0,0,1-.712-1.379l4.3,0.016L187.92,947c3.769-1.46,10.987,3.012,14.335,1.428-2.305-.281-7.548-1.778-8.591-3.471,1.715-.573,1.18-0.272,2.156-1.368-1.627-.694-1.987-0.52-2.86-2.075a2.488,2.488,0,0,0,1.437-.683c-1.161-.933-0.8-0.443-1.426-2.069l3.585,0.013c1.375,1.09,2.829,1.534,4.3.7-2.582-1.425-1.137-2.6.017-4.128-1.656-1.117-1.683-1.011-2.138-3.448,2.215,0.073,4.538.113,5.739-.668-1.709-.745-1.957-1.357-2.858-2.762a12.648,12.648,0,0,1,4.3.7q0.007-2.064.016-4.128c4.231,0.381,2.138,1.7,4.289,3.456,0.737,0.6,1.766-2.344,3.582.7a6.257,6.257,0,0,0-2.159,2.056c2.276,0.079,4.6-.449,6.45.711-1.8,2.023-.905.9-0.013,3.441-1.816.044-2.665,0.073-3.588,0.675l1.434,0.005c1.12,1.262.629,0.962,2.863,1.386,1.2-1.328,1.036-1.144,3.59-1.363,0,0.229,0,.459,0,0.688l0.717,0-1.443,2.059,2.149,0.7c-0.926,1.258-1.416,1.172-2.162,2.744,2.325,0.578,1.1-.333,2.146,1.384l-1.434,0c-1.013,1.1-2.379,1.171-3.593,2.051,1.815,0.057,2.664.093,3.582,0.7a7.887,7.887,0,0,0-2.157,1.368l2.869,0.011q0,1.032-.008,2.064c2.949,0.2,3.41.8,5.73,1.4q0,0.687,0,1.376l-1.434,0c-0.859.531-3.456,0.811-4.308,1.36l0.717,0c3.527,2.863,4.1.676,7.874,3.484l-0.717,0c-2.6,2.156.527,2.427-1.45,4.108l1.434,0a2.331,2.331,0,0,0,.712,1.379c4.239-4.75,11.5,15.951,18.655,13.826a32.563,32.563,0,0,0-11.44-8.308l0.006-1.376a12.8,12.8,0,0,0,5.024-1.348,4.289,4.289,0,0,1-1.428-1.381c2.568-.277,1.8.331,2.873-1.366A38.043,38.043,0,0,1,241,960.259q0-.687,0-1.376l0.717,0,0-.688a29.811,29.811,0,0,0,9.326-1.343l0-.688a25.736,25.736,0,0,1-7.162-2.09l0.725-2.061c-1.5.237-1.647,0.1-4.3-.016q0-1.032.008-2.064c4.156-.431,1.916-1.224,3.593-2.051,3.369-1.663,4.89,2.311,7.162,2.09q0-.689,0-1.377c3.99-.936,7,4.03,11.467,1.418-4.281-.062-9.388-1.518-12.176-3.484l-0.717,0,0-.688a12.89,12.89,0,0,0,2.874-1.366c-1.361-.927-0.624-0.885-2.863-1.386,0.086-3.255.1-1.962-.7-4.819a10.481,10.481,0,0,1,2.87-.678,10.054,10.054,0,0,0,5.009,2.77q0-.687,0-1.376c-1.546-1.436-1.643-.741.008-2.064l0-.688c-0.849-1.056-.869.489-1.429-1.381,1.773-.885.487,0.3,1.439-1.371a7.16,7.16,0,0,1-2.854-3.451,17.657,17.657,0,0,0,5.739-.667c-0.623-1.552-1.269-1.78-.707-2.755,0.772-.515.68-0.411,2.154-0.68a4.291,4.291,0,0,0,1.429,1.381c-0.109-2.46-.59-3.762.018-4.817,0.772-.514.68-0.411,2.154-0.68a15.768,15.768,0,0,0,2.135,4.136c1.733-.932,1.783-0.967,2.865.7a15.2,15.2,0,0,0-2.878,2.741c2.217,0.063,5.2-.529,7.167.714-2.075,2.077.044,1.507-.73,3.438-0.555.467-1.6,0.9-2.157,1.368l0.717,0c0,0.229,0,.459,0,0.688a7.888,7.888,0,0,1,2.145,1.384c1.62-1.211,1.531-1.629,4.31-2.049a9.519,9.519,0,0,1-.73,3.438c2.325,0.578,1.1-.333,2.146,1.384a6.248,6.248,0,0,0-2.159,2.056c2.056,0.778,1.32.125,2.143,2.072-2.149.809-2.728,3.256-3.607,5.492,1.813-.051,8.246,2.993,8.585,4.847-1.789,1.2-5.224.874-6.463,2.729l1.434,0c2.766,2.141,7.889,1.875,12.178,2.8q0,0.688,0,1.376l-0.717,0c-1.972,1.475-2.784.512-3.6,3.427-1.489.251-1.38,0.162-2.154,0.681,2.956,0.693.489,0.3,2.144,2.071,1.661-1.092,5.62-.428,7.167.714a1.992,1.992,0,0,0-.72.686,10.485,10.485,0,0,1-2.87.677l-0.009,2.065-3.585-.013q0,1.032-.008,2.064l-1.434,0c-1.269.276-.723,1.444-2.159,2.056-3.86,1.647-5.779-2.4-9.321-.033l1.434,0c2.888,2.24,7.32,1,11.47.729-0.015,2.176-1.219.921,0.709,2.067,2.3-2.031,6.9-.473,9.315,1.41a12.137,12.137,0,0,0-5.76,6.171l-12.192.645q0,0.687,0,1.376c5.937,0.722,7.61-.931,12.912-1.33,0.02,1.3-.22,2,0.706,2.755,2.583-1.667,6.162.793,7.159,2.778l-0.717,0c-2.219,1.99-5.337,2.351-7.9,4.1a4.3,4.3,0,0,1,1.429,1.382l-6.462,2.041c9.467,0.015,12.515,9.016,18.431,9.836,0.037-1.88.051-.82,1.434-2.76-2.9-.32-3.4-0.48-4.3-2.75a11.863,11.863,0,0,1,3.586-.69c1.19,0.57,1.853.17,4.3,0v-0.68a2.477,2.477,0,0,1-.717-1.38c-3.385-.06-6.734-1.18-7.888-3.44h4.3V996.4c1.51-.618,9.109,1.109,11.472,1.376V996.4h-5.736v-1.376a4.3,4.3,0,0,0,1.434-1.376h-0.717c-0.553-.47-1.6-0.9-2.151-1.377a2.492,2.492,0,0,0,1.434-.688c-1.165-.929-0.8-0.44-1.434-2.064h2.868a12.687,12.687,0,0,0,4.3,1.376v-1.376a2.491,2.491,0,0,1-1.434-.688c2.574-1.569.672-2.3,0-4.816a23.712,23.712,0,0,0,5.019,0v-1.376c-1.77-.891-0.489.295-1.434-1.377,3.814,0.089,3.389,1.351,3.585-2.752h2.868c0.717,1.564.534,1.909,2.151,2.752,1.729-.938,1.779-0.973,2.868.688a6.258,6.258,0,0,0-2.151,2.065h0.717c1.167-.609,3.023-0.6,5.736-0.688v0.688c-0.069.059-2.069,0.9-1.434,1.376h0.717c0.531,0.6.9,0.776,1.434,1.376-1.816.051-2.665,0.083-3.585,0.688a7.772,7.772,0,0,0,3.585,1.376c1.195-1.333,1.032-1.148,3.585-1.376,0.211,2.576.785,3.61,1.434,4.128,1.853-1.878,5.576-.774,9.321-0.688v-1.376h-0.717c-3-3.075-9.482-5.1-13.623-6.88v-1.377c4.1-.1,5.474-0.958,8.6,0v-0.688c-0.227-1.62.55-1.128,1.434-3.44-2.783-.38-2.7-0.859-4.3-2.064V973.7a2.005,2.005,0,0,0,.717-0.688c3.086,0.087,6.231.253,7.17-1.376a47.711,47.711,0,0,0-9.321-4.817v-1.376c4.419-.145,3.776-1.325,7.17-2.064,2.18,1.909,7.5,2.262,11.473,2.752v-1.376c-2.722-.079-7.487-0.967-8.605-2.752a12.939,12.939,0,0,0,2.869-1.377c-1.471-.755-2.755-1.253-3.586-2.752a2.485,2.485,0,0,0,1.434-.688c-1.311-1.079-1-.607-1.434-2.752,3.831,0.278,4.4,1.492,7.888,2.064v-0.688c-1.45-1.195-1.34-1.476-1.434-4.128a2.5,2.5,0,0,0,1.434-.688c-1.811-1.206-1.892-1.265-2.151-4.129,2.291,0.177,2.288.684,3.585,0a2.492,2.492,0,0,0,1.434-.688,4.845,4.845,0,0,1-1.434-2.752c3.814,0.088,3.389,1.351,3.585-2.752,0.472-.991.183-0.629,3.585-0.688,0.266,1.428.173,1.324,0.717,2.064,1.494,0.984,2.555.431,3.585,2.064-1.438.961-1.481,0.926-2.151,2.752,3.015-.336,4.99-1.575,6.453.688-1.257.955-2.022,0.483-.717,1.376l0.717,1.376h-0.717c-0.553.47-1.6,0.9-2.151,1.377a1.988,1.988,0,0,1,.717.688,11.711,11.711,0,0,0,3.585.688c0.928-.6,1.769-0.616,3.585-0.688v0.688a6.255,6.255,0,0,0-2.151,2.064c1.669,0.134,2.026.132,2.868,0.688-0.9.8-2.351,1.47-1.434,2.064,0.812,1.064.778,0.58,1.434,2.064-1.887.523-1.71,0.825-3.585,1.377,0.961,1.308.92,0.6,1.434,2.752-1.488.256-1.38,0.166-2.151,0.688h3.585v2.064c3.4-.779,3.571-1.839,6.453,0l-0.717-3.44c2.082,0.041,3.921.033,5.019-.688-3.854-.491-3.1-1.913-6.453-2.753-0.337-2.091-1.423-2.16-.717-2.752,3.882-4.216,7.6-.531,10.038-4.816-2.816.415-2.927-1.073-7.17-1.376a8.455,8.455,0,0,1,.717-2.753c-3.3-.127-4.061-0.342-5.019-2.752a13.622,13.622,0,0,1,4.3-.688v-2.064c4.423,0.126,4.072,1.567,6.453,2.752,0,0,2.346-2.06,4.3-1.376,2.742,0.957,2.607,1.992,7.888,2.064V944.8h-1.434c-1.23.667-8.976-2.169-10.756-3.44a2.46,2.46,0,0,1-.717-1.376c1.96-1.091,1.8-.619,2.151-3.441-2.124-.57-1.959-0.305-2.868-2.064,1.607-1.8.713-1.284,0-4.128h3.585c0.868,1.13,2.823,2.942,3.585,2.064a2.454,2.454,0,0,0,.718-1.376c-3.729-2.349.773-4.215,0-6.881-0.338-1.164-2.022-2-2.152-4.816a39.582,39.582,0,0,0,5.737,0v-0.688a7.173,7.173,0,0,1-2.868-4.129h3.585c0.928,1.7-.308.469,1.434,1.376v-0.688c-0.519-1-.114-2.948,0-5.5h2.151c0.6,2,1,1.771,1.434,4.128H412c-0.6,2.88-2.2,4.135-3.585,6.193h0.717c1.662-1.121,4.439-1.321,7.17-1.376v1.376c-1.614,1.1-1.5,1.127-1.434,2.064,0.961,1.309.92,0.6,1.434,2.752h-3.585v0.688a2,2,0,0,1,.717.688l3.585,2.064c0.913-2.228.63-1.811,3.585-2.064v0.688h0.717c-0.544,1.811-.859,1.642-1.434,3.441h2.151c-0.507,2.758-1.317,2.508-2.151,4.816h2.151c-0.267,1.428-.174,1.324-0.717,2.064-1.445,1.511-3.218,1.529-5.019,2.753,2.034,0.2,3.129.458,4.3,1.376a2.441,2.441,0,0,0-.717,1.376c-1.488.256-1.38,0.166-2.151,0.688h0.717c0.846,0.552,1.2.532,2.868,0.688,0.267,1.428.173,1.324,0.717,2.064a38.225,38.225,0,0,0,5.736,3.44V950.3h-0.717c-1.636,1.387-4.562,1.567-5.736,3.441h0.717c3.653,2.962,10.107,1.368,12.189,4.816-3.945,1.767-3.718,4.175-6.453,4.817v-0.688h-0.717v0.688c1.2,1.018,1.793,2.312,2.868,3.44,1.165-1.028,1.451-1.068,3.585-1.376l-0.717,2.064c1.95,0,3.3.027,4.3,0.688h-1.434c-1.151,1.581-1.535,1.039-2.151,3.441h-3.585v2.752H427.77c-0.813,2.847-1.256,2.794-5.019,2.752-2.162-1.465-4.235-.481-7.17-1.376v0.688H416.3c4.669,4.443,7.576,1.9,13.623,1.376-0.178,2.013-1.695,2.108,1.434,2.752,1.195-1.333,1.032-1.147,3.585-1.376v2.064c1.911-.246,3.2-0.243,4.3,2.065-2.728,1.564-4.058,2.782-4.3,6.88H429.2c-0.324,1.936-3.046,1.526-7.17,1.376V990.9h-0.717v0.688a2.46,2.46,0,0,1,.717,1.377c2.808,0.166,3.95,1.545,5.736,1.376,2.386-.226,3.032-2.349,6.453-2.753a5.906,5.906,0,0,0,1.434,3.441c3.023-1.874,5.1.893,7.17,2.064v0.688H442.11a9.878,9.878,0,0,1-7.17,4.82c0.239,1.14.478,2.29,0.717,3.44a9.579,9.579,0,0,0-2.868.68v0.69h0.717c2.872,1.53,6-1.26,7.887,1.38-0.539.74-.431,0.65-0.717,2.06-1.488.26-1.38,0.17-2.151,0.69,1.653,0.93,1.307.84,1.434,1.38-0.617.44-2.254,0.92-2.868,1.37h0.717c0.77,0.52.678,0.42,2.151,0.69,1.359-1.04,2.574-1.23,5.019-1.37,0.456-2.58,1.054-2.45,2.152-4.13-2.559-.41-2.415-0.51-3.586-2.07,3.732-.15,18.332-1.14,20.794-2.75-1.669-.13-2.026-0.13-2.868-0.69a2.441,2.441,0,0,1-.717-1.37l5.736-1.38v-0.69c-5.407.63-8.488-.42-13.623-0.686-1.272-3.386-2.133-2.582-4.3-5.5a13.588,13.588,0,0,1,4.3-.688v-2.065c4.649-.007,7.312-1.172,10.755-2.064a9.414,9.414,0,0,0,.717-2.752,18.719,18.719,0,0,1-5.736.688c-1.309-2.929-6.043-5.159-6.453-6.881,2.157-1.487,5.469-1.432,8.6,0v-2.064h-2.868c-1.378-2.439-2.961-3.58-3.585-6.88,3.857-.166,2.75-1.052,3.585-1.377,4.263-1.659,5.8,3.042,10.755-.688-4.838-2.528-5.662-5.848-12.189-6.88v-2.065a7.59,7.59,0,0,1-3.585-2.752c4.921-.33,5.637-1.8,9.321,0V956.5c-1.823-1-.809.149-1.434-2.064a4.973,4.973,0,0,0,2.868-1.376,9.065,9.065,0,0,1-5.019-5.5c4.144-1.942,8.354-.566,10.038-4.128h-2.868c-0.594-2.233.351-1.051-1.434-2.064-0.769.517-.678,0.413-2.151,0.688v-2.753l-3.585-.688-1.434-2.064a2,2,0,0,0,.717-0.688h4.3V933.79c4.768,0.273,14.114,4.051,16.491,2.752-5-.642-4.764-3.182-10.755-3.44,0.349-2.858,1.424-3.17,1.434-4.128-0.93-2.188-1.8-1.546-2.868-3.441,1.713-.579,1.179-0.276,2.151-1.376-1.66-1.111-1.687-1-2.151-3.44,4.165,0.38,4.634,2.089,8.6,2.752v-0.688c-3.392-2.783.041-3.608-.717-7.569-0.3-1.59-1.9-1.951-2.151-4.816,3.132,0.158,3.735.872,5.736-.688a7.307,7.307,0,0,1-2.151-4.129,10.664,10.664,0,0,1,3.585.688v-5.5h3.585l0.717,4.128h3.585c-0.434,3.074-1.658,3.959-2.868,6.193h0.717c1.742-1.426,3.4-1.326,7.17-1.376V910.4c-1.438.961-1.481,0.926-2.151,2.752,1.892,1.114,1.749.517,1.434,2.064-1.326.994-1.924,0.492-2.868,2.064,2.008,0.709,1.5,1.045,4.3,1.377,1.049-1.735.9-1.258,3.586-1.377a10.146,10.146,0,0,1-1.434,4.129c2.567,0.286,1.8-.325,2.868,1.376-2,.924-1.764.961-2.151,3.44,2.326,0.57,1.1-.337,2.151,1.376-1.68,1-4.038,2.179-5.737,3.441,2.6,0.328,2.612.18,3.586,2.064H495.17c-0.553.469-1.6,0.9-2.152,1.376h0.718c0.845,0.552,1.2.532,2.868,0.688v2.064c3.289,0.7,4.2,2,6.453,3.441v0.688H502.34c-1.636,1.386-4.562,1.566-5.736,3.44h1.434c1.257,1.127,1.908,1.205,2.868,2.752a18.441,18.441,0,0,1,5.019-1.376c1.374,2.268,2.695,1.1,3.585,4.128h-2.868c0.044,1.76.521,1.323-2.151,2.065,0.531,0.6.9,0.776,1.434,1.376-4.725.369-2.823,1.517-7.887,0.688V956.5l-5.737-.688V956.5h1.435c1.526,1.438,2.783,1.867,5.736,2.064,1.3-1.85,2.093-2.358,5.019-2.752,0.266,1.428.173,1.324,0.717,2.064,1.195-1.333,1.031-1.148,3.585-1.376,0.681,3.35,1.633-.58,3.585,2.752-4.193,1.979-2.089,2.011-7.17,4.129l0.717,2.064c-3.556.852-2.725,2.379-7.17,2.752-1.472-.9-6.091-1.063-7.888-1.376v0.688H492.3c3.588,3.478,7.212,2.219,12.19,1.376v2.753c4.239-.852,8.458-1.44,10.755,2.752-3.421,1.109-4.425,3.8-5.736,6.88-5.82.058-7.074,1.308-12.906,0.688v0.689a2,2,0,0,1,.717.688c5.571,1.878,12.247-2.067,14.34,1.376a2.485,2.485,0,0,0-1.434.688h1.434c0.846-.553,1.2-0.532,2.868-0.688,0.18,2.042,1.528.9,2.868,3.44,0.18,0.666.562,0.261,0,.688-2.739,3.211-4.421,3.187-7.887,5.5,0.069,0.059,2.069.9,1.434,1.376h-0.717c-1.958,1.794-5.683,1.478-6.453,2.752h5.736c1.108,0.5,5.464-.358,7.887-0.688v1.376c-2.381,1.794-2.234,2.644-2.151,5.5l-3.585-.69v0.69H513.1c2.215,1.29,12.126-.58,15.774,0v-1.38a25.63,25.63,0,0,1-5.019-1.37c-1.124-.79-0.253-1.33-4.3-1.38v-0.686a1.988,1.988,0,0,1-.717-0.688h1.434c5.308-3.556,12.077,1.974,17.208-.688-3.69-.288-4.443-1.219-8.6-1.376v-1.376c2.327-.57,1.1.337,2.151-1.376-2.248-.38-1.744-0.145-2.868-1.376a2.485,2.485,0,0,0,1.434-.689c-1.713-.579-1.179-0.276-2.151-1.376h5.019a8.6,8.6,0,0,0,3.585,1.376v-0.688c-0.96-.873-2.267-5.018-2.868-6.88,3.312,0.239,3.756.937,5.736-.688a4.3,4.3,0,0,1-1.434-1.376,10.485,10.485,0,0,1,2.868-.689,2.335,2.335,0,0,0,.718,1.377c0.029-3.394-.238-3.54,2.868-4.129,1.132,2.8,2.888,1.918,4.3,4.129a4.265,4.265,0,0,0-1.434,1.376h1.434c0.429,0.176,3.65-.145,5.019.688-1.713.579-1.18,0.276-2.151,1.376,2.326,0.57,1.1-.337,2.151,1.376-1.669.134-2.026,0.133-2.868,0.688h1.434c1.48,0.8,3,.175,5.736,0,0.181,3.008.08,0.72,1.434,3.44-1.713.58-1.18,0.277-2.151,1.377,2.327,0.569,1.1-.338,2.151,1.376a9.37,9.37,0,0,0-2.868.688c0.616,1.039,2.042.51,0.717,1.376-0.531.6-.9,0.776-1.434,1.376,2.46,0.176,5.429,1.455,8.6,2.752v0.69h-0.717c-1.132.84-3.186,1.2-4.3,2.06,5.318,0.72,12.432,1.97,20.076,2.07v-1.38c-3.816-2.09-10.794-3.71-13.623-6.88,4.156-.236,4.779-1.517,7.887-0.688V996.4c0.085-.887.727-0.859,1.434-2.752h-1.434c-0.769-.518-0.678-0.414-2.151-0.688v-2.753l7.887-.688v-0.688a7.957,7.957,0,0,1-1.434-2.064c-1.582.356-1.422,0.776-2.868,0-1.187-.837.274-1.243-3.585-1.376a2.617,2.617,0,0,0-1.434-.688v-1.376c4.419-.145,3.776-1.325,7.17-2.065,2.367,2.033,7.423,1.919,11.473,2.753v-1.376c-2.783-.232-7.111-1.1-8.6-2.753a7.841,7.841,0,0,0,2.151-1.376c-1.629-.688-1.989-0.513-2.868-2.064a2.491,2.491,0,0,0,1.434-.688c-1.164-.929-0.8-0.44-1.434-2.064h3.585c1.206,0.924,2.254,1.126,4.3,1.376v-0.688c-1.482-.814-1.349-0.471-2.151-2.064,0.933-.382.532-0.021,0.717-0.688,0.35-2.571-.457-2.1-1.434-4.817,3.853,0.106,3.432.385,5.737-.688-0.962-1.309-.92-0.6-1.434-2.752l3.585,0.688v-4.129l3.585,0.688c0.14,1.6.138,1.945,0.717,2.753,1.712-1.119,2.555-.956,3.585.688a8.566,8.566,0,0,0-2.868,2.752c2.163-.637,2.9-0.642,6.453-0.688a32.937,32.937,0,0,0,0,3.44c-0.553.47-1.6,0.9-2.151,1.376a7.778,7.778,0,0,0,3.585,1.377c1.195-1.334,1.032-1.148,3.585-1.377-0.483,2.169-.478,1.444-1.434,2.753,1.669,0.134,2.026.132,2.868,0.688a6.255,6.255,0,0,0-2.151,2.064c0.822,0.3,3.369.794,1.434,1.376a23.516,23.516,0,0,0-2.868,2.752c1.488,0.256,1.38.167,2.151,0.688h-0.717c-0.553.47-1.6,0.9-2.151,1.377,4.108,0.208,6.259,2.02,9.321,3.44v1.376c-1.923.145-5.139,0.489-6.453,1.376,2.624,0.275,2.906,1.633,4.3,2.064,3.031,0.938,2.82-2.109,5.019,1.376h-0.717c-2.276,1.623-.761,1.585-2.151,4.129,2.1-.27.9-1.126,2.151,0.688-0.18.666-7.015,3.748-6.453,4.178,2.456-2.033,4.375,4.14,15.774,17.9,0-.69,2.868.34,2.868-1.38,4.969-.19-4.722-1.43.717-1.38,0.239-.45-0.239-0.91,0-1.37a26.465,26.465,0,0,1-10.038-7.58c2.785-.02,9.953-0.32,10.755-0.72a4.344,4.344,0,0,1-1.434-1.38c2.082,0.04,3.921.03,5.019-.69-2.894-.23-4.68-0.67-5.736-2.75-0.539-.74-0.431-0.65-0.717-2.065,3.731,0.062,7.947-.427,10.039-2.065-4.864-.225-7.923-2.465-11.473-4.128v-1.376h4.3V990.91c3.764-1.475,11,2.972,14.341,1.376-2.306-.273-7.555-1.751-8.6-3.441h0.717c0.552-.469,1.6-0.9,2.151-1.376a6.936,6.936,0,0,1-3.586-2.064c0.637-1.237.215-1.245,0-3.44,3.711,0.077,4.788.943,7.171,2.064v-1.376c-0.687-1.057-1.28-6.2-1.434-8.257,2.291,0.177,2.288.684,3.585,0a2.453,2.453,0,0,0,.717-1.376,4.284,4.284,0,0,1-1.434-1.376h0.717c1.421-.769,1.3-0.41,2.868,0v-4.128h3.585c0.631,1.649.545,2.55,2.151,3.44,0.846-.553,1.205-0.532,2.868-0.688v1.376c-1.438.961-1.481,0.926-2.151,2.752,3.015-.336,4.99-1.575,6.453.688-1.257.955-2.022,0.482-.717,1.376l0.717,1.377h-0.717c-0.617.446-2.255,0.92-2.868,1.376h1.434c1.051,1.737.316,1.062,2.868,1.376,1.195-1.333,1.032-1.148,3.585-1.376V979.9h0.717c-0.812,1.063-.778.579-1.434,2.064l2.151,0.688c-0.921,1.262-1.411,1.178-2.151,2.752,0.822,0.3,3.369.794,1.434,1.376a13.613,13.613,0,0,1-2.868,2.064c0.812,1.064.778,0.58,1.434,2.065-1.488.256-1.38,0.166-2.151,0.688h3.585v2.064c2.95,0.189,3.414.783,5.736,1.376v1.376h-0.717c-1.259.912-3.716,1.153-5.019,2.064h0.717c2.9,2.362,7.355,1.23,11.472,2.752v1.38a7.593,7.593,0,0,0-4.3,2.06c4.453,0.09,2.228,1.06,4.3,2.75,0.73,0.6-6.833-2.35-5.019.69a6.2,6.2,0,0,0-2.151,2.07h1.434c0.694-.47,2.7-0.72,5.736-0.69v0.69c-2.431,1.61-1.675.35-.717,2.75-1.669.13-2.026,0.13-2.868,0.69h0.717c0.531,0.6.9,0.77,1.434,1.37,2.293-.64,2.507-1.19,5.736-1.37a33.651,33.651,0,0,0,0,3.44c-0.531.6-.9,0.77-1.434,1.37a9.262,9.262,0,0,1,2.869.69,13.311,13.311,0,0,1-3.586,2.06c0.757,1.94-1.868-.65-3.925-0.05-17.447,5.1.445,7.95,9.662,9.05,13.348,1.59,2.493,12.56,3.585,12.39,2.15,0.46,5.019,2.25,7.17,2.71v-0.69c-1.222-1.25-.615-3.09-2.151-6.19h3.585v0.68H698.8v-0.68c1.29-1.96-1.212-1.71,2.151-2.76a2.55,2.55,0,0,0,1.434.69v-3.44c4.568,0.44,1.817,1.09,3.585,2.75,2-.64,3.108-1.39,4.3.69-1.482.82-1.349,0.47-2.151,2.07,3.064-.3,4.3-1.46,5.736.68,0,0-2.8.14-1.434,0.69h1.434l0.717,1.38c-1.816.05-2.665,0.08-3.585,0.69h1.434c1.051,1.73.316,1.06,2.868,1.37,1.125-1.26.633-.96,2.868-1.37v0.68c0.239,0,3.107.05,7.17,4.87-3.107-.23-7.409-3.49-7.887-2.8,2.327,0.57,5.4,3.84,6.453,5.56-1.257.43-3.564,0.13-4.3,0.68,1.195,0,.956,3.45,2.151,3.45,0-.69,5.736-0.05,5.736-0.74,5.253,0.07,7.766-1.1,11.473-2.07v-2.06h-1.434c-3.7,2.33-10.324-3.52-11.473-6.19,2.824-.07,8.318.17,8.605,0a2.062,2.062,0,0,0,.717-0.69,11.56,11.56,0,0,0-3.585-.69v-2.06h-2.152c-0.581-2.42-1.006-1.86-2.151-3.44a2.053,2.053,0,0,0,.717-0.69c3.854-.24,2.752-1.06,3.586-1.38,2.518-.96,4.037,1.23,5.019,1.38l5.736-1.38v-0.69c-5.365-1.79-9.766-6.63-15.058-8.94v-1.38c3.415,0.01,7.372-1.13,7.888-2.06a2.44,2.44,0,0,1-.717-1.38c2.081,0.04,3.921.04,5.019-.69-2.849-.22-5.4-1.5-6.453-3.44,0.534-.83.1-0.68,0-2.75l7.887-.69c0.928-1.69-.308-0.47,1.434-1.37v-0.69a25.614,25.614,0,0,1-7.17-2.06v-0.69a4.344,4.344,0,0,0,1.434-1.38,22.379,22.379,0,0,1-5.019-.69v-2.06h3.585v-2.07c4.808,0.17,13.934,3.93,16.491,2.76-2.353-.78-9.6-3.36-10.755-5.508a8.038,8.038,0,0,0,3.585-1.376,6.112,6.112,0,0,1-3.585-3.44,2.5,2.5,0,0,0,1.434-.688,24.584,24.584,0,0,1-2.151-2.065v-0.688h0.717c0.845-.552,1.205-0.532,2.868-0.688a7.5,7.5,0,0,0,4.3,2.753v-2.065c-1.823-1-.809.15-1.434-2.064a2.488,2.488,0,0,0,1.434-.688c-1.769-.891-0.489.3-1.434-1.376,1.769-.891.488,0.3,1.434-1.376a7.174,7.174,0,0,1-2.868-4.129c2.082,0.042,3.921.034,5.019-.688a2.447,2.447,0,0,0,.717-1.376c-0.948-1.2-1.239-1.106-.717-2.064,0.769-.517.678-0.414,2.151-0.688,0.928,1.7-.308.469,1.434,1.376V970.97h2.151a15.2,15.2,0,0,0,2.151,4.816c0.846-.552,1.206-0.532,2.868-0.688-0.477,2.848-1.417,3.129-2.868,4.816h5.019c0.769-.517.678-0.413,2.151-0.688V980.6a6.258,6.258,0,0,0-2.151,2.065c2.06,0.77,1.321.12,2.151,2.064-1.816.051-2.664,0.083-3.585,0.688,1.713,1.071,2.1,2.011,4.3,2.752,1.2-1.333,1.032-1.148,3.585-1.376l-0.717,3.44h2.151c-0.511,2.336-1.164,2.387-2.151,4.129a9.37,9.37,0,0,1,2.868.688v0.688H771.22c-1.28,1.343-2.912,2.2-4.3,3.44,2.567,0.287,1.8-.324,2.868,1.38-1.482.81-1.349,0.47-2.151,2.06,2.7,0.1,2.521-.32,3.585,1.38a1.95,1.95,0,0,0-.717.68c3.406,0.17,4.328.79,5.736,2.76,0.181,0.66.563,0.26,0,.69-1.523,1.34-4.011,1.54-5.736,2.75,3.2,0.55,1.48.66,4.3,0.69-0.2,1.69-.472.33,0,2.06,3.514-.78,7.676-0.81,9.322,2.06H783.41c-1.985,1.5-2.071,1.68-4.3,2.07v2.06c-2.327.57-1.1-.34-2.152,1.38,2.958,0.68.49,0.3,2.152,2.06a5.066,5.066,0,0,1,7.17,1.38,32.789,32.789,0,0,0-8.605,4.82c-0.709.69-.484,2.3-1.434,2.75-3.694,1.75-5.552-1.54-8.6.69h1.434c2.9,2.59,6.571.61,10.039,0v2.75h1.434c3.1-2.64,5.632.39,9.321,1.37a2.553,2.553,0,0,1-1.434.69c-2.189,3.13-3.486,2.65-3.585,6.19-3.307.24-11.16,0.48-13.624,2.07h0.717c3.733,3.29,8.182-.12,12.19-0.69,1.964,4.03,7.067.93,7.887,6.88a39.347,39.347,0,0,0-7.887,4.13c0.891,1.08.46,0.35,0,1.38-1.371,1.12-4.147,1.05-5.736,2.06,4.878,0.34,8.36.1,13.623,0v0.69c-1.438.78-1.994,2.25-2.868,3.44h3.585c2.938-1.55,7.255,1.56,9.321-1.38-3.579-.86-12.061-3.22-13.623-6.19,4.12-.09,4.882-0.86,7.887,0v-0.69H795.6a14.141,14.141,0,0,1,2.868-1.37v-0.69c-2.9-.33-3.4-0.48-4.3-2.75a2.062,2.062,0,0,0,.717-0.69c4.093-.04,3.45-0.56,7.17,0-2.632-2.65-8.019-2.75-9.321-5.51,7.073-.41,9.8-1.26,16.491,0v-0.69c-1.49-.46-4.971-0.88-6.453-1.37v-0.69c1.164-.93.8-0.44,1.434-2.06-1.567-.33-1.248-0.01-1.434-0.69a9.434,9.434,0,0,1-.717-2.75c3.364,0.08,4.569.76,7.17,1.37v-0.69a4.219,4.219,0,0,1-1.434-1.37c1.931-.86.791-0.39,1.434-2.75-1.689-.76-1.276-0.66-2.151-2.07,2.887,0.09,3.921.37,5.019-1.37a2.49,2.49,0,0,1-.717-1.38h3.585v-2.75c2.949,0.09,6.771,1.59,7.887,3.44a6.262,6.262,0,0,0-2.151,2.06c1.581-.48,4.42-1.3,6.454,0a7.871,7.871,0,0,0-2.152,1.38h5.02v2.06h4.3v1.38c-1.257.95-2.022,0.48-.717,1.37,1.115,0.55,3.328-.3,5.019.69-1.257.96-2.022,0.48-.717,1.38,0.239,0.46.478,0.92,0.717,1.37-1.669.14-2.026,0.14-2.868,0.69h0.717c1.348,0.69,4.9.31,7.17,0.69v-0.69c-1.769-.89-0.488.3-1.434-1.37,1.669-.14,2.026-0.14,2.868-0.69a26.8,26.8,0,0,1-5.019-2.75v-1.38a2.062,2.062,0,0,0,.717-0.69,46.37,46.37,0,0,0,9.321-.69v-0.68c-2.257-.26-5.471-1.14-6.453-2.76a1.95,1.95,0,0,0,.717-0.68h-4.3a2.553,2.553,0,0,0-1.434-.69v-0.69h0.717c6.168-4.03,13.534,1.26,17.925-.69-2.027-.32-6.917-1.88-7.887-3.44a7.865,7.865,0,0,0,2.151-1.38c-1.719-.6-2.658-0.52-3.585-2.06,1.488-.26,1.38-0.17,2.151-0.69-1.482-.81-1.349-0.47-2.151-2.06h3.585c1.205,0.92,2.254,1.12,4.3,1.37v-0.68c-0.153-.24-1.943-6.62-2.151-7.57h5.736v-0.69c-1.438-.96-1.481-0.93-2.151-2.75h4.3a9.471,9.471,0,0,0-.717-3.44h3.585a7.383,7.383,0,0,0,1.434,3.44c1.73-.94,1.78-0.98,2.868.69a16.555,16.555,0,0,0-2.151,2.06c2.218,0.05,5.2-.55,7.171.69l-2.152.69c0.922,1.26,1.411,1.17,2.152,2.75-1.816.05-2.665,0.08-3.586,0.69h0.717c2.534,2.08,2.93.52,6.454,0v0.68h0.717c-0.645,1.51-.619,1-1.434,2.07a9.255,9.255,0,0,1,2.868.69,23.5,23.5,0,0,0-2.868,2.75c2.567,0.28,1.8-.33,2.868,1.37a12.751,12.751,0,0,0-5.736,2.07c1.815,0.05,2.664.08,3.585,0.69a7.827,7.827,0,0,0-2.151,1.37h2.868v2.07h3.585a6.822,6.822,0,0,0,2.868,2.06,2.62,2.62,0,0,1-1.434.69c-1.007.61-4.021,0.75-5.019,1.38h0.717c3.577,2.43,9.848.2,12.189,4.12-3.736.31-4.433,1.79-6.453,3.44h1.434c0.928,1.7-.308.47,1.434,1.38,2.731-4.72,9.107-2.49,15.774-3.44v-0.69c-4.095-1.12-13.973-6.64-15.057-8.94,3.9-.35,4.5-1.68,7.887-0.69l-0.717-2.07h2.151v-2.06a9.3,9.3,0,0,1-4.3-2.06l0.717-2.07a29.839,29.839,0,0,0,9.321-1.37v-0.69a49.4,49.4,0,0,1-7.17-2.07c0.239-.68.478-1.37,0.717-2.06-1.816-.05-2.665-0.08-3.585-0.69a2.441,2.441,0,0,1-.717-1.37c4.153-.47,1.761-1.08,3.585-2.07,4.318-2.35,4.3,3.2,7.17.69,4.284-.91,6.952,4.13,11.472,1.38-3.378-.03-11.438-2.54-12.906-4.13a8.04,8.04,0,0,0,3.585-1.38,7.8,7.8,0,0,0-3.585-1.38c0.483-2.16.478-1.44,1.434-2.75-1.57-.62-1.035-0.59-2.151-1.37v-0.692a2.485,2.485,0,0,0,1.434-.688c2.585,0.6,4.292,1.74,6.453,2.75v-2.062c-1.769-.89-0.488.292-1.434-1.376a2.491,2.491,0,0,0,1.434-.688c-1.769-.891-0.488.3-1.434-1.376,2.066-1.48.171-2.114-.717-4.816,2.975,0.042,4.295-.1,5.736-1.377-1.311-1.079-1-.606-1.434-2.752,2.661,0.272,2.118.4,3.585,1.376v-5.5h2.151a31.189,31.189,0,0,0,2.151,4.128c0.846-.552,1.206-0.532,2.869-0.688-0.512,2.336-1.165,2.387-2.152,4.128,2.277,0.072,4.6-.465,6.454.689-2.067,2.083.049,1.506-.717,3.44-0.553.469-1.6,0.9-2.151,1.376h0.717a25.075,25.075,0,0,1,2.151,2.064c1.766-1.017,2.546-2.154,4.3-1.376h0.717a9.091,9.091,0,0,1-1.434,2.752c2.326,0.572,1.095-.337,2.151,1.372a17.189,17.189,0,0,0-2.151,2.07,9.247,9.247,0,0,1,2.868.69c-1.169,1.63-2.5,2.32-3.585,4.13,1.488,0.25,1.379.16,2.151,0.68-2.125.57-1.96,0.31-2.868,2.07a9.6,9.6,0,0,1,3.585,0c-0.239.46-.478,0.91-0.717,1.37h0.717a40.609,40.609,0,0,0,5.736,2.76v0.68h-0.717c-1.584,1.25-4.571,1-5.736,2.76h0.717c3.218,2.24,8.274,1.84,12.906,2.75v0.69h-0.717c-1.152,1.33-2.2,1.59-4.3,2.06,0.239,0.69.478,1.38,0.717,2.06-1.669.14-2.026,0.14-2.868,0.69,2.958,0.69.489,0.3,2.151,2.07,1.921-1.33,6.13-.42,7.17,1.37h-1.434c-0.769.52-.678,0.42-2.151,0.69v2.07c-5.353.58-4.458,3.04-6.453,4.12-3.83,2.08-6.078-2.41-9.321,0h1.434c2.8,2.16,6.7.98,10.755,0.69,0.138,2.48-1.065,1.43,1.434,2.07,1.246-1.4,1.538-1.29,4.3-1.38,1.219,2.17,3.027,1.45,4.3,3.44-3.629,1.09-3.849,3.62-5.019,4.82-3.1,1.82-9.74.14-12.906,2.06h0.717c4.031,3.12,7.975-.11,12.189-0.69,0.928,1.7-.308.47,1.434,1.38-0.531.6-.9,0.78-1.434,1.38,3.7-.7,6.388-0.48,7.887,2.75h-0.717c-2.294,2.26-5,2.27-7.887,4.13a4.219,4.219,0,0,1,1.434,1.37c-2,.37-4.394,1-5.736,2.07,9.278-.01,12.906-2.85,18.642-2.07-0.044-1.76-.521-1.32,2.151-2.06v-0.69l-4.3-.69c0.267-1.43.174-1.32,0.717-2.06,1.843-.98,4.748.17,7.17-1.38-2.644-.82-8.021-2.56-9.321-4.82,6.8-.36,9.369-1.18,15.775,0v-1.37h-5.737v-1.38c1.165-.93.8-0.44,1.434-2.06-1.488-.26-1.379-0.17-2.151-0.69,0.669-1.31.272-.8,0-2.75h2.868c1.206,0.92,2.254,1.12,4.3,1.37v-0.68c-1.5-1.52-1.153-1.28,0-3.44-0.84-1.25-1.566-.78-2.151-2.76,2.26,0.06,3.738.33,4.3,0,1.29-1.95-1.212-1.7,2.151-2.75v0.69h0.717v-3.44h3.585c2.476,4.64,2.674-.16,5.019,3.44-1.925.61-1.857,0.71-2.868,2.06h1.434c1.229-.72,3.773-1.27,5.019.69,0,0-2.8.14-1.434,0.69h1.434l0.717,1.38c-1.816.05-2.665,0.08-3.585,0.68h1.434c0.968,1.12.459,0.78,2.151,1.38,1.165-1.03,1.451-1.07,3.585-1.38v0.69H993.5c-0.044,1.46-.059,2.58.717,3.44,3-2.78,7.268,1.88,10.038-2.06-3.16-.95-13.737-5.72-15.057-8.26,4.579-.08,4.969-0.79,9.321,0v-0.69c-1.769-.89-0.488.3-1.434-1.37,2.06-.77,1.321-0.12,2.151-2.07-2.8-.46-3.4-1.28-4.3-3.44,2.783-.44,7.131-0.76,7.891-2.06-1.08-1.07-.56-1.27-2.15-2.07-0.774.52-.683,0.42-2.156,0.69v-2.06c-2.5-.31-2.867-0.83-5.019-1.38v-0.69h0.717c1.016-.66,2.347-0.67,4.3-0.68v-2.07c4.946,0.65,8.176,1.94,13.626,2.75v-1.37c-3.16-.44-3.99-1.24-7.89-1.38v-2.06c1.49-.26,1.38-0.17,2.15-0.69-1.23-.81-2.78-1.4-3.58-2.75,1.77-.89.48,0.29,1.43-1.38-1.82-1-.81.15-1.43-2.06,3.65,0.2,4.98,1.29,7.88,2.06v-0.69c-0.66-.84-1.75-6.456-2.15-8.942,3.13,0.158,3.74.872,5.74-.688-1.44-.961-1.48-0.926-2.15-2.752,4.01,0.092,3.57,1.061,3.58-3.441,2.64,0.118,7.01,2.654,7.89,4.129a5.944,5.944,0,0,0-2.15,2.752h3.58c0.93-.6,1.77-0.615,3.59-0.688v0.688c-1.61,1.1-1.51,1.127-1.44,2.064,0.62,1.039,2.05.511,0.72,1.376-0.62.442-2.25,0.922-2.87,1.372h0.72v0.69a11.54,11.54,0,0,0,3.59.69c0.92-.6,1.76-0.61,3.58-0.69v1.38a4.265,4.265,0,0,0-1.43,1.37c1.67,0.14,2.02.14,2.86,0.69-1.43.96-1.48,0.93-2.15,2.76,2.33,0.56,1.1-.34,2.15,1.37a15.722,15.722,0,0,0-3.58,1.38c0.56,1.18,1.88,1.26.72,2.06-0.56.47-1.6,0.9-2.15,1.38h3.58v2.06c4.48-.99,2.81-1.52,7.17,0v-1.37c-1.82-1.01-.81.15-1.43-2.07,2.08,0.04,3.92.03,5.02-.69-3.86-.49-3.1-1.91-6.46-2.75-0.24-1.15-.48-2.29-0.71-3.44h0.71v-0.69c4.15-.33,4.17-1.27,7.89-0.69,0.08-2.03.26-.39,1.43-2.75-2,.14-4.33-0.96-7.17-2.062V999.18a4.285,4.285,0,0,0,1.44-1.376c-3.22-.109-4.66-0.576-5.74-2.752,2.12-.322,4.04-0.468,5.02-2.064,0.47-.991.18-0.629,3.59-0.688,0.8,1.022,1.27,1.7,2.15,2.752,3.4-2.8,6.55.741,12.19,0.688v-1.376c-2.71.768-10.32-2.367-12.91-4.129,0.67-.849,3.57-2.212,2.15-2.752-0.96-1.9-1.9-1.54-2.87-3.44,2.39-1.493.77-1.806,0-4.129h3.59a15.246,15.246,0,0,0,4.3,2.753V980.6c-2.35-2.77.64-3.546,0-6.88-0.31-1.585-1.88-1.965-2.15-4.817,2.88,0.258,3.65.876,5.74-.688-1.39-1.105-1.67-2.108-2.16-4.128h2.87a4.237,4.237,0,0,0,1.44,1.376v-6.192h2.86l0.72,4.128h3.59c-0.52,3.117-2.18,4.643-3.59,6.881h0.72c1.54-1.711,4.62-2.036,7.89-2.065v0.688c-1.94,1.344-2.82,1.763-1.44,2.753,0.57,1.187,1.88,1.266.72,2.064-1.33.994-1.93,0.491-2.87,2.064h0.72a25.512,25.512,0,0,1,2.15,2.064c1.84-1.242,1.17-1.668,4.3-2.064a9.763,9.763,0,0,1,.72,2.752c-1.77.891-.49-0.295-1.44,1.376h2.15c-0.5,2.759-1.31,2.508-2.15,4.817a9.4,9.4,0,0,1,2.87.688l-0.72,1.376a31.451,31.451,0,0,0-5.01,2.752h1.43c1.11,1.029,1.32.535,2.15,2.065-1.48.813-1.35,0.47-2.15,2.064h2.87c0.26,1.428.17,1.324,0.71,2.064,1.14,0.738,7.09,2.962,5.02,4.128-1.53,1.382-4.59,1.672-5.73,3.442h1.43c2.83,2.5,6.64,2.84,11.47,3.44v2.06h-2.86c-0.81,1.98-.13,1.27-2.16,2.07,0.82,1.06.78,0.58,1.44,2.06-2.22-.06-2.89-0.4-3.59,0,1.2,1.02,1.8,2.31,2.87,3.44,1.17-1.03,1.45-1.07,3.59-1.37-0.24.68-.48,1.37-0.72,2.06,1.95,0,3.3.03,4.3,0.69h-0.71c-1.59,1.5-2.16.78-2.87,3.44h-2.87v2.75c-4.04.74-2.06,1.93-3.59,2.75-3.14,1.7-6.18-2.51-10.03,0h0.71c4.17,3.82,7.03,1.35,12.19.69a8.2,8.2,0,0,1-.72,2.75h2.16c1.16-1.03,1.45-1.06,3.58-1.37v2.06c2.03-.5,3.85-0.13,5.02,2.07-2.77,1.49-4.61,3.04-5.02,6.88-5.13.21-8.63,2.3-13.62,0.68v0.69h0.71v0.69c7.5,2.71,5.68-.11,12.91-0.69-0.14,2.08-.28.47,1.44,2.07a4.2,4.2,0,0,0-1.44,1.37c3.44-1.13,6.5-.02,7.89,2.75-1.86,1.35-3.63,2.21-4.3,4.82h-3.59c0.34,2.09,1.42,2.16.72,2.75a14.128,14.128,0,0,1-2.87,1.38v0.69h0.72c2.6,1.47,6-.79,8.6.69-2.8,2.14-2.17,2.75-1.43,5.5-2.57.29-1.81-.32-2.87,1.38h2.15c2.05-1.45,5.25-1.97,8.6-2.07v0.69c-2.41,2.35-1.3,3.8-4.3,7.57,2.46,0.15,4.71.39,5.74,2.06-2.33.57-1.1-.33-2.15,1.38h1.43c1.11-.72,2.93-0.71,5.02-0.69v1.38c-2.13,1.34-2.82,2.64-5.74,3.44V1079a10.2,10.2,0,0,1,5.02,1.37h-1.43a18.372,18.372,0,0,1-3.59,2.75v0.69h0.72c1.57,1.77.23,1.96,4.3,2.07,1.32-.86,4.09-0.75,6.46-0.69v0.69h-0.72c-1.33,1.16-2.63,1.09-3.59,2.75a5.936,5.936,0,0,1,2.16,2.75c-2.52.28-3.53,0.87-5.74,1.38v0.69c1.82,0.05,2.66.08,3.58,0.68h-1.43c-1.25,2.98-1.05,1.5-3.58,3.44q5.37-.69,10.75-1.37v1.37a17.363,17.363,0,0,0-4.3,4.82h4.3a46.76,46.76,0,0,0,5.74,0v1.38c-3.87.93-2.85,2.29-5.74,2.75v2.06a51.593,51.593,0,0,0,10.76,0v1.38a9.247,9.247,0,0,0-2.87.69c0.81,1.06.78,0.58,1.43,2.06-3.14.04-14.47,2.13-16.49,3.44h-0.72v0.69c4.81-1.56,18.41,4.43,29.4,6.28-6.24.45,20.92,13.65,18.67,16.88,25.12,20.28,35.85,11.44,50.16,20.99-20.87-.03-33.65-0.08-118.01-0.15-11.58-.01-47.51-1.02-62-1.03-12.47-.01-3.09,6.98-18,6.97-10.068,0-16.721-.01-28-0.01-5.2-.01-16.531,6.99-22,6.99-6.157-.01-26.488-3.01-33-3.01-14.135-.01-13.116-4.02-29-4.02-33.74-.02-36.555-10.04-79-10.05-41.69-.02-5.849,9.34-57,9.32-24.028-.01-96.282-1.26-157-1.08-20.828.06-21.3,1.55-37,1.58-10.651.02-32.57-3-39-3-5.945,0-15.945,7-22,7-7.9,0-14.9-1-23-1-9.533,0-21.2,1-31,1-6.606,0-20.272-.5-27-0.5-12.776,0-36.774,4-50,4-14.717,0-38.715-4-54-4-14.732,0-43.73,9.5-59,9.5-16.353,0-65.017,13.03-82,13.02-37.447,0-70.8,33.52-103,35.48-26.358,1.6-33.49,12.63-93,26-24.38,5.48-48.564,24.59-78,24-24.793-.49-78.366-9.56-107.957-9.56-0.133-1.61-.13-118.22-0.706-119.03-1.16,4.42,1.977-103.85-5.03-104.07-0.27-1.74.421-1.08-2.145-1.38-0.688-.41-1.371-0.08-3.585-0.02a16.848,16.848,0,0,0-1.421-3.44c-0.771.51-.679,0.41-2.153,0.68,0.547-2.74.8-2.38,2.881-3.43l0-.69c-2.325-.58-1.1.33-2.146-1.38,1.95,0.01,3.3-.02,4.3-0.68h-0.717c-0.343-1.9.4-.81,1.439-1.37a2.609,2.609,0,0,0,1.431.69c0.034-1.58.369-1.18,0.733-4.12a4.513,4.513,0,0,1-3.585-.02c0.026-2.4-.082-2.28-4.294-2.08,0-.68.006-1.37,0.008-2.06,0.956,0,1.913.01,2.868,0.01,0.241-.46.482-0.92,0.723-1.37a4.318,4.318,0,0,1-1.429-1.38q6.094,0.015,12.189.04l0-.69c-3.933-.24-5.591-1.55-8.593-2.78,0-.23,0-0.46,0-0.69a4.237,4.237,0,0,0,1.44-1.37c-2.557-.42-2.413-0.51-3.577-2.08,2.693-.19,6.069-0.87,7.181-2.72-4.674.05-6.562-1.16-7.871-4.16a8.085,8.085,0,0,0,1.442-2.06c-1.433-.23-2.867-0.47-4.3-0.7q0-1.035.008-2.07c1.2,0.01,2.39.01,3.585,0.02q0-1.035.008-2.07c6.667,0.32,12.191.29,18.648-1.31,0-.23,0-0.46,0-0.686-4.733-.766-4.2-3.318-10.742-3.479-0.619-2.576-1.267-1.9-2.135-4.136a2.5,2.5,0,0,0,1.437-.683c-2.374-.573-3.116-1.123-4.292-2.768l3.585,0.013c3.752,2.461,15.108,0,20.082-1.3l0-.688c-9.566-.04-12.485-4.637-22.209-4.9l0.006-1.376A9.813,9.813,0,0,0-208,979.291l0-.688c-2.557-.417-2.413-0.513-3.577-2.077,3.731-.141,18.336-1.075,20.8-2.678-1.669-.14-2.026-0.14-2.866-0.7a2.446,2.446,0,0,1-.711-1.379l5.741-1.356,0-.688c-5.41.609-8.487-.45-13.621-0.737-0.694-1.839-.914-1.185-1.42-3.445l-2.151-.008c-0.484-1.717-1.686-1.283-.709-2.066,1.019-.658,2.349-0.664,4.3-0.673q0-1.032.008-2.064c2.672,0.009,6.22-.224,7.893-1.348,2.421-.657,2.978-0.9,3.6-3.427l-1.434-.006c-1.019.658-2.349,0.664-4.3,0.673-1.643-3.442-5.625-3.842-7.141-7.594,4.4-.078,5.093-0.506,9.318.721l0.009-2.064-2.868-.01c-1.453-2.538-3.5-3.7-4.276-6.9l4.3,0.015,0.006-1.376c4.289-1.628,6.442,2.581,10.757-.65-3.213-1.011-2.713-3.546-5-4.834-0.556-.313-1.527,1.492-2.871.678-2.182-1.322-6.7-5.607-7.857-7.6,4.66-.312,5.456-1.939,8.6.031q0-.688,0-1.376c-0.956-2.159.518-1.828,1.45-4.124-2.736-.524-3.011-0.854-3.571-3.453-0.887-1.081-.459-0.352,0-1.376,1.05-1.746-.153-0.777,2.156-1.368,1.476,0.759,6.078-.61,7.181-2.727-4.163-.367-1.623-0.812-3.577-2.077a21.72,21.72,0,0,1-3.585-.013q0.363-1.03.725-2.061c-2.5-.322-2.863-0.841-5.013-1.394q0-1.033.008-2.065l4.3,0.016q0-1.032.008-2.064c4.575,0.209,14.589,4.26,17.2,2.814-2.057-.186-10.823-4.144-11.45-5.546a12.933,12.933,0,0,0,2.876-2.054l-0.717,0c-0.922-2.191-1.8-1.552-2.855-3.451,1.575-1.819.4-1.24,0.019-4.817,3.744,0.529,4.358,2.09,7.876,2.781q0-.688,0-1.376c-2.63-2.3-.574-3.9.025-6.193-1.8-1.083-2.047-2.663-2.13-5.512,2.879,0.268,3.646.889,5.739-.667-1.873-.968-1.849-1.7-2.135-4.136l3.582,0.7a15.656,15.656,0,0,0-.7-5.507Z"/>
  <path id="mountain-1" d="M1800.15,1028.75q3,0.51,6,1c-2.6,4.44-.95,3.27-2,8,1.34-.34,2.67-0.67,4-1-0.66-1.67-1.33-3.33-2-5,2.67,0.67,5.34,1.33,8.01,2q-2.505-3.99-5.01-7.99c0.67-.34,1.34-0.67,2-1,1.34,0.33,2.67.66,4.01,1-1.34-1-2.67-2-4.01-3,1.67-.67,3.34-1.33,5.01-2q-1.005-3.5-2-6.99,3.495,1.5,7,2.99-3-2.985-6-5.99v-1c2,0.67,4,1.33,6,2-0.67-1.67-1.34-3.33-2-5,2.55-2.64,2.58-6,6-7.992,2.14,3.472,4.56,3.932,9,4.992-0.33-.99-0.66-1.99-1-2.99,5.87,2.82,9.34,3.45,17.01,2.99-0.34-1.33-.67-2.66-1-3.993l-10.01-2c0.34-.666.67-1.332,1-2,0.67-.332,1.34-0.666,2-1-4.82,1.078-14.88.835-18-4l3,1-6-4h7v-4l6,3c-0.33-1-.66-2-1-3,5.12,2.555,15.77,4.322,23.01,1-1.33-1-2.67-2-4-3v-1l7,1c-0.67-1.332-1.33-2.664-2-4,6.07,0.67,6.56-.8,12-2v-1l-11-1c1.15-4.148-1.88-3.989-6-9.993h2c-0.33-.666-0.67-1.332-1-2,4.63,1.166,11.18,3.08,16,1-6.04.282-9.39,0.089-12-3l3,1c-1.33-1.333-2.67-2.665-4-4,5.28,0.244,9.36.1,12-2-4.18,1.3-8.74,1.028-12-1q7-3.5,14-7l-13-3c-0.33-1.665-.67-3.331-1-5,1.82,0.369,7.91.493,12-2q-2-1.5-4-3c7.84,0.669,6.59-.32,11.01-5-6.09,1.067-12.87-.2-16.01-5h11c-0.66-1-1.33-2-2-3l8.01-1c-4.44-1.015-4.02-.66-6.01-4,4.28,0.336,3.94,1.625,6.01-3-4.73-1.175-3.19-.133-5.01-4,1,0.666,2.01,1.332,3.01,2l-2.01-4,5.01,1c0.05-4.535.19-5.743,2-7.994h1c0.64,3.632.4,3.025,2,5l4-1c-0.67-1-1.33-2-2-3,5.61-.205,9.06-1.266,12-4a43.189,43.189,0,0,1-16-6c1.8-2.041.01-.706,3-2,2.17-1.98,7.66-2.282,10-4l-3-2,9-3-3-1q2.5-1,5-2l-21-6c0.33-.666.66-1.332,1-2,8.24,1.247,7.59-.121,16,1q-2-2-4-4c4.7,0.7,6.65,1.219,10.01-1-2.34-1-4.67-2-7.01-3,4-1.991,4.97-.654,7.01-5l-5.01-2c3.31-3.877,1.08.1,1-5l5.01,1c-0.15-4.915.05-7.562,2-9.992h1c-0.28,9.62,1.46,10.2,5,14.988-1.67.333-3.34,0.666-5,1,0.33,1.332.66,2.665,1,4l6,1c-0.67,1-1.33,2-2,3-0.67.333-1.34,0.666-2,1h9v1c-1.67,1.332-3.33,2.664-5,4l14-1c-2.02,4.3-9.83,4.289-16,7h7c-0.33.666-.67,1.332-1,2l-8,1c0.33,0.667.66,1.333,1,2,5.67,0.031,10.32-.85,13,3l-6,3,12-2v1l-3,4c-1.33.333-2.66,0.666-4,1,1.72,1.23,2.62,1.328,4,3h-2q-8,2-16,4c0.33,0.666.66,1.332,1,2,11.04,2.587,25.17-2.532,27.01,3-2.81.553-5.47,3.057-11.01,6,3.03,1.258,1.2-.018,3,2-5.04.547-10.97,2.249-14,5l12-2c-0.66,1-1.33,2-2,3q-5.49,2-11,4l9-1c-1.13,3.634-1.13,2.734-3,5l4,1h4c-0.33.666-.66,1.332-1,2-8.88,1.089-8.55,5.924-16,4,1.67,1,3.33,2,5,3-0.67,1-1.33,2-2,3,7.4-.568,15.63-1.037,18,3q-2,1-4,2c7.71-.333,2.69.78,10.01,1q-1.005,3-2,6c8.6-2.042,11.67-5.919,19-8.993-0.66-1-1.33-2-2-3,6.7-.844,5.76-2.959,10.01-3-6.08-5.477-10.56-2.235-14.01-8.993,1.67,0.333,3.34.666,5,1-0.66-1-1.33-2-2-3,4.46,0.486,7.15.947,11.01-1-3.14-1.612-2.36-.912-4.01-4,3.7,0.818,5.91.851,9.01-1-2.7-1.6-1.38-.339-3-3,4.48-.163,2.84.993,6-2-8.11,1.531-16.47-2.086-21.01-4v-1c0.33-.666.67-1.332,1-2,7.18,2.7,7.34.21,16.01,2-3.43-2.707-3.2-2.492-5-5h10q-4.005-1.5-8-3c4.52-1.336,6.03-.727,8-5-3.6-1.371-3.17-.9-5-4,1.33,0.333,2.66.666,4,1l-3-4,5,1q1.005-5,2-9.993l3,1c-0.64,5.468-1.21,8.187,1,11.99,3.6,0.238.38-.475,3,2-4.95.814-2.98-.668-5,3,0.33,0.667.67,1.333,1,2h6c-2.26,2.684-3.42,3.024-4,5h10c-1.83,2.068-2.82,2.132-6,3v1c8.81,0.163,17.72-2.122,23.01-6-5.78-1.013-13.69-4.2-15-7-2.05-1.8-.71-0.015-2.01-3q7.515-1.5,15.01-3c-1.33-1-2.67-2-4-3l8-1c0.01-5.363.49-2.1,5-7-11.01.38-20.29-2.185-24.01-6,1-.333,2.01-0.666,3.01-1q3.495,1,7,2c-0.34-1.332-.67-2.665-1-4l10,3c-3.43-2.708-3.2-2.492-5-5h11q-3.99-2.5-8-5l8-1v-4c-4.42-.772-3.71-0.6-6-3l4-1c-2.7-1.6-1.38-.34-3-3l6,1q1.005-5.495,2-10.991h1c-0.11,8.527.94,11.579,6.01,14.988-2.62,2.135-3.34,1.5-5.01,5,0.34,0.666.67,1.333,1,2q3.015-.5,6.01-1h-3v-4c5.88,1.811,12.57,6.348,19,4-4.77-1.085-11.89-9.355-13-14.988l12,3c-3.47-2.863-7.45-1.393-5-4-0.67-1.332-1.33-2.665-2-4l9,3c0.34-1,.67-2,1-3-3.19-.746-5.68-2.275-7-7h3l6,3q-2.49-4-5-7.994c0.34-.333.67-0.666,1-1q6,3.5,12.01,7c-5.67-4.706-6.9-6-13.01-9.993,2.85-2.1,2.94-1.645,7-1l-3-3v-1l8.01,1c-1.34-1.332-2.67-2.664-4.01-4,1.98-1.152,3.51-1.344,5.01-3,1.81-4.471-2.43-2.624,2-5,0.33-1,.66-2,1-3,0.66,0.333,1.33.666,2,1,1.4,3.528,2.24,5.625,1,9.992,2.84,0,2.29-.618,5,1-1.67,1.332-3.33,2.664-5,4l9-1c0.42,4.963-1.19,1.271,3,4q-4.995,3.5-10,7l13-4c0.16,0.8.01,2,1,1l-6,7q4.005-1,8-2v3l-12,7v1q7.5-2,15.01-4c0.33,0.666.66,1.332,1,2l-8.01,5v1l12.01-2v1c-1.68,2.983-1.68,2.407-2,5-6.19,1.422-3.68,5.585-11.01,7.993v1h5c4.7-1.883,10.81-5.143,15.01-4-1.08,1.684-.71.128,0,2,0.33-.666.67-1.332,1-2v3c-8.29,1.634-12.06,8.591-19.01,11.991,1.43,1.338,1.76,1.246,3,3h-8c0.33,0.666.67,1.332,1,2,6.05-.472,9.33-1.89,12.01,0-0.67.333-1.34,0.666-2,1,9.71-1.362,18.69-3.885,23-3-5.6,7.211-19.97,13.546-31.01,11.99,0.34,0.667.67,1.333,1,2,5.06-.095,8.72-1.195,11.01,3l-3,2c13.57-3.034,18.53-11.276,34.01-7.994l-8.01-6c3.19,0.627,10.2,3.1,14.01,2-5.81-1.68-6.9-2.483-10-7.993q3.495,1,7,2l-3-6c2.33,1,4.67,2,7,3l-6-5v-1c4.13-1.057,4.69-2.055,9-1-1.33-1.666-2.67-3.331-4-5,4.23-2.39,3.06-4.9,8-7v2c0.67-.333,1.34-0.666,2-1-1,6.346-2.18,3.515,3,7l-3,3,6-1c-0.66,1-1.33,2-2,3,3.98,0.123,2.07-.895,5.01,1v1c-3.9,1-3.01.388-5.01,3l5.01-1c-1.34,2-2.67,4-4.01,6,2-1,4.01-2,6.01-3,1.37,1.453,1.2,3.592,0,2-1.34,2-2.67,4-4.01,6h1c3.58-1.414,3.85-1.538,8.01-1-0.34.666-.67,1.332-1,2-2.61.425-.55-0.975-3,1h6c-2.09,3.712-3.71,4.366-5,8.993l3,1,6-2v3c-1.2,2.925-1.32.846,1,3,3.93,2.155,12.28,4.072,17.01,2-7.16-1.333-11.7-4.851-16.01-8.993v-1h19.01c-6.62-6.226-14.28-8.461-17.01-18.985h1c7.22,3.7,12.56,8.178,21.01,7.994-9.51-8.3-12.78-5.395-18.01-16.987v-1c7.71,1.662,13.76,8.09,22.01,5l-12-4c0.33-.666.66-1.333,1-2,1.33-.333,2.66-0.666,4-1-3.38-2.609-2.96-.414-4-6h1l10,3c-4.1-3.335-7.81-7.4-12-7.993,0.33-1.333.66-2.665,1-4q7.995,2,16,4c-3.39-3.652-10.04-12.61-10-11.991-0.34-1-.67-2-1-3l13,3c-3.9-3.4-8.11-4.694-10-7.994,3.69,0.573,9.48,2.51,13,0-3.82-1.5-5.9-3.825-8-6.994,0.33-.333.67-0.667,1-1q4,2,8,4c-2.97-4.712-2.74-3.109-4-7.994,0.34-.333.67-0.666,1-1q5.01,3,10.01,6c-5.35-5.047-4.79-4.506-11.01-9.993v-1l7,1c-1.49-1.614-2.65-2.115-4-4,4.64-.3,4.28-0.544,8.01,1-1-2-2.01-4-3.01-6,4.99-1.046,3.35.348,5.01-4-3.32-.54-0.44.249-2-3,4.43-.519,1.15-0.411,6-3,1.45,6.247.96,10.144,7,10.992l-6,6c4.19-1.129,4.63-1.541,9-1v2l-6,2c5.17-.953,6.5-2.4,10,0v1q-3.99,2.5-8,5l10-3q-1.995,3.5-4,7,4.005-1,8-2c-0.33,1.333-.66,2.665-1,4q-6.99,3.5-14,7v1l20.01-4c-1.54,2.679-5.69,5.29-10.01,7v1l12.01-3c-0.92,3.648.03,2.043-2,4-1.64,5.034-3.42,9.044-11.01,10.992v1q9.51-2.5,19.01-5v4l-17.01,11.99c3.79,1.906,2.06.428,3,3h-7c0.34,0.666.67,1.332,1,2l11.01-2c-0.67,1-1.34,2-2,3q5.49-1.5,11-3-2.505-1.5-5-3c9.39-3.217,21.97,4.33,32.01,0-17.56.284-22.92-10.986-28.01-17.986v-1q12,4.5,24.01,8.993c-0.67-.333-1.34-0.666-2-1,2.67-3.293,2.47-2.634,7-2-4.2-5.068-22.62-11.615-25.01-11.99v-4l19.01,3c4.92-1.487,9.18,1.442,13-1-5.24,0-4.92.911-8-3,1.67-.333,3.33-0.667,5-1-12.5-2.844-8.65-9.044-19.01-10.991,0.34-1.332.67-2.665,1-4,6.98,1.2,13.36,6.055,20.01,4-8.54-2.223-10.45-8.54-14-13.989,0.33-.333.66-0.666,1-1,3.41,1.337,7.39,2.478,11,1-4.63-1.527-5.62-2.086-7-7h1c4.41,2.343,11.23,6.212,17,4-9.75-.972-10.5-5.591-15-6.994v-4l8,2c-0.33-1-.67-2-1-3-2.41-1.749-1.67-1.027-3-4l10,3c-3.34-3.22-5.14-4.67-9-5,3.52-4.045,5.09-2.2,11-1q-3.495-2-7-4c0.67-.333,1.34-0.666,2-1q3.51,1,7,2-2.49-2.5-5-5c3.02-1.973,3.19-.011,3-2v-7.994c3.31-.184,1.95.241,5.01-2v2c2.91,3.391,1.37,2.226,3,7.994,4.95,0.814,2.98-.668,5,3-3.01,1.284-2.25.628-4,3,3.57-1.415,3.84-1.538,8-1v2l-10,3v1q6.99-1.5,14-3v2l-9,3c2.45,2.532,1.22.541,2,3q-2.505,1-5,2v1l12-6v1c-1.33,2.331-2.67,4.663-4,6.994,2.67-1,5.33-2,8-3v5c-4.38.222-5.49,2.411-5,5q4-1.5,8-3c0.34,1.332.67,2.665,1,4-3.18.358-3.76,1.389-8,3v1l12-2v1c-3.71,6.717-5.77,11.784-14,13.989v1q9.495-2.5,19.01-5c0.66,1.332,1.33,2.665,2,4-5.36.668-8.19,4.332-13.01,7.994l11.01-3v4h-3c2.25,4.12,2.53,2.589,3,7-4.43-.866-12.11,3.7-20.01,2,7.75,8.73,20.2-3.556,31.01-5-0.6,4.076.37,2.253-1,4-4.01,6.95-13.44,11.153-20.01,16.987,12.4-3.565,16.04-11.367,25.01-15.988,1.38,6.139,2.44,4.272,3,7.994l9.01,1q-5.01-3.5-10.01-7v-5l20.01,7c-0.33-1-.67-2-1-3q-8.01-6.494-16.01-12.99v-1l14.01,2c-3.54-4.024-5.63-6.336-8-11.99q6.495,2,13,4l-9-10.992c5.11-2.9,10.84,2.946,17,2v-1q-5.505-2-11-4v-2c0.67-.666,1.33-1.332,2-2l6,1c-0.33-.666-0.67-1.332-1-2-3.29-1.641-3.19-2.03-5-5,4.41-.737,6.55.452,4-2,1.96-5.887,3.01-11.818,9-13.989,0.31,4.552.77,14.331,9.01,15.987q-2.01,3-4,6c4.95-.4,5.04-1.172,8,1q-6,4-12.01,7.994v1h3c5.3-2.662,7.9-4.681,16.01-5v1c-8.07,5.242-12.24,10.722-18.01,17.986l17.01-9.992q-1.995,5.994-4,11.99c4.44-1.994,8-4.061,11-2-1.82,3.745-2.97,3.706-6,6l10,1c-0.66-1-1.33-2-2-3,7.04,0.418,12.72,1.72,17.01-1q-5.505-1.5-11-3,2.49-2,5-4c-9.59-4.556-20.08-11.9-23.01-22.982l24.01,6-3-3c-3.57-7.779-11.36-12.5-14.01-19.985l16.01-1c-5.11-1.649-7.54-3.619-9.01-8.993l3-1c5.68,2.791,9.95,5.318,18.01,6l-3-4c-5.54-2.021-12.12-6.12-14-11.991q6.99,1,14,2l-9-11.991,15,4c-3.8-4.3-8.25-5.413-10-11.991h6l9,4c0.34-.666.67-1.332,1-2-4.03-2.23-8.07-2.722-11-6,0.33-.666.67-1.332,1-2l8,1c-0.33-.666-0.66-1.332-1-2-3.48-1.829-2.69-.843-4-5,6.36-2.654,4.43-12.107,11-16.987,1.25,9.238,2.9,12.392,9.01,17.986q-2.01,2.5-4,5l8-1c-2.19,6.663-6.61,5.989-11,9.992v1h1c5.3-3.12,12.01-6.947,17-2-7.14,2.069-15.54,9.978-19,15.987,8.39-2.393,9.82-8.249,19-9.992l-6,11.991,12-4v1q-4.995,7.494-10,14.989h5l9-4c-1.41,6.654-4.99,9.1-11,10.991v1l18.01-2-3,7.994-7.01,1c1.63,4.627,1.81,6.172,0,9.992q-3.99,2.5-8,5c11.6-.537,16.14-6.219,26.01-5v1c-4.46,5.662-11.57,8.447-14,15.988h1q6.99-1.5,14-3-4.005,2.5-8,5c2.07,4.542,4.06,5.51,3,10.992h-2l-22.01,4v2h18.01v1q-3,1-6.01,2c12.8-3.165,16.97-11.748,31.01-12.99q-0.99,4.5-2,8.993c-13.1,4.512-22.81,17.687-33.01,25.98,16.54-3.435,24.58-13.938,39.02-16.987-1.97,8.78-8.39,14.585-13.01,20.984l6,1q-2.49,1-5,2h5c-1.81,1.956-3.43,2.663-5,5,5.4-1.669,4.84-.148,15.01,0-0.44,4.189-.51,3.629,1,6.994,3.33,0.666,6.67,1.332,10,2-1.67-1.666-3.33-3.331-5-5-2.05-7.193-5.78-7.506-8-13.99l12,2q-3.495-3-7-6v-1h11c-2.83-3.662-5.39-4.844-7-9.992l9,2-6-8.993,12,3q-3.99-4-8-7.994l3-1c0.4-2.521,2.93-1.849,6-4l-3-3c1.34-1,2.67-2,4.01-3a9.73,9.73,0,0,1-1.01-1c0.97-5.008,1.31-8.245,6.01-9.993,0.99,8.789,5.93,10.678,3,16.987h10c-1.57,3.411-7.01,3.932-11,7l12-1c-2.91,2.527-5.08,3.258-7,6.994,2.67-1,5.33-2,8-3q-1.995,4.5-4,8.993h1l9-2c-2.24,4.14-6.25,3.676-8,10.991l9-3c0.34,1,.67,2,1,3-5.53,1.118-8.17,3.305-11,7l14.01-2q-5.505,8.991-11.01,17.986l11.01-3c0.08,9.594,1.92,13.643-1,22.982q-4.515,1.5-9.01,3v1l10.01-1v12.99c-1.66,2.4-2.96,3.126-5.01,5l5.01-1c-0.34,73.935,3.23,196.931.65,270.821-15.83,0-12.92-3.67-34.24-14.52-7.87-4.01-20.42-11.78-29.22-12.27-157.89-8.82-72.74-29.88-319.6-17.87-41.22,2.01-177.99,8.92-203.16,6.79-116.49-9.87-66.36,2.2-91.84,2.21-29.6.01-36.5-2.89-60-1.5-162.76,9.61,10.64-7.47-156,1.5-23.12,1.24-44.08-2.97-60-3-24.55-.05-28.76,5.59-74,5.5,61.17,0.66-194.54-8.02-186-2.84,26.89-8.89,45.11-33.21,66.02-43.97q10.005-2.49,20.01-5-3-1.485-6-2.99v-1c4.25-2.17,5.25-5.58,8-9-3.65-1.05-2.94-.81-5-2.99q1.995-4.5,4-9c-2.99-1.67-2.41-1.67-5-1.99q1.995-4.5,4-9c-4.87-1.41-4.94-1.86-6-6.99,1.33-.34,2.66-0.67,4-1h-2c-1-1.33-2-2.67-3-4v-1c3,0.67,6,1.33,9,2q-2.505-4.5-5-8.99,2.49,0.495,5,1c-1.33-1.67-2.67-3.33-4-5,1.66,0.33,3.33.67,5,1l-3-6c1.67,0.67,3.33,1.34,5,2a11.087,11.087,0,0,0-4-3.99v-1q3,0.495,6,1c-1.67-1-3.33-2-5-3h2q4.005-6,8-11.99c2,1.66,4,3.33,6,4.99v-1c0.16-1.75-.32-2.16,6.01-1.99-0.34-.67-0.67-1.34-1-2l-7.01-5c4.24-.29,2.12,1.15,3-3q4.005,1,8.01,2c-2-1.66-4-3.33-6-4.99,2.33-3.25,1.03-2.74,5-2-1.19-7.95.62-14.972,6-18.987,0.88,4.8-.39,5.386,3,6.994,2.25,2.6,1.14.653,4,2-1.79,4.53-2.1,9.16,4,10.99-0.74-5.78,1.6-6.38,1-12.993,1.34,0.333,2.67.663,4,1-1.75-5.509.19-9.5,5.01-11q2.49,5.5,5,11c-2.33,2.61-.46.97,3,2-1.3,7.05-.03,0,2,6.99-2.68.31-2.4-.38-5,2h8c-1.27-4.55-1.67-6.32,5-8-0.97,7.28,6.27,5.34,2,15.99,1.67-.33,3.34-0.66,5-1,0.83,3.47-1.16,1.27,2,3q-1.995,3-4,6c2.34-.34,4.67-0.67,7.01-1q-4,3.99-8.01,7.99c0.34,0.67.67,1.33,1,2h4c3.02-3.44,5.48-8.02,10.01-9.99l3,3.99c-0.67-1.33-1.33-2.66-2-3.99,4.46-4.38,3.12-11.85,11-14.99,2.78,12.4,4.28,12.95,10.01,19.98-2.34,1.33-4.67,2.67-7.01,4h15.01c-2.4-3.41-3.29-3.23-4-8.99h1c1.26,3.02-.02,1.19,2,2.99-0.26-5.11.9-2.94-1-8.99,2.88,0.61,1.63,2.67,3,0,3.03-4.3,3.18-8.62,7-9.99,2.42,8.17,3.63,9.6,10,13.99q-2.49-3-5-6c4.07-3.34,3.22-.86,3-7.99q2.505,0.99,5.01,2c-3.2-7.75,3.38-13.633,4-19.987h1c4.71,3.946,7.33,7.657,14,10q-6-6.5-12-13h1l12,4-6-4v-5l3,1c-2.33-1.665-4.67-3.331-7-5a19.067,19.067,0,0,1,12,1l-6-8.993h5l-3-3q2.505-1,5-2h-2c-1.94-3.035-.33-1.043-3-2,2.47-2.385,2.51-1.729,6-1-1.49-1.614-2.65-2.115-4-4l9,2c-2.29-2.372-4.21-2.893-6-6,6-.856,4.19-3.05,7.01-8.993,3.33,2.307,4,3.558,7,4v4c-2.24.051-.3-0.122-1,2h3q-2.01,2-4,4l6-1-3,4h5q-3.495,3.5-7,7,3.99-2,8-4v1c-1.67,1.666-3.33,3.331-5,5,2.33-.667,4.67-1.333,7-2q-2.5,4.5-5,8.993l12-2c0.86-6.36,1.36-5.322,0-10.992q3,0.5,6.01,1c0.33,1.333.66,2.665,1,4,0.33-1.332.66-2.664,1-4,0.1,7.789,1.55,7.67,0,11.991h10c-1.33-.666-2.67-1.332-4-2,4.03-4.1,6.36-5,7-12.99,5.21,2.6,14.22,16.812,23.01,8.993-4.82,1.2-6.43.139-10.01-2q-0.99-3.5-2-6.994c5.74-2.3,1.01-1.929-1-7.994h1q4.5,2,9.01,4-2.5-5.5-5-10.992l8,1-6-7,6,2-3-4c0.33-.333.66-0.667,1-1l3,2c-0.34-1.665-.67-3.331-1-5-2.87-.448-1.59,1.066-4-2l10,3q-3.495-4-7-7.994c0.33-.333.66-0.666,1-1l3,1-3-3c7.27-1.431,5.26-4.733,9-8.993,1.33,0.666,2.67,1.333,4,2-0.07,9.506,2.36,7.533,7,10.991-0.33.666-.66,1.333-1,2l-6,3q4.005-1,8-2v1q-1.995,2-4,4h6.01c-1,1-2.01,2-3.01,3q-1.995,2.5-4,5l8.01-4v1l-5.01,6h1l5.01-2c0.66,0.666,1.33,1.332,2,2q-2.5,4.5-5,8.993l13-1c-1.37,2.662-9.42,7.259-14.01,8.993l2.01,4-5.01,1,21.01-3v1c-1.67,2-3.33,4-5,6l-14.01,5c3.06,0.376,8.81.261,7.01,3q6.5-3,13-6c0.67,0.666,1.34,1.332,2,2q-3.495,4-7,7.994c-2.33,1.665-4.67,3.331-7,5,11.59-3.558,17.97-.7,26.01,3l-5.01-3v-6l5.01-1c-1.08-1.849,1.68-12.215,7-13.989,0.05,9.065,6.93,11.5,8,10.991-1.38,1.677-2.29,1.752-4,3,5.61,1.786,1.74,1.919,6,5-1.33.666-2.67,1.332-4,2,1.33,0.666,2.67,1.333,4,2l-3,3c4.61-.007,3.02-0.928,6,1q-2.49,3.5-5,6.99,4.5-.99,9-2v1c-1,1.33-2,2.67-3,4-1,.66-2,1.33-3,2,1.34-.34,2.67-0.67,4-1v4.99c-2.6,1.4-3.33,1.61-5,4q6-2,12.01-4v1l-8.01,9q4.5-1.5,9.01-3c-0.48-1.69,4.63-15.54,10-21.98,3.12,2.67,2.94,3.41,6,3.99-0.67,1.33-1.33,2.67-2,4,1.67,0.33,3.34.67,5,1q-0.99-3.495-2-7c3.3,0.4,1.03.14,6-1.99-1.99-2.047-1.59-.79-3-4,4.8-.651,4.49-0.87,4-7l3,1q3.51,4.5,7.01,9c-1.67.33-3.34,0.66-5,1v1l6,0.99c-0.67,1-1.34,2-2,3q2.49-.99,5-2c0.46,4.39,1.8,4.22,5,8-1.27.61-2.02,0.02-1,1,1.05,1.96-.48,2.95,3,1.99C1799.16,1021.76,1799.89,1019.99,1800.15,1028.75Zm487.16-244.8,2,1Zm-87.03,28.977c2.37,1.68,1.99,1.9,5.01,1Zm9.01,1,3,1Zm58.02,0,1,2Zm-217.08,10.991,5.01,3Zm14.01,0c-1.72,1.23-2.62,1.328-4,3,2.33-1,4.67-2,7-3h-3Zm462.15,9.992,6.01,2Zm-451.15,7h0Zm322.11,2-6,3v1l15-2v-1Zm14.01,2c-1,1.665-2.01,3.331-3.01,5,2.34-1.332,4.67-2.665,7.01-4C2414.02,846.563,2412.69,846.23,2411.36,845.9Zm-8.01,10.991,3,3c1-.333,2-0.666,3.01-1Q2406.345,857.888,2403.35,856.888Zm-76.02,2,5,2Zm-5,1q-7.515,2-15.01,4l18.01-1C2323.73,860.187,2324.99,861.507,2322.33,859.886Zm-295.1,5q-2.01,1-4,2v1l13,2Zm365.12,3,2,1Zm94.03,0,2,1Zm-239.08,1-3,1v2h21.01Q2256.31,870.377,2247.3,868.879Zm-121.04,1,2,1Zm348.12,0,3,2Zm-4,1q-5.01,1.5-10.01,3c0.34,0.666.67,1.332,1,2l13.01-1v-1C2469.59,872.442,2474.38,872.861,2470.38,870.877Zm-303.11,4h0Zm69.03,0-12.01,3c6.17,0.359,9.65-.51,12.01,4-3.81.655-4.84,1.049-7.01,3q7.515-3,15.01-6Q2240.3,876.873,2236.3,874.874Zm-211.07,4c3.87,2.639,6,2.395,10,5-0.67-1-1.33-2-2-3,5.3,0.994,8.65,2.37,12,0Zm476.16,2-5.01,5,8.01-2Zm-250.09,1c-0.33.666-.67,1.332-1,2,5.27,2.577,11.87,8.5,19.01,6q-5.01-1.5-10.01-3c1-.666,2.01-1.332,3.01-2Zm253.09,3c1.39,1.921.1,0.6,2,2C2505.72,886.2,2505.05,885.533,2504.39,884.867Zm-257.09,1c-2.84,3.548-7.19,4.475-11,6.994h15c-0.33-.666-0.67-1.332-1-2v-4Zm75.03,0c-0.34.666-.67,1.332-1,2C2322.81,886.2,2322.91,888.022,2322.33,885.866Zm-215.08,2c-9.34,12.549-14.79,10.1-27.01,17.986,12.47,0.2,21.43-1.41,31.01-3l2.01,3-6.01,2v2c5.98-.592,5.34-0.713,12.01,0l-6-2c1.11-2.833.86-1.453,1-4-5.28-1.84-10.52-6.366-11.01-7.994,0.67-.666,1.34-1.332,2-2q6,2,12.01,4C2113.99,894.388,2111.36,890.555,2107.25,887.864Zm405.14,5,3,2Zm-432.15,3,2.01,1Zm425.15,1c-0.67.333-1.34,0.666-2,1,1.33,0.333,2.66.667,4,1C2506.72,898.19,2506.05,897.523,2505.39,896.857Zm-355.12,3c-0.34.666-.67,1.332-1,2h2C2150.93,901.187,2150.6,900.521,2150.27,899.855Zm82.03,2h0Zm-206.07,2c-0.34.666-.67,1.332-1,2h17Zm126.04,0c1.33,1,2.67,2,4,3l-3,3,6-3C2156.94,905.85,2154.6,904.851,2152.27,903.852Zm-272.09,3c2.66,5.167,10.54,2.778,14,0h-14Zm618.2,1,2.01,1Zm-503.16,1c-0.34.666-.67,1.332-1,2l3-2h-2Zm103.03,3-12,3,18-1h-2C2100.92,913.178,2099.58,912.512,2098.25,911.846Zm-218.07,1v3c5.18,1.739,10.12,1.86,16,1v-1C1885.71,916.847,1884.68,913.741,1880.18,912.845Zm109.03,0q-3.495,1-7,2v1h6c-0.33.667-.66,1.333-1,2l-7,2h11c0.57,4.433-2.01,2.026,2.01,4,4.46,1.441,10.7,1.292,14-1-4.95,1.091-10.86,1.183-15-1l3-2c-2-1-4.01-2-6.01-3v-1c7.39,0.334,13.08-.119,17.01-3h-17.01Zm169.06,0c-3.12,4.046-2.87,3.643-8,6.994v1h1c4.6-1.8,9.4-6.6,11-7Zm-78.03,1,4.01,1Zm-171.05,1,3,1Zm203.07,2c0.33,0.666.66,1.332,1,2q1.995-1,4-2h-5Zm53.01,0-6,6.994v1c4.55-.561,5.02-1.258,8,1-0.66.333-1.33,0.666-2,1h2l4.01,1c-0.46-2.481-2.01-3.986,1-3-1.92-3.128-4.37-3.769-7.01-6l3-2h-3Zm-57.02,2c1.79,3.58-.53,1.183,3,3v-1h-2C2108.92,920.173,2108.59,919.506,2108.25,918.84Zm140.05,2,3,1Zm-157.05,4-6,4q6.99-1.5,14-3v-1h-8Zm-197.07,5-11,3c1.67,0.666,3.33,1.333,5,2C1889.17,933.608,1896.43,930.519,1894.18,929.832Zm195.07,0c-0.34.666-.67,1.332-1,2q1.995-1,4-2h-3Zm-5,2,3,1Zm468.15,1c2.53,2.2.44,1.083,5,1v-1h-5Zm-559.18,1q-7.515,1.5-15.01,3c0.67,1,1.33,2,2,3h15.01c0.66-.666,1.33-1.332,2-2C1991.94,935.791,1996.11,935.285,1993.22,933.829Zm158.05,2,3,1Zm-152.05,3c2.58,2.592,4.75,1.9,7,0h-7Zm88.03,1,2,1Zm4,0,2,1Zm-61.02,1h0Zm-80.03,4v3h8Q1954.21,946.32,1950.2,944.82Zm164.06,0,2,1Zm-165.06,4c0.33,0.666.67,1.332,1,2-5.23,4.019-6.86,3.595-7,7.994l-6-1c0.66,1,1.33,2,2,3-13.26-.041-16.59-2.359-22.01,3,0.33,0.333.67,0.667,1,1h5l-3,2c5.57,0.976,4.18-.3,4,4q6.51-2,13.01-4l-3,5,13-4c0.77,4.252-1.67,2.22,3,4l4,1c0.67-.666,1.34-1.332,2-2-3.95-4.358-9.29-7.473-11-13.989,0.33-1,.67-2,1-3,6.28,0.131,2.99.265,8-3Q1951.71,949.816,1949.2,948.817Zm39.01,3-3,1v1q2.505-1,5-2h-2Zm2,16.986-3,2v1c7.46,0.584,10.83,1.2,15.01-3-4.95,2.234-8.06,1.886-10,0h-2.01Zm-47.01,6-3,1v1C1943.8,976.609,1944.64,976.734,1943.2,974.8Zm-287.1,4c-0.33,1-.66,2-1,3,2.04-1.8.71-.015,2-3h-1Zm3,2c1.77,4.784,3.08,5.462,8.01,7Zm286.1,0,3,1Zm-304.1,1-3,4c3.81-2.167,4.12-1.827,4-3C1641.76,982.458,1641.43,982.124,1641.1,981.791Zm-18.01,1q-3.495,3-7,5.995c-0.09,2.462.82,0.751-2,3,5.3-.394,7.37-1.141,10-4-2.7-1.6-1.38-.34-3-3,1.67,0.333,3.34.666,5,1Zm18.01,4,6,3Zm278.09,0h0Zm-281.09,3c-0.34.666-.67,1.332-1,2h3C1639.43,991.117,1638.76,990.451,1638.1,989.785Zm76.02,6q-6,3-12,6,9.5-1,19-2l-3-4h-4Zm-96.03,2c1.93,3.021.2,1.617,4,3C1620.76,999.777,1619.42,998.778,1618.09,997.779Zm239.08,0c-0.67.333-1.33,0.666-2,1h8Zm78.03,2c-1.35,1.893-2.51,2.373-4.01,3.993l11.01-.99Q1938.69,1001.28,1935.2,999.777Zm-84.03,1,2,1Zm-374.13,1,1,1.99Zm239.08,1.99q-10,4.005-20,8c5.94,0.34,10.63-.44,15,1q-5.5,3.99-11,7.99v1c3-.67,6-1.33,9-2-0.67-1-1.33-2-2-3,6.48,0.92,9.17.36,14-1.99-2.98-3.02-5.62-4.14-8-8v-1q4.005,1.005,8,2c-0.33-1.33-.66-2.66-1-4h-4Zm-127.04,3c2.14,2.26,3.85,2.37,7,1C1593.75,1007.44,1591.41,1007.1,1589.08,1006.77Zm237.08,0v0Zm-189.06,1,4,2Zm135.04,5,2,1Zm2,2c0.67,0.66,1.34,1.33,2,1.99C1774.75,1014.84,1776.04,1016.17,1774.14,1014.77Zm-301.1.99,2,1Zm359.12,0,2,1Zm-340.11,1,3,2Zm349.11,0c-5.7,2.53-9.23,2.86-13,7,3-.33,6-0.67,9-1-1,.67-2,1.33-3,2,1.67,0.33,3.34.66,5,1-1.33,1.66-2.66,3.33-4,4.99h3c2.28-1.61,1.77-1.81,5.01-2.99,0.66-2.67,1.33-5.33,2-8h-5.01c0.34-.66.67-1.33,1-2,0.67-.33,1.34-0.66,2.01-1h-2.01Zm14.01,1c-2.19,1.96-3.2,2.28-7,3,0.33,0.67.66,1.33,1,2,3-.33,6-0.67,9-1-3.65-.91-2.05.04-4-2h2c0.33-.66.67-1.33,1-2h-2Zm-139.05,6c-0.66,1-1.33,2-2,3,2.07,2.21,1.38,1.88,5,2.99-1-.99-2-1.99-3-2.99q3-1.005,6-2Q1719.12,1024.25,1716.12,1023.76Zm41.02,1c1.39,1.92.1,0.6,2,2Zm94.03,0,2,1Zm-282.1,3,3,0.99Zm187.07,1.99q-7.005,2.01-14.01,4v1c7.08-.63,8.82-1.6,16.01-1C1757.47,1032.42,1756.8,1031.09,1756.14,1029.75Zm-307.11,2c-0.33,1-.66,2-1,3,5.2,0.79,3.74,2.52,10.01,5Q1453.54,1035.745,1449.03,1031.75Zm98.04,5-6.01,4.99q5.01-1.485,10.01-2.99C1549.73,1038.08,1548.4,1037.41,1547.07,1036.75Zm-31.01,1c-2,1-4.01,2-6.01,3v0.99h6.01v-3.99Zm53.01,3,2,0.99Zm237.08,0c-0.33.66-.66,1.33-1,1.99h2C1806.82,1042.08,1806.49,1041.41,1806.15,1040.75Zm-259.08.99,6,3C1550.78,1042.31,1551.47,1042.57,1547.07,1041.74Zm261.08,3h0Zm-54.01,1,2,1Zm-204.07,4,2,2Zm288.09,0,2,1Zm-295.1,3c-0.66.33-1.33,0.66-2,1v0.99c1.34-.66,2.67-1.33,4.01-1.99h-2.01Zm3.01,1.99,3,1Zm201.06,2,2,1Zm63.02,4,4.01,1Z"/>
</svg>
