<svg xmlns="http://www.w3.org/2000/svg">
 
  <path id="boulder-1" d="M286.181,696.473c-0.149,4.36-2.7,8.336-4.366,11.632-1.13,2.236-6.512,15.788-6.307,16.2-2.947,4.493-7.116,9.836-8.733,14.126h0.97c1.926-1.154,3.443-1.165,5.822-1.246,0.194,10.143-7.593,13.3-12.129,19.111v1.246c-1.246,1.35-2.818,1.155-3.4,3.324,3.93-.042,5.744-0.808,10.188-0.831V761.7c-2.131,1.2-12.246,12.089-13.1,14.125H256.1a57.362,57.362,0,0,1,8.247-.831c0.066,4.157-8.013,14.376-11.158,15.372a6.022,6.022,0,0,1-2.911.416c-1.123-3.413-3.793-7.323-5.822-10.387,0.216-2.74-1.875-7.637-3.4-10.386-1.089-1.967-.621-5.409-1.456-7.478l-1.455-.416v0.416c-1.962,2.788-2.52,9.06-4.852,12.879-1.9,3.1-5.794,6.86-6.307,10.8h2.426v0.831a19.455,19.455,0,0,0-3.4,4.57,1.3,1.3,0,0,1-.485-0.416c-1.084-.928-1.442-2.292-2.426-3.323,0.453-1.249.986-.684,0.485-1.662-1.083-2.148-4.246-3.549-5.337-5.4v-2.077c-2.9-6-5.215-12.429-5.336-20.358h1.94v-0.831c-3.492-2.4-3.858-5.688-5.822-9.555-4.255-8.379-10.657-21.825-10.673-33.653h-1.456c-0.294,6.5-5.778,15.135-8.247,19.942-0.849,1.652-.118,2.5-0.971,4.155-0.867,1.679-2.947,3.744-3.881,5.4q0.243,0.415.485,0.831c-0.948,1.366-2.331,1.717-2.911,3.739,2.389-.2,2.6-0.731,5.337-0.831,0.113,9.473-9.864,12.4-11.644,18.7,3.1-.029,3.523-0.657,6.307-0.831v2.908c-1.28.492-9.618,8.977-10.188,10.387h2.911c0.877-.875,1.416-0.832,3.4-0.831v0.415h0.485c-0.519,1.4.032,3.544-.97,5.4-1.328,2.462-4.37,3.4-5.337,6.647h1.456c-0.136,2.256-.783,2.319-0.971,4.571-2.022,1.12-8.411,6.837-9.218,8.724h1.941c1.326-1.253,4.016-1.594,6.792-1.662v0.831c-0.859.889-.682,1.813-1.455,2.909-2.349,3.327-8.067,5.691-9.7,9.555a1.3,1.3,0,0,1,.485.416,33.545,33.545,0,0,1,9.218-1.247v0.416h0.485c-1.335,2.726-4.135,4.171-4.852,7.062,1.551-.106,1.549-0.413,2.426,0a3.174,3.174,0,0,1,.485,2.078c-1.511,1.087-4.353,4.041-4.851,5.816-6.5-.078-8.419-4.122-15.04-4.57v-2.077c0.989-.425,2.326-0.792,2.911-1.662-1.223-.608-0.887-0.521-0.971-2.077a2.6,2.6,0,0,0,1.456-.416,1.286,1.286,0,0,0,.485-0.415c-2.506-1.4-6.639-5.973-7.277-8.725-0.122-.4-0.381-0.157,0-0.415,0.9-.6,1.3-0.3,1.94-1.247-1.752-.62-2.972-3.085-2.911-6.232,1.476,0.031,1.332.314,1.941,0a2.506,2.506,0,0,0,.485-1.661c-5.223-3.454-6.363-16.686-9.218-22.851h-0.97c-0.127,3.853-5.585,10.022-4.367,12.464-1.188,1.858-4.085,4.023-3.4,6.232,1.071-.215.963-0.469,1.941,0a3.173,3.173,0,0,1,.485,2.077c-1.461,1.065-6.127,7.1-6.792,8.725h2.911v2.493c-1.649.965-5.645,5.154-6.792,6.647a7.794,7.794,0,0,0-1.941-.415c-0.526-2.471-1.823-2.662-1.941-5.817h2.911v-0.831c-3.713-2.855-6.314-13.661-8.247-18.28-1.08-2.579.434-4.927-1.941-6.232v0.416c-2.021,2.749-.9,6.078-2.911,9.14-1.842,2.8-4.645,6.377-5.822,9.555h2.911c0.125,4.152-5.063,11.467-9.7,11.633-4.1-1.95-16.328-1.92-19.406-5.816a9.052,9.052,0,0,1-2.426-5.817h2.911c-0.4-2.862-2.808-4.473-3.881-6.647-0.873-1.768-.083-2.647-0.485-3.739-1.393-3.786-3.689-7.577-3.881-12.464a10.977,10.977,0,0,0-2.426-.831c-0.078,5.2-3.788,10.41-5.822,14.541-2.035.739-2.974,1.862-4.852,2.493-0.477-1.26-.954-1.242-1.455-2.493H51.85v-0.415h1.456c-0.75-5-6.752-6.149-7.277-11.633a11.114,11.114,0,0,0,2.911,0,1.442,1.442,0,0,0,.485-0.831c-1.107-.818-1.038-1.888-0.97-3.739h2.911v-0.831c-1.755-1.276-.579-2.669,0-4.155-2.486-.664-6.287-5.885-6.307-8.309,0.057-.535.492-0.518,0.97-1.662-1.578-.817-2.821-4.179-2.911-6.232h2.911c-0.5-2.754-2.8-4.517-3.881-6.647V747.99c-0.223-.454-1.743-2.039-1.941-2.493l0.485-1.662-0.97-.415c-1.233-2.885-.675-7.662-2.426-9.972a2.753,2.753,0,0,0-1.456-.415v0.415H35.355c-0.416,5.955-4.8,8-5.337,13.711H27.107c-1.3-1.576-2.318-1.328-2.426-4.155,1.118-.559.884-0.507,0.97-0.831-1.993-2.735-5.8-5-6.307-8.725h1.941v-0.83c-2.134-1.224-3.409-4.09-3.881-6.648a10.212,10.212,0,0,1,2.911-.415c-0.4-3.935-3.828-7.781-5.337-11.218-1.893-4.313-1.809-5.961-3.4-12.048-0.485-.139-0.485-1.939-0.97-2.077,0,0.138-.97,3.185-0.97,3.323a23.244,23.244,0,0,0-.97,2.909c-1.138,1.528-1.062,3.282-1.941,4.985,0,0.692-1.455,2.216-1.455,2.908-0.956,1.509-2.449,2.4-2.911,4.57H2.849v0.416H4.3c0.173,4.41-2.151,8.523-6.307,9.14,0.1,176.711,0,357.017,0,535.117H899.42c10.693,0,23.693,1.18,33.476-.42v-2.08c-8.081-4.53-14.6-12.13-20.377-18.69-5.8-6.6-13.883-11.82-20.376-17.87-6.115-5.69-12.073-11.17-18.436-16.62l-5.822-5.4c-14.919-9.53-29.249-19.43-47.546-26.17q-8-2.28-16.01-4.57H792.685c-0.806-.25-1.849-1.25-2.911-1.66a2.469,2.469,0,0,0,.971-1.66c-3.871-1.34-11.814-6.85-12.614-10.39h1.94c-0.11-2.58-1.061-4.14-1.455-6.65h2.426c-0.558-5.73-6.132-10.45-7.763-15.79,0.162-1.24.323-2.49,0.485-3.74-0.862-2.66-3.542-6.11-4.851-8.72-3.054-6.09-3.194-12.73-5.822-19.11h-1.456c-0.85,5.59-4.043,11.67-6.792,16.2-1.481,2.44-3.56,4.01-3.881,7.48,2.1-.31,2.181-0.92,4.366-1.25-0.306,2.43-2.281,5.31-4.851,5.82a19.63,19.63,0,0,0-4.367-4.15v-0.42h0.971a3.7,3.7,0,0,0,1.94.83v-2.08a9.973,9.973,0,0,1-3.881-6.23h0.97c0.983,0.88,1.428,1.1,3.4,1.25-0.39-4.13-4.189-6.76-5.821-9.97a57.251,57.251,0,0,1-5.337-19.94h-1.456c-2.66,4.51-4.929,10.09-7.277,14.54-0.977,1.85-.913,4.43-2.911,5.4-0.828-1.49-2.193-1.63-2.911-3.33h0.97c0.784,0.97.709,0.98,2.426,1.25-0.65-2.94-3.418-4.65-4.366-7.89h1.455a5.521,5.521,0,0,0,3.4,1.24c-0.394-3.39-3.88-5.79-5.337-8.72-2.873-5.78-4.278-12.15-6.306-18.7H714.09c-0.181,4.41-4.105,11.98-6.307,15.37-1.346,2.08-4.053,3.24-4.852,5.82,1.6-.2,4.1-1.61,4.367-1.25,0.6,0.66.311,0.22,0,.84-1.347,4.99-6.678,6.67-7.763,11.21a1.307,1.307,0,0,1,.485.42c1.294-.42,2.588-0.83,3.882-1.25v1.25c-1.359,1.17-6.444,5.65-6.793,7.06,1.941-.28,3.882-0.55,5.822-0.83v0.83c-2.082,1.69-5.322,5.09-6.307,7.48a16.981,16.981,0,0,1,3.4,0c-2.373,2.16-3.771,5.04-7.762,5.82-1.243-1.66-2.889-2.67-3.4-4.99h0.485c1.092,1.54,1.942,2.4,4.851,2.49v-0.83a5.652,5.652,0,0,1-3.4-5.4,7.736,7.736,0,0,1,1.941-.41c1.121,0.94,2.11,1.19,4.366,1.24V1119a5.42,5.42,0,0,1-3.881-2.91h1.941a2.722,2.722,0,0,0,1.455.41v-1.24a30.047,30.047,0,0,1-9.218-9.97h0.971c0.85,1.04.891,1.09,2.911,1.24-0.786-3.34-4.014-3.76-4.367-7.89h0.485a2.862,2.862,0,0,0,2.911.83,3.189,3.189,0,0,0,.485-2.08c-6.224-4.25-10.531-21.86-10.673-31.57h-1.456c-0.674,8.58-4.286,16.32-8.247,22.43-1.109,1.71-3.034,2.88-3.882,4.99h0.486v0.41c1.455-.41,2.911-0.83,4.366-1.24v1.24c-1.533,1.41-1.747,3.19-2.911,4.99-1.376,2.12-4.307,3.38-5.337,5.81h2.426c0.761-.76.428-0.58,1.941-0.83v0.83c-1,.46-6.49,6.06-6.792,7.07l5.821-.42v1.25c-2.514,1.79-1.716,3.37-6.792,3.32-2.164-1.64-5.617-1.61-6.307-4.57a1.379,1.379,0,0,0,.485-0.41,9.354,9.354,0,0,1,2.911.41v-1.66c-4.744-3.3-7.1-21.12-8.732-28.25h-1.456c-1.054,1.74-1.918,3.96-2.911,5.81h-0.485c-0.613-3.27-3.8-6.09-5.337-8.72-2.168-3.71-3.4-8.6-4.851-12.46-0.833-2.22.083-5.53-1.941-6.65-0.162.28-.323,0.55-0.485,0.83-3.194,4.45-3.3,14.42-8.733,16.62v-0.42c-0.49-.68,0-1.88-0.485-2.91-1.146-2.43-3.826-5.21-4.852-7.89-0.842-2.2-.893-5.42-1.455-7.06-1.092-3.19.391-5.73-1.456-7.9a2.718,2.718,0,0,0-1.455-.41c-0.786,1.1-.364,1.01-1.456.83a14.371,14.371,0,0,1-2.911-4.57h0.971a3.778,3.778,0,0,0,1.94.42c-0.572-2.9-2.954-4.27-3.881-7.07h2.911c-0.54-3.38-3.454-6.66-4.851-9.55-2.9-6.01-3.22-12.38-5.822-18.7a1.719,1.719,0,0,0-.971.42c-2.067,2.11-1.914,6.18-3.4,8.72-2.142,3.67-7.612,9.54-8.247,13.71h1.94a2.75,2.75,0,0,1,2.426-1.66c-0.908,4.77-6,7.85-8.733,11.22-0.4.49-.742,0.55,0,0.83,0.82,0.47,2.376.44,3.881,0.41a2.907,2.907,0,0,1,.971-0.83v0.83c-1.48,1.22-6.389,6.2-6.793,7.9h5.337v0.41c-2.074,1.12-5.291,3.44-5.822,5.82,0.809,0.14,1.618.28,2.426,0.41v0.84c-2.656,1.44-6.712,4.3-7.762,7.06h0.485a4.805,4.805,0,0,0,2.426.41,7.164,7.164,0,0,1,3.881-1.66v0.42c-3.26,2.31-2.851,6.94-8.733,7.06-1.738-1.85-4.067-2.25-6.792-3.32-2.367-.94-13.552-5.57-14.555-7.07-0.807-1.2-.234-2.16-0.97-3.32-0.948-1.49-2.681-2.25-3.4-4.15,1.737-.18,1.22.19,1.94-0.84a8.082,8.082,0,0,1-2.911-6.23h1.941v-0.83c-2.843-1.43-2.486-4.7-3.881-7.48a87.863,87.863,0,0,1-6.793-19.11h-1.455a1.307,1.307,0,0,1-.485.42c-0.331,5.18-3.122,11.27-5.822,14.95-1.418,1.94-3.858,3.54-4.852,5.82h0.486a6.009,6.009,0,0,0,2.91.42,2.7,2.7,0,0,1,.971-0.83v1.66c-1.96,1.84-2.318,4.41-5.822,4.98-3.022-4.98-15.068-3.8-15.525-10.8a2.812,2.812,0,0,1-.97-1.66c0.97,0.14,1.94.28,2.91,0.41v-1.66c-3.245-2.43-3.277-6.84-4.851-10.8-2.2-5.54-5.21-11.04-5.337-18.28H497.71c-0.2,7.47-4.305,12.37-7.278,17.45l-0.97-.42c-0.9-1.56-1.868-2.58-2.426-4.57h0.971c0.827,0.92,1.174,1.04,2.911,1.25-0.533-2.52-2.117-3.48-2.426-6.65,1.455,0.28,2.911.56,4.366,0.83-0.418-1.99-1.85-2.69-2.911-4.15h0.485v-0.42l2.911,0.42c-0.566-3.53-4.768-7.91-7.762-9.56v-0.412c1.737-.173,1.221.2,1.941-0.83a8.063,8.063,0,0,1-3.4-6.232c2.123,0.157,1.993.534,3.882,0.831-0.375-3.064-3.121-4.342-4.367-6.648-2.585-4.785-6.053-15.453-6.307-21.6a8.553,8.553,0,0,0-1.94-1.246c-2.726,4.3-3.293,10.076-5.822,14.541-1.463,2.582-4.809,4.547-5.337,7.894,2.406-.166,3.142-0.929,4.852-1.662v1.246c-2.07,2.438-2.649,5.594-4.852,7.894-1.171,1.222-3.011,1.784-3.881,3.324h3.4c0.042-.041.637-1.2,0.97-0.831v0.415a2.509,2.509,0,0,1,.485,1.662c-2.5,1.449-4.735,4.338-6.792,6.228a1.794,1.794,0,0,1-.97-0.41,2.629,2.629,0,0,1-1.941-2.08h2.426c-0.478-2.468-2.173-4.127-2.911-6.646,1.379,0.133,1,.439,1.941,0h0.485v-0.416c-4.721-2.795-10.967-17.309-11.159-24.1h-1.455c-0.066,8.4-8.962,12.161-9.7,18.7,2.369-.088,2.413-0.521,4.366-0.831-1.052,5.062-7.354,7.406-8.248,10.8h0.485v0.412a34.027,34.027,0,0,1,4.367,0c-0.162.42-.324,0.83-0.485,1.25-1.752.52-4.8,0.45-7.278,0.42V1001c-1.558-2.185-.571-5.017-1.455-7.889-0.854-2.774-2.58-5.85-3.881-8.725l-1.456-.415v0.415c-2.523,2.867-4.569,8.61-6.307,12.049h-0.97c-1.817-2.367-5.572-4.449-6.307-7.479h0.485c1.08,1.2,2.26,1.293,4.851,1.247v-1.247c-2.015-.969-7.463-6.393-8.247-8.309H404.56v-0.415h2.911a5.778,5.778,0,0,0,4.851,2.493q0.243-.416.485-0.831a25.486,25.486,0,0,1-10.673-10.8h1.455A7.735,7.735,0,0,0,407.956,974v-2.493a8.7,8.7,0,0,1-2.911-3.324h0.485v-0.415c2.194,0.109,4.5.341,5.337-.831-2.013-.79-3.453-1.528-3.882-3.739H409.9v-0.831c-2.685-1.84-3.437-5.376-5.822-7.478,0.369-1.094.582-.991,0.971-2.078a8.594,8.594,0,0,1-3.4-4.57c-0.122-.4-0.381-0.157,0-0.415a7.4,7.4,0,0,1,3.4-.416c-0.523-3.128-3.929-4.875-5.337-7.478-2.275-4.205-3.733-9.562-5.337-13.71-1.038-2.686-.391-7.376-2.911-8.725v0.416c-3.365,3.8-3.368,9.55-5.822,14.125-1.643,3.066-5.73,5.041-6.307,8.725h3.882v0.831c-2.679,1.52-6.4,5.854-6.793,9.14a17.322,17.322,0,0,1,3.4,0H380.3c-1.541,2.249-4.3,4.206-5.337,6.648h0.485c1.462,0.835,3.483.168,5.337,0v0.83c-1.373,1.114-6.41,5.615-6.792,7.063a6.015,6.015,0,0,0,3.4-.831v1.247c-3.174,2.209-4.267,5.312-8.248,7.063V974a13.653,13.653,0,0,0,6.307-1.662v0.831c-2.152,1.715-4.92,3.931-6.307,6.232h-0.97c0.063-1.987.09-2.668-1.456-3.324v0.416c-2.648,1.893-1.869,7.249-4.851,8.724a1.3,1.3,0,0,1-.485.416c0.139-5.561-2.27-10.278-4.367-14.541h-1.455c-0.82,4.289-4.69,6.761-5.337,11.217-1.638-.041-11.1-1.377-12.129-2.077-1.719-1.53-5.7-14.071-5.822-17.034,3.127-2.122,4.9-5.933,7.277-8.725,1.983-2.326,5.342-4.225,7.278-6.647,3.945-4.937,7.156-9.647,11.158-14.541,2.256-2.759,7.963-6.529,8.248-10.387-0.334-.468-0.09-7.529.485-9.14,2.774-7.763,1.633-18.525,4.852-26.174,1.578-3.75-4.622-14.381-5.822-17.034-0.393-.869.674-1.284,0.485-1.662l-1.455-.83c0.068-.512.89-0.76,0.485-1.662-2.647-5.892-6.129-13.126-9.218-17.45v-1.661c-0.591-.826-4.031-4.977-4.852-5.4-4.3-2.228-12.14-1.713-18.921-1.662-1.931-2.676-4.683-4.1-4.851-8.31h2.911c-0.407-1.633-.941-2.221-0.971-4.57a1.286,1.286,0,0,0,.485-0.415c1.071,0.215.963,0.469,1.941,0a1.443,1.443,0,0,0,.485-0.831c-1.223-.608-0.887-0.521-0.97-2.077h1.94v-0.831c-2.34-1.284-7.133-6.5-7.277-9.556,2-1.113-.739-4.431-0.97-7.063h1.941c-0.142-3.4-2.55-5.544-3.882-7.893v-3.739l-1.94-1.247a17.284,17.284,0,0,0-1.456-4.985c-0.425-1,.437-2.574.485-2.909,0.124-.858-1.341-3.808-1.94-4.57-0.5-.3-1.74-0.035-2.426-0.415-2.055-1.139-12.417-15.081-13.1-17.865H305.1a5.64,5.64,0,0,0,2.426,1.247v-1.247c-1.953-1.437-6.252-9.527-6.307-13.71,2.9-.056,4,0.566,7.278,1.662v-1.247c-1.931-1.485-2.135-3.686-3.4-5.816-3.234-5.463-6.362-11.8-9.218-17.865v-2.493c-0.228-.5-1.71-2.407-1.94-2.908v-2.908c-1.221-2.723-3.9-7.566-3.4-9.556,0.026-.105-1.761-10.06-1.941-10.386C288.187,696.957,287.393,696.744,286.181,696.473Z"/>
  <path id="boulder-1-1" d="M133.953,867.421l-78.6,31.325L-1.494,887.74c0.3,95.9.186,94.53,0.494,374.21,190.267-.52,166.656-0.42,190.813-0.42H741.982c-22.641-37.85-240-97.08-300.554-121.07-50.051-19.83-86.41-57.04-129.021-83.82-36.193-22.74-94.076-39.18-119.628-70.691C165.965,952.887,159.408,900.471,133.953,867.421Z"/>
</svg>
