<svg xmlns="http://www.w3.org/2000/svg">

  <path id="mountain-5" d="M2560,553V907c-46.37.974-11.41-.64-684,0,11.19-1.242.98-4.447,26-8,41.66-5.916,25.63-22.641-53.91-23H1677.11v-2c1.33-2,7.56-5,8.89-7-64.73-14.685-147.06,8.975-214.87-2v-4q5.5-3,11-6l-44.99,1,9,5-122.99,16v1h73.99q14.5,5.5,29,11c16.66,1.333,27.2,2.667,43.86,4-7.5.167,14,2.333,14,3-96.64,4.666-201.19,8.334-297.83,13,17.33,2.666,28.5,5.334,45.83,8,0.33,1,10.67,2,11,3,0,0.333-3.84.667-3.84,1l-223.97,5c-32.129,4.646-76.376,6.476-107.988,1-28.887-5-157.146-24.112-183.2-12-5.168,6.167,6.239,6.333,15.072,11,0.667,6,33.264,4,50.93,14-540.006.133-409.578-.3-789-1-1-.333.311-155.667-0.688-156,0.041-69.117,0-68.562,0-69C0.062,614.943.1,714.057,0,603c51.493,6.406,25.044,1.025,88,12,48.063,7,46.667,7.667,65,9,33.481,4.1,32.9,4.7,52.287,16,23.3,13.581,84.673,49.51,115.986,55l46.994-2c71.77,11.929,128.094,2.653,194.977-11l130.984,20,174.978,49,60.993,6,46.994,22,47-1c20.15,4.375,61.29,26.831,88.99,20,45.63-11.254,89.13-36.745,140.98-47h63.99c32.17-11.049,53.14-43.4,91.99-51,18.61-3.639,40.12,7.87,53.99,12,52.37,15.582,105.79,21.541,166.98,32l46,7c36.33-8.985,66.77-11.989,113.98-32,10.5-13.166,46-23.335,69-35,13.99,4.333,39.91,5.667,53.91,10,35.67,11.857,92.77,43.129,147.06,29,19.33-8.666,32.17-8.834,57.99-26,19.33,4.333,23.67.167,58,13,43.99-31.664,83.49-55.836,137.98-83,31.99-3.834,56,3.333,83.99,5q13.995-6.5,28-13C2497.03,583.741,2479.72,584.093,2560,553ZM286,678h0Zm26,11h0Zm526,53-2,2C838.491,742.661,837.675,743.742,838,742Zm240,47h0Zm811,70h0Zm5,7h0Zm-47,15h0Zm-62,7h0Zm-55,8h0Z"/>
</svg>
