<svg xmlns="http://www.w3.org/2000/svg">

  <path id="mountain-2-plus" d="M226.238,902.011q0.218,1.254.434,2.51l2.219,0.008c0,0.278,0,.557,0,0.836-0.98.709-1.107,1.008-1.341,2.5l0.444,0c0.659-.432,2.776-0.837,3.548.43a3.854,3.854,0,0,0-1.336,1.25c1.3,0.546,1.292.26,0.882,1.257-0.691.623-.817,0.322-1.336,1.25a4.827,4.827,0,0,0,2.659.845c0.653-1.051.56-.762,2.222-0.828-0.324,1.477-.549,1.035-0.9,2.5,1.438,0.351.678-.2,1.327,0.841a2.716,2.716,0,0,0-1.339,2.085l1.331,0q0,0.627,0,1.254a15.823,15.823,0,0,0-3.556,1.66c1.543,0.084,1.88.164,2.659,0.845a3.233,3.233,0,0,0-1.782,1.666l2.219,0.008a1.945,1.945,0,0,0,.439,1.256c1.594,1.076,2.579.732,3.094,2.937-1.487.243-2.907,0.543-3.556,1.66l0.887,0a2.352,2.352,0,0,0,1.329.423,1.951,1.951,0,0,0,.439,1.255,4.8,4.8,0,0,1,2.666-.826c0.89,0.958,1.984.865,2.654,2.1h-0.444c-2.211,1.938-2.844,3.238-6.225,3.322,0-.139,0-0.279,0-0.418h-0.444q0,0.627,0,1.254l-3.548-.431c0,0.14,0,.279,0,0.418l0.888,0c0.941,0.877,1.717,1.141,3.544,1.267,0.628-1.334,1.175-1.538,3.113-1.661a1.951,1.951,0,0,0,.438,1.256c0.743-.808.642-0.7,2.222-0.829,0.12,1.083-.21.741,1.772,0.843q0,0.627,0,1.254l-1.777.412q0,0.627,0,1.254a6.69,6.69,0,0,0-2.22.41q0.219,0.627.439,1.256c-2.53.345-1.775,1.33-4.444,1.656-0.908-.552-3.766-0.659-4.877-0.853,0,0.139,0,.279,0,0.418l0.888,0c1.992,2.343,4.562,1.231,7.539.863l-0.006,1.672,0.887,0c0.8-.687,1.118-0.726,2.666-0.827,0.74,1.36,1.914,1.156,2.652,2.518-2.372,1.082-2.035,1.91-3.123,4.17-3.542.015-4.531,0.734-7.988,0.389,0,0.14,0,.279,0,0.419h0.444c0,0.139,0,.279,0,0.418a4.89,4.89,0,0,1,1.328.841c3.747-.2,6.079-2.172,7.543.027a1.555,1.555,0,0,0-.889.414l0.888,0a3.126,3.126,0,0,1,1.776-.412c0.4,1.649,1.583.2,1.763,2.932-1.52.581-1.61,1.848-2.672,2.5-0.706.433-2.13,0.059-2.664,0.409,1.126,0.612.5-.089,0.882,1.257-1.607.279-3.616,0.628-4,1.24l3.106,0.011c0.72,0.418,3.659-.273,5.326-0.4l0,0.836c-1.4.754-1.364,2.408-1.786,2.92-0.8.48-1.342,0.138-1.777,0.412l0.444,0a5.066,5.066,0,0,0,2.66.427c2.076-1.482,5.608-.082,7.1-0.811h0.444a1.645,1.645,0,0,0-.886-0.421c-1.217-.911-1.947-0.09-3.1-1.265a1.554,1.554,0,0,0,.889-0.415c-1.841.019-2.657-.071-3.546-0.848a14.161,14.161,0,0,0,2.665-.827c3.465-.821,6.473,1.945,9.316.451-1.715-.071-4.567-0.473-5.763-1.275l0.444,0c0.691-.623.817-0.322,1.336-1.25-1.588-.179-1.117.194-1.772-0.842,0.631-.536-0.04-0.49-0.438-1.256l2.662,0.01a5.383,5.383,0,0,0,2.215.844c0-.14,0-0.279,0-0.418-0.952-.87-1.114-1.555.01-2.509-0.994-.646-1.01-0.354-1.325-1.676a14.923,14.923,0,0,0,3.106.01c0-.139,0-0.278,0-0.418a2.054,2.054,0,0,1-.439-1.255,4.5,4.5,0,0,1,2.215.844q0.006-1.254.01-2.509c1.387,0.218,3.829,1.542,4.427,2.524a1.691,1.691,0,0,0-1.334.832c1.409,0.048,2.847-.273,3.992.432-1.081,1.159-.428.088-0.007,1.672a2.23,2.23,0,0,0-1.333.413l0.888,0c1.261,0.606,2.525-.612,3.546.848a1.554,1.554,0,0,0-.889.415c1.438,0.351.679-.2,1.328,0.841a4.9,4.9,0,0,0-1.335.831c1.439,0.351.679-.2,1.328,0.841-1.441.341-.677-0.207-1.334,0.831,0,0,1.733.088,0.885,0.422l-0.887,0a1.634,1.634,0,0,1-.889.415c0,0.14,0,.279,0,0.418,2.223,0.23,3.737,1.172,5.762,1.693,0,0.139,0,.279,0,0.418l-0.444,0c-1.022.726-3.091,0.555-3.553,0.824l0.444,0c2.24,1.528,8.464,1.713,12.861,1.717l0-.836c-2.263-.856-6.917-2.452-8.414-4.21,2.728-.115,2.742-0.7,4.883-0.4,0.032-1.259.224-.634,0.9-2.087l-0.888,0a2.349,2.349,0,0,0-1.329-.423l0.006-1.672c2.2-.079,3.326-0.444,4.881.017l0-.836c-1-.487-0.657-0.61-1.326-1.259a3.126,3.126,0,0,1-1.776.412q0-.627,0-1.254l-2.661-.428,0-.836c2.5-.146,2.252-0.861,4.442-1.238,1.346,1.234,4.506,1.4,7.093,1.7l0-.836-1.774-.006c-0.861-.61-2.624-0.666-3.545-1.267l-0.444,0c0-.139,0-0.278,0-0.418a3.1,3.1,0,0,0,1.778-.83c-1.007-.421-1.229-0.315-1.77-1.26,0.417-.8.17-0.488,0.007-1.672l2.218,0.008a3.091,3.091,0,0,0,2.216.844c0-.14,0-0.279,0-0.419-0.964-.823-0.431-1.129-0.881-1.675,0.331-.363.561-0.469,0.891-0.833a6.829,6.829,0,0,1-1.766-2.1,14.492,14.492,0,0,0,3.106.011c0.4-.75.136-0.757,0.008-2.091l2.217,0.426c0-.139,0-0.278,0-0.418a3.447,3.447,0,0,1-.435-2.092l1.775,0.007a12.836,12.836,0,0,0,1.323,2.1,1.868,1.868,0,0,1,2.218.007,2.306,2.306,0,0,0-1.337,1.668l0.887,0c0.688,0.35,1.807-.418,2.659.846-1.412.517-.275,0.3-0.007,1.672a3,3,0,0,0-1.776.412,4.857,4.857,0,0,0,2.215.843,3.09,3.09,0,0,1,2.222-.828,5.075,5.075,0,0,1-.451,1.671c1.439,0.351.679-.2,1.328,0.841-0.741.621-.452,0.3-0.447,0.834,0,0.14,0,.279,0,0.418,0.281,0.429.962,0.089,0.442,0.42a8.47,8.47,0,0,1-1.78,1.248c0,0.139,0,.278,0,0.418,0.282,0.429.962,0.089,0.442,0.419-0.33.364-.561,0.47-0.891,0.833,2.68,0.177,3.523,1.426,5.76,2.111,0,0.139,0,.279,0,0.418l-0.444,0c-0.866.6-2.629,0.648-3.555,1.242l0.888,0c1.639,1.152,5.78.114,7.091,2.115h-0.444c-1.179.975-2.773,1.1-3.56,2.5,1.3-.16.559-0.682,1.33,0.422h-0.444c-0.441.42,0.436,0.415,0.442,0.42,1.525-1.23,1.674-.406,3.55.012q0-.627,0-1.254c2.282,0.029,5.63.479,8.432-.388a1.637,1.637,0,0,0-.886-0.422c-1.751-2.325-6.227-2.675-8.412-4.628l3.106,0.011c0.128-1.081-.2-0.743,1.778-0.83a2.622,2.622,0,0,0,.884.839l0-.836c-1.092-.545-0.3.179-0.884-0.839a6.058,6.058,0,0,0,3.108-.407l-3.99-.85c-0.016-1.13.076-.276-0.437-1.674l0.443,0c0-.14,0-0.279,0-0.418,2.1,0.008,4.567-.313,5.773-1.234-2.661-.262-4.589-1.58-6.645-2.532l0-.836,2.662,0.009c0-.278,0-0.557,0-0.836,2.2-.823,6.421,1.8,8.427.866-1.254-.2-4.276-1.158-4.873-2.107a4.9,4.9,0,0,0,1.335-.832,13.926,13.926,0,0,1-2.214-1.262c0.99-1.142.473-.406,0.008-2.09l2.219,0.008a5.42,5.42,0,0,0,2.657,1.263l0-.836c-1.5-1.456.435-1.132,0.01-2.508-0.289-.937-1.077-1.033-1.321-2.513a14.864,14.864,0,0,0,3.106.011q0-.418,0-0.836a1.618,1.618,0,0,1-.883-1.257l1.331,0a1.63,1.63,0,0,0,.886.421q0-1.254.01-2.508l1.775,0.006c1.552,2.805,1.858.7,3.1,2.52a11.109,11.109,0,0,0-1.783,2.084h0.443c1.032-.677,2.751-0.792,4.441-0.82,0,0.139,0,.278,0,0.418-1,.663-0.933.681-0.892,1.251,0,0.139,0,.279,0,0.418,0.282,0.429.962,0.089,0.442,0.419-0.383.27-1.4,0.555-1.778,0.83l0.887,0c0.646,1.058.193,0.647,1.772,0.843,0.653-1.052.56-.763,2.222-0.829-0.173,1.612-.841,1.377.879,2.094-0.7.749-.875,0.532-1.338,1.667,0.508,0.185,2.083.49,0.884,0.84-0.771.718-1.237,0.622-1.781,1.666,1.092,0.545.3-.179,0.884,0.839a2.227,2.227,0,0,0-1.333.413l1.775,0.006q0,0.627,0,1.255c2.054,0.02,2.67.209,3.544,1.266l0.444,0c0.438,0.423-.439.411-0.445,0.416-0.866.6-2.63,0.648-3.555,1.242l0.887,0c1.812,1.461,4.455.8,7.093,1.7l0,0.836a12.37,12.37,0,0,0-2.666.827c0,0.139,0,.279,0,0.418,2.322,0.174,1.45.857,2.655,1.682,0.585,0.4,1.065-1.409,2.217.426a3.842,3.842,0,0,0-1.336,1.249l0.444,0a12.664,12.664,0,0,1,3.551-.406c0,0.139,0,.279,0,0.418-0.78.578-1.252,0.289-.447,0.835l0.441,0.837a3.9,3.9,0,0,0-2.22.411l0.887,0c0.327,0.365.557,0.473,0.884,0.839a11.285,11.285,0,0,1,3.109-.825c0,0.139,0,.278,0,0.418h0.443c0,0.14,0,.279,0,0.418-0.286.427-.963,0.082-0.446,0.417,0,0.139,0,.279,0,0.418,0.282,0.429.962,0.089,0.442,0.42-0.33.363-.561,0.469-0.891,0.833,1.438,0.351.679-.2,1.328,0.84-1.793.6-1.155,1.088-1.782,1.666,2,1.733,4.865,1.763,7.979,2.119l0-.836c-0.205-.532-0.034-0.765.45-1.671-0.5-.76-0.982-0.468-1.324-1.677,2.124,0.12,2.242.712,3.109-.825-1.093-.545-0.3.178-0.884-0.839,2.36,0.062,2.094.828,2.225-1.665,2.487,0.163,1.36.932,2.656,1.682,0.66,0.382,1.379-1.631,2.66.427a2.388,2.388,0,0,0-1.779,1.248c2.034-.156,3.112-0.854,3.991.432-0.578.23-.329,0.012-0.445,0.417,0.327,0.365.557,0.473,0.884,0.839a3.91,3.91,0,0,0-2.22.41,4.856,4.856,0,0,0,2.215.844,3.09,3.09,0,0,1,2.222-.828c0,0.139,0,.279,0,0.418l0.444,0q-0.447.624-.893,1.251c1.439,0.351.679-.2,1.328,0.84a1.554,1.554,0,0,0-.889.415l1.775,0.007c0.7-1.442,5.473-2.126,7.109-2.484q0-.627.005-1.254c-2.931.99-6.7-1.544-7.528-3.789l2.219,0.008c1.247-.664,2.6.461,3.106,0.011H382.2a1.641,1.641,0,0,0-.885-0.421,2.353,2.353,0,0,0-1.33-.423c0-.417,0-0.836,0-1.254l-1.331,0c-0.354-1.471-.618-1.133-1.323-2.095h0.444c0-.139,0-0.278,0-0.418,2.383-.153,1.632-0.6,2.221-0.828,0.438-.17,4.361.451,5.767,0.438l0.447-.834c-2.173-1.362-3.995-3.247-7.084-3.788q0-.627.005-1.254l-1.332,0-0.882-1.258c2.386,0.085,4.8-.533,5.329-1.235-0.576-.234-0.328-0.014-0.442-0.42,0.625-.367,2.49-0.445,3.11-0.825a4.955,4.955,0,0,1-3.985-2.1c0.609-.425-0.124-0.269-0.439-1.256l0.444,0c0-.14,0-0.279,0-0.418,2.2-.079,3.326-0.444,4.881.017a2.43,2.43,0,0,1,.894-1.669,16.185,16.185,0,0,1-4.432-1.27l0.449-1.253c-2.026-.085-2.236-0.015-2.656-1.681l2.219,0.008q0-.627,0-1.255c2.766,0.154,8.409,2.3,9.755,1.707-1.3-.439-5.626-2.125-6.2-3.366a8.083,8.083,0,0,0,1.778-.83c-1.652-1.315-1.645-2.161-2.2-4.188a6.56,6.56,0,0,1,1.777-.412,5.051,5.051,0,0,0,3.1,1.683c0-.139,0-0.279,0-0.418-1.659-1.86.207-2.438-.425-4.6-0.2-.7-1.018-1.113-1.323-2.1a14.378,14.378,0,0,0,3.106.011l0.449-1.253c-0.809-.658-0.618-0.371-0.881-1.675a2.876,2.876,0,0,1,2.215.844l0.015-3.763,1.775,0.007a8.519,8.519,0,0,0,.876,2.929,3.134,3.134,0,0,1,1.776-.412,5.612,5.612,0,0,1-1.342,2.922c2.154,0.068,1.966-.2,4.438-0.4l0,0.836c-1,.663-0.933.681-0.893,1.251a3.492,3.492,0,0,1,.883,1.257,3.91,3.91,0,0,0-2.22.41c2.986,1.854.9,1.151,4.877,0.853a3.986,3.986,0,0,1-.895,2.088c1.587,0.179,1.117-.194,1.771.842a2.308,2.308,0,0,0-1.338,1.667l1.331,0q0,0.627,0,1.254a8.986,8.986,0,0,0-3.112,1.662c1.67,0.065,1.56-.192,2.215.843a1.881,1.881,0,0,0-1.336,1.25c1.67,0.065,1.56-.192,2.215.844l-0.444,0c0,0.14,0,.279,0,0.418a4.629,4.629,0,0,1,3.543,1.685l0.443,0c0.438,0.423-.438.411-0.445,0.416-1.05.9-2.769,0.869-4,1.658l2.661,0.428c0.362,1.358-.22.638,0.882,1.257,1.577-1.068,4.235.069,4.876,1.271h-0.444c-1.17.954-1.777,0.711-2.228,2.5-1.442.341-.677-0.207-1.335,0.832,1.829,0.421.3,0.181,1.326,1.258,1.075-1.139,3.124-.569,4.436.434H413.3c0,0.139,0,.278,0,0.418-1.838.906-3.132,2.394-5.336,2.907q0,0.627,0,1.254l-0.887,0c-1.655.88-3.276-.288-4.884,0.819l0.444,0c2.029,1.555,4.167.3,6.655,0.023l-0.006,1.672,0.443,0a4.971,4.971,0,0,1,3.11-.825c0.652,1.239,1.688,1.234,2.654,2.1h-0.444c-1.363,1.638-2.337,1.6-2.234,3.754-2.046.138-6.907,0.267-8.435,1.225h0.444c2.208,1.942,4.817.028,7.1-.393,1.052,1.934,2.7,1.492,5.312,2.946l0,0.836a52.4,52.4,0,0,0-5.336,2.907l0.887,0,0,0.836h-0.444c-0.935.743-2.9,0.581-4,1.24a81.023,81.023,0,0,0,8.43.03c0,0.139,0,.278,0,0.418-1.062.739-.235,0.785-0.893,1.251,0,0.139,0,.278,0,0.418-0.869.171-.317-0.644-0.888,0h0.444c1.2,0.733,6.375.563,7.987,0.028a1.645,1.645,0,0,0-.886-0.421c-2.085-1.689-5.853-1.727-7.973-3.372H415a8.819,8.819,0,0,1,4.883-.4c0-.139,0-0.278,0-0.418a6.076,6.076,0,0,1,1.336-1.249c-1.829-.158-2.515-0.291-3.1-1.683l0.888,0a6.827,6.827,0,0,1,4.438-.4c-1.459-1.434-4.691-1.612-5.755-3.364,4.275-.227,5.665-0.74,9.762.034l0-.836-3.549-.013a2.434,2.434,0,0,1,.894-1.669c-1.282-.7-1.24-0.607-1.322-2.513a12.966,12.966,0,0,1,3.99.851q0-.418,0-0.836c-0.184-.429-0.564-2.3-0.874-3.348,1.786,0.062,2.425.236,3.109-.825-1.093-.545-0.3.178-0.884-0.839l2.218,0.007q0-.835.007-1.672c1.822,0.052,4.615.974,5.316,2.109a1.691,1.691,0,0,0-1.334.832l0.887,0c0.689,0.333,2.061-.181,3.1.429a4.909,4.909,0,0,0-1.334.831c1.759,0,5.19,1.206,5.76,2.111-0.51.181-2.087,0.475-.891,0.833,0.992,0.489,2.349-.252,3.548.43-0.78.578-1.252,0.289-.447,0.835q0.221,0.418.44,0.838a3.9,3.9,0,0,0-2.22.41l0.888,0c0.893,0.444,2.682.042,3.991,0.432l-0.438-1.256c1.441-.341.677,0.208,1.334-0.831A3.864,3.864,0,0,1,447,955.046l0-.836,0.444,0c0-.14,0-0.279,0-0.418,2.186,0.067,4.109.37,5.772-.816-2.128-.2-2.135-0.694-4.434-0.852q0-.417,0-0.836a1.554,1.554,0,0,0,.889-0.415,6.054,6.054,0,0,1-3.105-.429,1.478,1.478,0,0,1-.44-0.837l2.662,0.009,0-.836c2.333-.888,6.8,1.83,8.871.867-1.426-.17-4.671-1.08-5.316-2.109a1.69,1.69,0,0,0,1.335-.831c-1.007-.422-1.23-0.316-1.77-1.261a1.555,1.555,0,0,0,.889-0.414,1.622,1.622,0,0,1-.883-1.258l2.219,0.008a2.3,2.3,0,0,0,2.66.427c-1.6-.865-0.7-1.582.01-2.508-1.024-.678-1.041-0.614-1.322-2.1,1.37,0.045,2.808.069,3.551-.4a3.234,3.234,0,0,1-1.768-1.679,7.928,7.928,0,0,1,2.66.428q0.006-1.254.01-2.509c2.619,0.232,1.323,1.034,2.654,2.1,0.457,0.366,1.093-1.424,2.217.426a3.842,3.842,0,0,0-1.336,1.249c1.409,0.049,2.847-.272,3.991.433-1.112,1.229-.56.544-0.008,2.09a3.9,3.9,0,0,0-2.22.41l0.888,0c0.692,0.767.389,0.585,1.771,0.842,0.743-.807.641-0.695,2.222-0.828,0,0.14,0,.279,0,0.418l0.444,0-0.893,1.251,1.33,0.423a7.422,7.422,0,0,0-1.338,1.667c1.439,0.351.679-.2,1.328,0.841l-0.887,0c-0.627.67-1.472,0.712-2.224,1.246a3.9,3.9,0,0,1,2.217.426,4.879,4.879,0,0,0-1.334.831l1.774,0.007q0,0.627-.005,1.254a13.529,13.529,0,0,1,3.547.848c0,0.279,0,.558,0,0.836l-0.887,0c-0.531.323-2.138,0.493-2.666,0.827l0.444,0c2.182,1.739,2.538.41,4.872,2.116h-0.443c-1.611,1.31.326,1.474-.9,2.5l0.887,0a1.408,1.408,0,0,0,.44.837c2.624-2.885,7.114,9.692,11.545,8.4a20.151,20.151,0,0,0-7.079-5.048l0-.836a8.03,8.03,0,0,0,3.109-.819,2.623,2.623,0,0,1-.884-0.839c1.589-.169,1.116.2,1.778-0.83a23.728,23.728,0,0,1-2.655-1.681l0-.837,0.444,0c0-.139,0-0.279,0-0.418a18.752,18.752,0,0,0,5.772-.816c0-.139,0-0.278,0-0.418a16.115,16.115,0,0,1-4.432-1.27q0.225-.625.449-1.252a10.718,10.718,0,0,1-2.662-.01q0-.627,0-1.254c2.572-.262,1.185-0.743,2.223-1.246,2.085-1.01,3.026,1.4,4.432,1.27q0-.418,0-0.836c2.468-.569,4.33,2.448,7.1.861a15.194,15.194,0,0,1-7.535-2.117l-0.444,0c0-.139,0-0.278,0-0.418a8.038,8.038,0,0,0,1.778-.83,2.783,2.783,0,0,0-1.772-.842,5.149,5.149,0,0,0-.432-2.928,6.646,6.646,0,0,1,1.777-.412,6.255,6.255,0,0,0,3.1,1.684l0-.837c-0.956-.872-1.017-0.45.006-1.254,0-.139,0-0.278,0-0.418-0.525-.642-0.538.3-0.884-0.839,1.1-.537.3,0.18,0.891-0.833a4.373,4.373,0,0,1-1.767-2.1,11.127,11.127,0,0,0,3.552-.406c-0.386-.943-0.785-1.081-0.438-1.674a2.357,2.357,0,0,1,1.333-.413,2.641,2.641,0,0,0,.884.839c-0.067-1.494-.364-2.286.012-2.926a2.35,2.35,0,0,1,1.333-.414,9.476,9.476,0,0,0,1.321,2.513c1.072-.566,1.1-0.587,1.773.425a9.259,9.259,0,0,0-1.781,1.666c1.372,0.038,3.218-.322,4.435.433-1.284,1.262.027,0.916-.452,2.089-0.343.284-.992,0.545-1.334,0.831l0.443,0c0,0.139,0,.279,0,0.418a4.884,4.884,0,0,1,1.327.841,4,4,0,0,1,2.668-1.245,5.715,5.715,0,0,1-.452,2.089c1.438,0.351.678-.2,1.327,0.841a3.851,3.851,0,0,0-1.336,1.249c1.273,0.473.817,0.076,1.326,1.259-1.329.491-1.688,1.978-2.231,3.336,1.121-.03,5.1,1.819,5.313,2.946-1.108.732-3.234,0.53-4,1.658l0.888,0c1.712,1.3,4.882,1.139,7.536,1.7l0,0.836-0.444,0c-1.22.9-1.723,0.312-2.227,2.083a2.226,2.226,0,0,0-1.332.413c1.828,0.421.3,0.182,1.326,1.259,1.028-.664,3.478-0.261,4.435.433a1.238,1.238,0,0,0-.445.417,6.646,6.646,0,0,1-1.777.412q0,0.627,0,1.254l-2.218-.008q0,0.627,0,1.254l-0.888,0c-0.785.168-.447,0.877-1.336,1.249-2.389,1-3.576-1.455-5.768-.02l0.888,0c1.786,1.361,4.529.611,7.1,0.443-0.009,1.322-.754.56,0.439,1.256,1.424-1.234,4.268-.287,5.765.857a7.431,7.431,0,0,0-3.565,3.75l-7.545.391,0,0.836c3.674,0.438,4.71-.566,7.99-0.808,0.013,0.793-.136,1.216.437,1.674,1.6-1.013,3.814.482,4.431,1.688l-0.444,0c-1.373,1.209-3.3,1.428-4.891,2.491a2.633,2.633,0,0,1,.884.839l-4,1.241c5.858,0.009,7.745,5.477,11.4,5.974,0.023-1.141.032-.5,0.887-1.672-1.794-.2-2.1-0.292-2.662-1.672a7.306,7.306,0,0,1,2.219-.418c0.736,0.346,1.147.1,2.662,0v-0.418a1.487,1.487,0,0,1-.444-0.837c-2.094-.038-4.167-0.718-4.881-2.09h2.663V978.8c0.935-.375,5.637,6.812,7.1,6.974v-0.836c-1.183,0-2.367-6.138-3.55-6.138v-0.836a2.646,2.646,0,0,0,.888-0.836h-0.444c-0.342-.285-0.99-0.548-1.331-0.836a1.555,1.555,0,0,0,.887-0.418,1.623,1.623,0,0,1-.887-1.254h1.775c0.638,0.438,1.74,6.789,2.662,6.974v-0.836c-0.778-.264-0.431-6.219-0.887-6.557,1.593-.953.415-1.4,0-2.926,1.9,0.06,1.649,6.292,3.106,6.138v-0.836c-1.1-.541-0.3.179-0.888-0.836,2.361,0.054,2.1.821,2.219-1.672h1.774c0.444,0.95.331,1.159,1.332,1.672,1.07-.57,1.1-0.592,1.775.418a3.844,3.844,0,0,0-1.332,1.254h0.444a9.744,9.744,0,0,1,3.55-.418v0.418c-0.043.036-1.281,0.549-.888,0.836h0.444c0.329,0.365.559,0.472,0.887,0.836a3.9,3.9,0,0,0-2.218.419,4.881,4.881,0,0,0,2.218.836c0.74-.81.639-0.7,2.219-0.836,0.13,1.565.486,2.193,0.887,2.508,1.147-1.142,3.451-.471,5.769-0.418v-0.836h-0.444c-1.86-1.869-5.868-3.1-8.431-4.181v-0.836c2.535-.061,3.388-0.582,5.325,0v-0.418c-0.141-.984.34-0.685,0.887-2.09a3.868,3.868,0,0,1-2.662-1.254v-0.837a1.213,1.213,0,0,0,.444-0.418c1.909,0.054,3.855.154,4.437-.836a29.826,29.826,0,0,0-5.768-2.926v-0.836c2.734-.088,2.336-0.8,4.437-1.254,1.349,1.16,4.639,1.374,7.1,1.672v-0.836c-1.684-.048-4.633-0.588-5.324-1.672a8.043,8.043,0,0,0,1.774-.837,4.407,4.407,0,0,1-2.218-1.672,1.543,1.543,0,0,0,.887-0.418c-0.811-.655-0.619-0.369-0.887-1.672,2.37,0.169,2.724.907,4.881,1.254v-0.418c-0.9-.726-0.829-0.9-0.888-2.508a1.559,1.559,0,0,0,.888-0.418c-1.12-.733-1.171-0.769-1.331-2.509,1.418,0.108,1.416.416,2.218,0a1.55,1.55,0,0,0,.888-0.418,2.929,2.929,0,0,1-.888-1.672c2.361,0.054,2.1.821,2.219-1.672,0.292-.6.113-0.382,2.218-0.418a1.951,1.951,0,0,0,.444,1.254c0.925,0.6,1.581.262,2.218,1.254a2.309,2.309,0,0,0-1.331,1.672c1.866-.2,3.088-0.957,3.994.418-0.778.581-1.252,0.293-.444,0.837l0.444,0.836h-0.444c-0.342.285-.99,0.548-1.331,0.836a1.229,1.229,0,0,1,.444.418,7.354,7.354,0,0,0,2.218.418,4.035,4.035,0,0,1,2.219-.418V958.6a3.844,3.844,0,0,0-1.332,1.254,3.006,3.006,0,0,1,1.775.418c-0.557.487-1.454,0.893-.887,1.254a3.5,3.5,0,0,1,.887,1.254c-1.167.318-1.058,0.5-2.218,0.837a2.517,2.517,0,0,1,.887,1.672,2.223,2.223,0,0,0-1.331.418h2.219v1.254c2.106-.474,2.209-1.117,3.993,0l-0.444-2.09a6.065,6.065,0,0,0,3.106-.418c-2.385-.3-1.915-1.163-3.993-1.673-0.209-1.271-.881-1.312-0.444-1.672,2.4-2.561,4.7-.322,6.212-2.926-1.743.252-1.811-.652-4.437-0.836a5.02,5.02,0,0,1,.444-1.672c-2.04-.078-2.513-0.208-3.106-1.673a8.588,8.588,0,0,1,2.662-.418V952.33c2.737,0.077,2.52.952,3.993,1.672,0,0,1.452-1.251,2.663-.836,1.7,0.582,1.613,1.21,4.88,1.254v-0.836h-0.887c-0.761.406-5.554-1.317-6.656-2.09a1.487,1.487,0,0,1-.443-0.836c1.212-.663,1.115-0.376,1.331-2.09-1.315-.347-1.213-0.186-1.775-1.255,0.994-1.091.441-.779,0-2.508h2.218c0.537,0.687,1.747,1.788,2.219,1.254a1.483,1.483,0,0,0,.444-0.836c-2.307-1.427.479-2.56,0-4.18-0.209-.708-1.251-1.213-1.331-2.927a24.681,24.681,0,0,0,3.549,0V937.7a4.364,4.364,0,0,1-1.775-2.508h2.219c0.574,1.031-.19.285,0.887,0.836v-0.418c-0.32-.609-0.07-1.792,0-3.344h1.331a13.99,13.99,0,0,1,.888,2.508h2.218c-0.371,1.749-1.363,2.512-2.218,3.762h0.444c1.029-.681,2.747-0.8,4.437-0.836v0.836c-1,.667-0.931.685-0.888,1.255a2.522,2.522,0,0,1,.888,1.672H587.9v0.418a1.221,1.221,0,0,1,.444.418l2.218,1.254c0.565-1.354.391-1.1,2.219-1.254v0.418h0.444c-0.337,1.1-.532,1-0.888,2.09h1.331c-0.313,1.676-.815,1.524-1.331,2.926h1.331a1.955,1.955,0,0,1-.443,1.255c-0.895.917-1.992,0.928-3.106,1.672a4.574,4.574,0,0,1,2.662.836,1.481,1.481,0,0,0-.444.836,2.229,2.229,0,0,0-1.331.418h0.444a3.13,3.13,0,0,0,1.775.418,1.949,1.949,0,0,0,.443,1.254,23.809,23.809,0,0,0,3.55,2.091v0.418h-0.444c-1.012.842-2.823,0.952-3.549,2.09h0.443c2.261,1.8,6.255.831,7.543,2.926-2.441,1.074-2.3,2.537-3.993,2.927v-0.418h-0.444v0.418a24.6,24.6,0,0,1,1.775,2.09,3.086,3.086,0,0,1,2.219-.836l-0.444,1.254a4.925,4.925,0,0,1,2.662.418H602.1c-0.713.961-.951,0.631-1.331,2.09h-2.219v1.672h-1.331c-0.5,1.73-.777,1.7-3.106,1.673-1.338-.89-2.621-0.293-4.437-0.836v0.418h0.444c2.889,2.7,4.688,1.155,8.43.836-0.11,1.223-1.049,1.28.888,1.672,0.739-.81.638-0.7,2.218-0.836v1.254c1.183-.15,1.979-0.148,2.662,1.254a4.239,4.239,0,0,0-2.662,4.181h-3.55c-0.2,1.176-1.884.927-4.437,0.836v-0.418h-0.443v0.418a1.483,1.483,0,0,1,.443.836c1.738,0.1,2.445.939,3.55,0.836,1.476-.137,1.876-1.427,3.993-1.672a3.556,3.556,0,0,0,.888,2.09c1.87-1.139,3.156.543,4.437,1.254v0.418H606.1a6.1,6.1,0,0,1-4.437,2.927l0.444,2.09a5.913,5.913,0,0,0-1.775.418v0.418h0.444c1.777,0.929,3.712-.766,4.88.836a2.061,2.061,0,0,0-.443,1.254,2.229,2.229,0,0,0-1.331.418c1.022,0.563.808,0.51,0.887,0.836-0.382.272-1.395,0.56-1.775,0.837h0.444a2.357,2.357,0,0,0,1.331.418,4.973,4.973,0,0,1,3.106-.837c0.282-1.562.652-1.487,1.331-2.508-1.583-.248-1.494-0.306-2.218-1.254,2.309-.093,11.344-0.693,12.867-1.672a3.006,3.006,0,0,1-1.775-.418,1.487,1.487,0,0,1-.443-0.836l3.549-.836v-0.418c-3.346.381-5.252-.256-8.43-0.419-0.787-2.057-1.32-1.569-2.662-3.344a8.588,8.588,0,0,1,2.662-.418v-1.254a22.965,22.965,0,0,0,6.655-1.254,5.623,5.623,0,0,0,.444-1.673,11.771,11.771,0,0,1-3.549.419c-0.81-1.78-3.74-3.135-3.994-4.181a5.627,5.627,0,0,1,5.325,0v-1.254h-1.775c-0.853-1.482-1.833-2.175-2.219-4.181,2.387-.1,1.7-0.638,2.219-0.836,2.638-1.008,3.592,1.848,6.655-.418-2.994-1.536-3.5-3.553-7.543-4.18V963.2a4.686,4.686,0,0,1-2.218-1.672c3.045-.2,3.488-1.1,5.768,0v-0.836c-1.128-.608-0.5.091-0.887-1.254a3.092,3.092,0,0,0,1.774-.836,5.545,5.545,0,0,1-3.1-3.345c2.564-1.179,5.169-.344,6.211-2.508h-1.775c-0.367-1.356.218-.639-0.887-1.254a2.354,2.354,0,0,1-1.331.418V950.24l-2.218-.418-0.888-1.254a1.23,1.23,0,0,0,.444-0.418h2.662V946.9c2.951,0.167,8.734,2.462,10.205,1.673-3.091-.391-2.948-1.934-6.655-2.091,0.216-1.736.881-1.925,0.887-2.508-0.576-1.329-1.114-.939-1.775-2.09a1.689,1.689,0,0,0,1.331-.836c-1.027-.675-1.043-0.611-1.331-2.091,2.578,0.232,2.868,1.27,5.325,1.673v-0.418c-2.1-1.691.025-2.192-.444-4.6-0.188-.966-1.174-1.186-1.331-2.926,1.938,0.1,2.311.529,3.549-.418a4.424,4.424,0,0,1-1.331-2.509,6.727,6.727,0,0,1,2.219.418v-3.344h2.218l0.444,2.508h2.219c-0.269,1.868-1.027,2.406-1.775,3.763h0.444c1.077-.867,2.1-0.806,4.437-0.836v0.418a2.3,2.3,0,0,0-1.331,1.672c1.17,0.677,1.081.314,0.887,1.254-0.821.6-1.191,0.3-1.775,1.254,1.243,0.431.931,0.635,2.662,0.836,0.649-1.054.557-.764,2.219-0.836a6.067,6.067,0,0,1-.888,2.508c1.589,0.175,1.117-.2,1.775.837-1.24.561-1.091,0.584-1.331,2.09,1.44,0.346.678-.205,1.331,0.836-1.039.609-2.5,1.324-3.549,2.09,1.608,0.2,1.616.11,2.218,1.254h-0.444c-0.342.285-.99,0.549-1.331,0.836h0.444a3.124,3.124,0,0,0,1.775.418v1.255c2.035,0.423,2.6,1.215,3.993,2.09v0.418h-0.443c-1.013.843-2.823,0.952-3.55,2.09H640.7a6.4,6.4,0,0,1,1.775,1.672,11.61,11.61,0,0,1,3.106-.836c0.851,1.378,1.668.67,2.219,2.509h-1.775c0.027,1.069.322,0.8-1.331,1.254,0.328,0.364.559,0.471,0.887,0.836-2.924.224-1.747,0.922-4.881,0.418v1.254l-3.549-.418v0.418h0.887c0.945,0.874,1.722,1.135,3.55,1.254,0.8-1.124,1.295-1.433,3.106-1.672a1.949,1.949,0,0,0,.443,1.254c0.74-.81.639-0.7,2.219-0.836,0.422,2.036,1.011-.353,2.219,1.672-2.595,1.2-1.293,1.222-4.438,2.509l0.444,1.254c-2.2.518-1.686,1.445-4.437,1.672-0.91-.549-3.769-0.646-4.881-0.836v0.418h0.888c2.22,2.113,4.462,1.348,7.543.836v1.672c2.623-.517,5.234-0.874,6.655,1.672-2.117.675-2.738,2.312-3.549,4.181-3.6.035-4.378,0.795-7.987,0.418v0.418a1.229,1.229,0,0,1,.444.418c3.448,1.141,7.579-1.255,8.874.836a1.559,1.559,0,0,0-.888.418h0.888a3.138,3.138,0,0,1,1.775-.418c0.111,1.241.945,0.547,1.774,2.091,0.112,0.4.348,0.158,0,.418-1.695,1.951-2.735,1.936-4.88,3.344,0.043,0.036,1.28.549,0.887,0.836h-0.444c-1.211,1.091-3.516.9-3.993,1.672h3.55c0.685,0.3,3.381-.217,4.88-0.418v0.836c-1.473,1.089-1.382,1.606-1.331,3.345l-2.218-.418v0.418h0.887c1.371,0.785,7.5-.353,9.762,0v-0.836a16.42,16.42,0,0,1-3.106-.836c-0.7-.482-0.157-0.8-2.662-0.836v-0.419a1.213,1.213,0,0,1-.444-0.418h0.887c3.285-2.16,7.474,1.2,10.649-.418-2.284-.175-2.75-0.74-5.324-0.836V984.52c1.44-.346.678,0.205,1.331-0.836-1.391-.231-1.08-0.088-1.775-0.836a1.562,1.562,0,0,0,.888-0.418,1.691,1.691,0,0,1-1.332-.836H662a5.391,5.391,0,0,0,2.219.836v-0.418c-0.594-.531-1.4-3.049-1.775-4.181,2.05,0.145,2.324.57,3.55-.418a2.637,2.637,0,0,1-.888-0.836,6.6,6.6,0,0,1,1.775-.418,1.41,1.41,0,0,0,.444.836c0.018-2.062-.147-2.15,1.775-2.508,0.7,1.7,1.787,1.165,2.662,2.508a2.646,2.646,0,0,0-.888.836h0.888c0.266,0.108,2.259-.088,3.106.418a1.689,1.689,0,0,0-1.331.836c1.44,0.347.678-.2,1.331,0.837a2.991,2.991,0,0,0-1.775.418h0.887c0.916,0.485,1.855.106,3.55,0,0.112,1.827.05,0.437,0.887,2.09a1.691,1.691,0,0,0-1.331.836c1.44,0.346.678-.2,1.331,0.836a5.906,5.906,0,0,0-1.774.418c0.381,0.631,1.263.31,0.443,0.836-0.328.365-.558,0.472-0.887,0.836a19.982,19.982,0,0,1,5.324,1.673v0.418h-0.443c-0.7.509-1.972,0.731-2.663,1.254a100.021,100.021,0,0,0,12.424,1.254v-0.836c-2.361-1.27-6.68-2.255-8.43-4.181,2.571-.143,2.957-0.921,4.881-0.418v-0.418c0.052-.539.449-0.522,0.887-1.672h-0.887a2.357,2.357,0,0,0-1.331-.418v-1.672l4.88-.418V980.34a4.835,4.835,0,0,1-.887-1.255c-0.979.217-.88,0.472-1.775,0-0.735-.508.169-0.755-2.218-0.836a1.643,1.643,0,0,0-.888-0.418V977c2.734-.088,2.337-0.8,4.437-1.254,1.465,1.235,4.593,1.165,7.1,1.672v-0.836c-1.721-.141-4.4-0.671-5.324-1.672a4.9,4.9,0,0,0,1.331-.836c-1.008-.418-1.231-0.312-1.775-1.254a1.559,1.559,0,0,0,.888-0.418,1.622,1.622,0,0,1-.888-1.255h2.219a4.8,4.8,0,0,0,2.662.837V971.56a1.876,1.876,0,0,1-1.331-1.254c0.577-.232.329-0.012,0.444-0.418,0.216-1.562-.284-1.273-0.888-2.926,2.384,0.064,2.124.234,3.55-.418a2.525,2.525,0,0,1-.888-1.672l2.219,0.418v-2.509l2.219,0.418a2.583,2.583,0,0,0,.443,1.673c1.06-.68,1.581-0.581,2.219.418a5.269,5.269,0,0,0-1.775,1.672,11.831,11.831,0,0,1,3.993-.418,19.877,19.877,0,0,0,0,2.09c-0.342.285-.99,0.548-1.331,0.836a4.858,4.858,0,0,0,2.219.836c0.739-.81.638-0.7,2.218-0.836a2.428,2.428,0,0,1-.887,1.672c1.033,0.082,1.254,7.447,1.775,7.784-0.674.427-.873-6.739-1.331-6.111,0.508,0.183,2.085.482,0.887,0.836a14.4,14.4,0,0,0-1.775,1.672,2.223,2.223,0,0,1,1.331.418h-0.443c-0.343.285-.991,0.548-1.332,0.836,2.543,0.127,3.874,8.594,5.769,9.456v0.836c-1.19.088-3.18-7.069-3.994-6.529,1.624,0.166,1.8,8.357,2.663,8.619,1.875,0.57,1.745-1.281,3.105.837H714.36c-1.409.985-.471,0.962-1.331,2.508,1.3-.164.556-0.684,1.331,0.418-0.112.4-4.341,2.279-3.994,2.538,1.52-1.235,2.708,2.517,9.762,10.87,0-.41,1.775,10.03,1.775,8.99,3.074-.12-2.923-0.87.443-0.84,0.148-.28-0.147-0.56,0-0.83-2.588-1.16-4.461-12.35-6.211-14.426,1.723-.017,6.159,9.626,6.655,9.376a2.617,2.617,0,0,1-.887-0.83,6.1,6.1,0,0,0,3.106-.42c-1.791-.14-2.9-0.41-3.55-1.67a2.082,2.082,0,0,1-.444-1.26c2.309,0.04,4.918-.26,6.212-1.25-3.009-.14-4.9-11.322-7.1-12.332V989.8c0.887,0,1.775,9.821,2.662,9.821v-0.836c2.329-.9,6.807,1.8,8.874.836-1.427-.166-4.675-1.064-5.324-2.09h0.444c0.342-.285.99-0.549,1.331-0.836a4.319,4.319,0,0,1-2.219-1.255c0.394-.751.133-0.756,0-2.09a8.574,8.574,0,0,1,4.437,1.254V993.77c-0.425-.642-0.792-3.766-0.887-5.016,1.418,0.107,1.416.415,2.218,0a1.481,1.481,0,0,0,.444-0.837,2.615,2.615,0,0,1-.887-0.836h0.443c0.88-.467.8-0.249,1.775,0v-2.508h2.219c0.39,1,.337-4.588,1.331-4.048a3.138,3.138,0,0,1,1.775-.418v0.836a2.3,2.3,0,0,0-1.331,1.672c1.865-.2,3.088-0.957,3.993.418-0.778.581-1.251,0.293-.444,0.837l0.444,0.836h-0.444c-0.382.271-1.395,0.559-1.775,0.836H740.1c0.65,1.055.195,0.645,1.775,0.836,0.739-.81.638-0.7,2.218-0.836v0.418h0.444a3.488,3.488,0,0,0-.887,1.254l1.331,0.418a7.391,7.391,0,0,0-1.331,1.672c0.508,0.183,2.085.483,0.887,0.836a8.408,8.408,0,0,1-1.775,1.254,3.515,3.515,0,0,1,.888,1.255,2.229,2.229,0,0,0-1.332.418h2.219v1.254a13.554,13.554,0,0,1,3.55.836v0.836h-0.444c-0.779.554-2.3,0.7-3.106,1.254h0.444c1.795,1.433,4.551.747,7.1,1.672v0.837a4.7,4.7,0,0,0-2.662,1.254c2.755,0.05,1.378.64,2.662,1.67,0.452,0.36-4.229-1.43-3.106.42a3.934,3.934,0,0,0-1.331,1.25h0.887a8.478,8.478,0,0,1,3.55-.41v0.41c-1.5.98-1.037,0.22-.444,1.68a3.055,3.055,0,0,0-1.775.41H750.3c0.329,0.37.559,0.48,0.888,0.84a10.881,10.881,0,0,1,3.549-.84,19.783,19.783,0,0,0,0,2.09c-0.328.37-.559,0.48-0.887,0.84a5.794,5.794,0,0,1,1.775.42,8.214,8.214,0,0,1-2.219,1.25c0.469,1.18-1.156-.4-2.429-0.03-10.8,3.1.275,4.83,5.979,5.5,8.26,0.97,1.543,7.63,2.218,7.53,1.331,0.28,3.106,1.36,4.437,1.64v-0.42c-0.756-.76-0.38-1.88-1.331-3.76H764.5v0.42h0.443v-0.42c0.8-1.19-.749-1.04,1.331-1.67a1.686,1.686,0,0,0,.888.42v-2.09c2.827,0.26,1.125.65,2.219,1.67,1.239-.4,1.923-0.85,2.662.42a1.861,1.861,0,0,0-1.331,1.25c1.9-.18,2.658-0.88,3.549.42,0,0-1.734.08-.887,0.42h0.887c0.148,0.27.3,0.55,0.444,0.83a3.871,3.871,0,0,0-2.218.42h0.887c0.65,1.06.195,0.65,1.775,0.84,0.7-.77.391-0.59,1.775-0.84v0.42c0.147,0,1.922.03,4.437,2.96-1.923-.14-4.585-2.13-4.881-1.71,1.44,0.35,3.34,2.34,3.993,3.38-0.778.26-2.206,0.08-2.662,0.42,0.739,0,.592,2.09,1.331,2.09,0-.42,3.55-0.03,3.55-0.45,3.25,0.05,4.8-.67,7.1-1.25v-1.26H788.9c-2.288,1.42-6.389-2.14-7.1-3.76,1.748-.04,5.147.1,5.325,0a1.243,1.243,0,0,0,.444-0.42,7.651,7.651,0,0,0-2.219-.42v-1.25h-1.331c-0.36-1.47-.623-1.13-1.331-2.09a1.232,1.232,0,0,0,.443-0.42c2.385-.14,1.7-0.64,2.219-0.84,1.558-.58,2.5.75,3.106,0.84l3.55-.84v-0.41c-3.32-1.09-6.043-4.03-9.318-5.44v-0.83c2.113,0,4.561-.69,4.881-1.26a1.475,1.475,0,0,1-.444-0.83,6.1,6.1,0,0,0,3.106-.42,4.983,4.983,0,0,1-3.994-2.09c0.331-.51.061-0.42,0-1.68,1.627-.13,3.254-0.27,4.881-0.41,0.575-1.03-.19-0.29.888-0.84v-0.42a16.038,16.038,0,0,1-4.437-1.25v-0.42a2.551,2.551,0,0,0,.887-0.84,14.279,14.279,0,0,1-3.106-.41v-1.26h2.219v-1.252c2.975,0.1,8.622,2.382,10.205,1.672-1.456-.47-5.943-2.039-6.656-3.344a5.052,5.052,0,0,0,2.219-.836,3.758,3.758,0,0,1-2.219-2.091,1.546,1.546,0,0,0,.888-0.418,15.082,15.082,0,0,1-1.332-1.254v-0.418h0.444a3.132,3.132,0,0,1,1.775-.418,4.651,4.651,0,0,0,2.662,1.672v-1.254c-1.128-.608-0.5.091-0.887-1.254a1.555,1.555,0,0,0,.887-0.418c-1.1-.541-0.3.179-0.887-0.836,1.095-.541.3,0.179,0.887-0.836a4.37,4.37,0,0,1-1.775-2.509,6.052,6.052,0,0,0,3.106-.418,1.477,1.477,0,0,0,.444-0.836c-0.586-.726-0.766-0.672-0.444-1.254a2.358,2.358,0,0,1,1.332-.418c0.574,1.031-.191.285,0.887,0.836v-3.762h1.331a9.15,9.15,0,0,0,1.331,2.926,3.132,3.132,0,0,1,1.775-.418c-0.295,1.73-.877,1.9-1.775,2.926h3.106a2.357,2.357,0,0,1,1.331-.418v0.836a3.841,3.841,0,0,0-1.331,1.254c1.275,0.468.817,0.073,1.331,1.255a3.891,3.891,0,0,0-2.218.418c1.06,0.65,1.3,1.222,2.662,1.672,0.74-.81.638-0.7,2.218-0.836q-0.221,1.044-.443,2.09h1.331c-0.317,1.419-.721,1.45-1.331,2.508a5.921,5.921,0,0,1,1.775.418v0.418h-0.444c-0.792.816-1.8,1.336-2.662,2.091,1.588,0.174,1.116-.2,1.774.836a1.88,1.88,0,0,0-1.331,1.254c1.671,0.059,1.56-.2,2.219.836a1.235,1.235,0,0,0-.444.42c2.108,0.1,2.678.47,3.55,1.67,0.111,0.4.348,0.16,0,.42-0.943.81-2.483,0.93-3.55,1.67,1.983,0.34.916,0.4,2.662,0.42-0.127,1.03-.292.2,0,1.25,2.175-.47,4.75-0.49,5.769,1.26H817.3a4.471,4.471,0,0,1-2.662,1.25v1.26c-1.44.34-.678-0.21-1.331,0.83,1.83,0.42.3,0.18,1.331,1.26a3.163,3.163,0,0,1,4.437.83,20.337,20.337,0,0,0-5.325,2.93c-0.439.42-.3,1.4-0.887,1.67-2.287,1.07-3.436-.94-5.325.42h0.888c1.8,1.57,4.066.37,6.212,0v1.67h0.887c1.916-1.6,3.485.24,5.768,0.84a1.683,1.683,0,0,1-.887.41c-1.354,1.9-2.157,1.62-2.219,3.77-2.046.14-6.906,0.29-8.43,1.25H810.2c2.309,2,5.062-.07,7.543-0.42,1.215,2.45,4.373.57,4.88,4.18a25.232,25.232,0,0,0-4.88,2.51c0.551,0.66.284,0.22,0,.84-0.849.68-2.566,0.64-3.55,1.25,3.019,0.21,5.174.06,8.43,0v0.42a5.945,5.945,0,0,0-1.774,2.09h2.218c1.818-.94,4.49.95,5.768-0.84-2.214-.52-7.463-1.95-8.43-3.76,2.549-.05,3.021-0.52,4.881,0v-0.42h-0.444a8.99,8.99,0,0,1,1.775-.83v-0.42c-1.8-.2-2.1-0.29-2.662-1.67a1.24,1.24,0,0,0,.443-0.42c2.533-.03,2.135-0.34,4.437,0-1.629-1.61-4.962-1.67-5.768-3.34,4.377-.25,6.067-0.77,10.205,0v-0.42c-0.922-.28-3.076-0.54-3.993-0.84v-0.42a1.6,1.6,0,0,0,.887-1.25c-0.969-.2-0.772,0-0.887-0.42a5.639,5.639,0,0,1-.444-1.67,17.335,17.335,0,0,1,4.437.83v-0.41a2.747,2.747,0,0,1-.887-0.84c1.2-.52.489-0.23,0.887-1.67a1.877,1.877,0,0,1-1.331-1.26c1.786,0.06,2.427.23,3.106-.83a1.516,1.516,0,0,1-.444-0.84h2.219v-1.67c1.825,0.06,4.19.97,4.881,2.09a3.934,3.934,0,0,0-1.331,1.25c0.978-.29,2.735-0.79,3.993,0a5.107,5.107,0,0,0-1.331.84h3.106v1.25H848.8v0.84c-0.778.58-1.251,0.29-.443,0.84,0.689,0.33,2.059-.19,3.105.41-0.777.59-1.251,0.3-.443,0.84q0.222,0.42.443,0.84a3.051,3.051,0,0,0-1.774.41h0.443c0.834,0.43,3.032.19,4.437,0.42v-0.42c-1.094-.54-0.3.18-0.887-0.83a2.967,2.967,0,0,0,1.775-.42,16.564,16.564,0,0,1-3.106-1.67v-0.84a1.232,1.232,0,0,0,.443-0.42,29.743,29.743,0,0,0,5.769-.41v-0.42c-1.4-.15-3.386-0.69-3.994-1.67a1.235,1.235,0,0,0,.444-0.42h-2.662a1.611,1.611,0,0,0-.888-0.42v-0.42h0.444c3.817-2.44,8.375.77,11.093-.42-1.254-.19-4.281-1.14-4.881-2.09a4.835,4.835,0,0,0,1.331-.83c-1.063-.37-1.645-0.32-2.218-1.26a2.246,2.246,0,0,0,1.331-.41,1.893,1.893,0,0,1-1.331-1.26h2.218a4.8,4.8,0,0,0,2.662.84v-0.42c-0.094-.14-1.2-4.02-1.331-4.6h3.55v-0.42a2.292,2.292,0,0,1-1.331-1.67h2.662a5.689,5.689,0,0,0-.444-2.09h2.219a4.452,4.452,0,0,0,.887,2.09c1.07-.57,1.1-0.59,1.775.42a10.732,10.732,0,0,0-1.331,1.25c1.372,0.04,3.217-.33,4.437.42l-1.331.42a7.412,7.412,0,0,1,1.331,1.67,3.871,3.871,0,0,0-2.218.42h0.443c1.568,1.27,1.813.31,3.994,0v0.42h0.443a3.332,3.332,0,0,1-.887,1.25,5.794,5.794,0,0,1,1.775.42,14.082,14.082,0,0,0-1.775,1.67c1.588,0.18,1.116-.2,1.775.84a7.861,7.861,0,0,0-3.55,1.25,3.876,3.876,0,0,1,2.219.42,4.858,4.858,0,0,0-1.331.84h1.774v1.25h2.219a4.139,4.139,0,0,0,1.775,1.25,1.611,1.611,0,0,1-.888.42c-0.623.37-2.488,0.46-3.106,0.84h0.444c2.214,1.47,6.094.13,7.543,2.51-2.312.18-2.743,1.08-3.993,2.09h0.887c0.574,1.03-.19.28,0.888,0.83,1.69-2.87,5.636-1.51,9.761-2.09v-0.42c-2.534-.68-8.647-4.03-9.318-5.43,2.411-.21,2.787-1.02,4.881-0.42-0.148-.42-0.3-0.83-0.444-1.25h1.331v-1.26a5.724,5.724,0,0,1-2.662-1.25c0.148-.42.3-0.84,0.444-1.25a18.905,18.905,0,0,0,5.768-.84v-0.42a31.4,31.4,0,0,1-4.437-1.25l0.444-1.26a3.876,3.876,0,0,1-2.219-.42,1.445,1.445,0,0,1-.444-0.83c2.571-.28,1.091-0.65,2.219-1.26,2.672-1.42,2.662,1.95,4.437.42,2.651-.55,4.3,4.97,7.1,3.29-2.09-.01-7.078-3.99-7.986-4.96a4.949,4.949,0,0,0,2.218-.84,4.894,4.894,0,0,0-2.218-.83,2.426,2.426,0,0,1,.887-1.674,3.555,3.555,0,0,1-1.331-.836v-0.418a1.555,1.555,0,0,0,.887-0.418c1.6,0.362,2.656,3.506,3.994,4.126v-1.25c-1.095-.54-0.3.18-0.888-0.839a1.559,1.559,0,0,0,.888-0.418c-1.095-.541-0.3.179-0.888-0.836,1.278-.9.106-3.74-0.443-5.382,1.841,0.026,2.657,2.394,3.549,1.619-0.811-.655-0.619-0.368-0.887-1.672a2.874,2.874,0,0,1,2.218.836v-3.344h1.332a18.765,18.765,0,0,0,1.331,2.508,3.128,3.128,0,0,1,1.774-.418c-0.316,1.419-.72,1.45-1.331,2.508,1.409,0.043,2.847-.282,3.994.418-1.279,1.266.031,0.915-.444,2.091-0.342.285-.99,0.548-1.331,0.836h0.444a15.313,15.313,0,0,1,1.331,1.254c1.093-.618,1.575-1.309,2.662-0.836H908.7a5.549,5.549,0,0,1-.888,1.675c1.44,0.34.678-.21,1.331,0.83a10.882,10.882,0,0,0-1.331,1.26,5.786,5.786,0,0,1,1.775.42c-0.724.99-1.55,2.63-2.218,3.73a2.237,2.237,0,0,1,1.331.42c-1.315.35-1.213,0.18-1.775,1.25a6.356,6.356,0,0,1,2.218,0l-0.443.84h0.443a25.153,25.153,0,0,0,3.55,1.67v0.42h-0.444c-0.98.76-2.828,0.61-3.549,1.67h0.443c1.992,1.36,5.121,1.12,7.987,1.67v0.42H916.69a4.112,4.112,0,0,1-2.662,1.26c0.148,0.41.3,0.83,0.444,1.25a2.967,2.967,0,0,0-1.775.42c1.83,0.41.3,0.18,1.331,1.25,1.189-.8,3.793-0.25,4.437.84h-0.887a2.411,2.411,0,0,1-1.331.42v1.25c-3.313.36-2.759,1.85-3.994,2.51-2.37,1.26-3.761-1.47-5.768,0h0.888c1.731,1.31,4.144.59,6.655,0.42,0.086,1.5-.659.86,0.888,1.25,0.77-.84.951-0.78,2.662-0.83,0.754,1.31,1.873.88,2.662,2.09-2.245.66-2.382,2.19-3.106,2.92-1.917,1.11-6.027.09-7.987,1.26h0.444c2.5,1.89,4.936-.07,7.543-0.42,0.575,1.03-.19.28,0.888,0.83-0.329.37-.559,0.48-0.888,0.84,2.292-.42,3.953-0.29,4.881,1.67h-0.444c-1.419,1.38-3.1,1.38-4.881,2.51a2.554,2.554,0,0,1,.888.84,8.808,8.808,0,0,0-3.55,1.25c5.742,0,11.116,6.87,14.666,7.34-0.028-1.07-.323-0.8,1.331-1.25v-0.42l-2.662-.42a1.934,1.934,0,0,1,.443-1.25c1.141-.6,2.938.1,4.437-0.84-1.636-.5-4.963-1.56-5.768-2.93,4.209-.22,5.8-0.72,9.762,0v-0.83h-3.55v-0.84a1.616,1.616,0,0,0,.888-1.25,2.241,2.241,0,0,1-1.332-.42c0.414-.8.168-0.49,0-1.67h1.775a4.8,4.8,0,0,0,2.662.83v-0.42c-0.928-.92-0.713-0.77,0-2.09-0.519-.75-0.969-0.47-1.331-1.67a9.033,9.033,0,0,0,2.662,0c0.8-1.19,5.509,18.61,7.59,17.97v0.42h0.444v-2.09h2.218c1.532,2.82,1.655-.1,3.106,2.09a2.386,2.386,0,0,0-1.775,1.25h0.888c0.76-.44,2.335-0.77,3.106.42,0,0-1.735.08-.888,0.42h0.888q0.222,0.42.443,0.84a3.969,3.969,0,0,0-2.218.41H952.7a1.726,1.726,0,0,0,1.331.84,3.121,3.121,0,0,1,2.219-.84V1053h0.444a2.74,2.74,0,0,0,.443,2.09c1.857-1.69,4.5,1.15,6.212-1.25-1.957-.57-8.5-3.47-9.318-5.02,2.834-.05,3.075-0.48,5.768,0v-0.42c-1.094-.54-0.3.18-0.887-0.83,1.275-.47.817-0.07,1.331-1.26a2.754,2.754,0,0,1-2.662-2.09c1.722-.26,4.41-0.46,4.881-1.25-0.664-.65-0.345-0.77-1.331-1.25a2.343,2.343,0,0,1-1.332.41v-1.25a18.037,18.037,0,0,1-3.105-.84v-0.41h0.443a4.98,4.98,0,0,1,2.662-.42v-1.26c3.062,0.39,5.059,1.18,8.431,1.68v-0.84c-1.955-.26-2.468-0.76-4.881-0.84v-1.25a2.235,2.235,0,0,0,1.331-.42,6.153,6.153,0,0,1-2.218-1.67c1.1-.54.3,0.18,0.887-0.84-1.128-.61-0.5.09-0.887-1.25,2.259,0.12,3.082.79,4.881,1.25v-0.42c-0.414-.51-1.087-3.92-1.331-5.43,1.938,0.1,2.311.53,3.549-.42a2.294,2.294,0,0,1-1.331-1.67c2.481,0.06,2.212.64,2.219-2.09a8.3,8.3,0,0,1,4.88,2.51,3.65,3.65,0,0,0-1.331,1.67h2.219a4.054,4.054,0,0,1,2.218-.42v0.42c-1,.67-0.93.68-0.887,1.25,0.382,0.63,1.264.31,0.444,0.84-0.382.27-1.4,0.56-1.775,0.84h0.443v0.41a7.032,7.032,0,0,0,2.219.42,4.151,4.151,0,0,1,2.219-.42v0.84a2.554,2.554,0,0,0-.888.84,3.052,3.052,0,0,1,1.775.41,2.328,2.328,0,0,0-1.331,1.68c1.44,0.34.678-.21,1.331,0.83a9.88,9.88,0,0,0-2.219.84c0.35,0.72,1.166.77,0.444,1.25-0.342.29-.99,0.55-1.331,0.84H981.1v1.25c2.769-.6,1.738-0.92,4.437,0v-0.83c-1.129-.61-0.5.09-0.888-1.26a5.988,5.988,0,0,0,3.106-.42c-2.385-.29-1.915-1.16-3.993-1.67-0.148-.69-0.3-1.39-0.444-2.09h0.444v-0.42c2.565-.2,2.577-0.77,4.881-0.41,0.05-1.24.158,4.67,0.887,3.23-1.242.09-2.68-5.49-4.437-6.16v-0.42a2.607,2.607,0,0,0,.887-0.83c-1.988-.07-2.885-0.35-3.549-1.68,1.312-.19,2.5-0.28,3.106-1.25,0.292-.6.113-0.38,2.218-0.42,0.5,0.62.79,5.94,1.331,6.58,2.1-1.7,4.058.45,7.543,0.42v-0.83c-1.677.46-6.382-6.35-7.986-7.42,0.411-.52,2.21,3.56,1.331,3.24-0.6-1.16-1.175-5.85-1.775-7.01,1.475-.9.472-1.09,0-2.5,0.739,0,1.479,4.91,2.218,4.91a9.557,9.557,0,0,0,2.663,1.67v-1.26c-1.458-1.68.4-2.15,0-4.18-0.19-.96-1.164-1.19-1.331-2.92,1.782,0.15,2.258.53,3.549-.42a3.687,3.687,0,0,1-1.331-2.51h1.775a2.673,2.673,0,0,0,.887.84v-3.76H998.4c0.148,0.83.3,1.67,0.444,2.5h2.214c-0.31,1.9-1.341,2.82-2.214,4.18h0.444c0.96-1.04,2.86-1.23,4.88-1.25v0.42c-1.2.81-1.74,1.07-.89,1.67,0.35,0.72,1.17.77,0.45,1.25-0.82.61-1.19,0.3-1.78,1.26h0.45c0.47,0.5.88,0.69,1.33,1.25,1.14-.75.72-1.01,2.66-1.25a5.445,5.445,0,0,1,.44,1.67c-1.09.54-.3-0.18-0.88,0.84h1.33c-0.32,1.67-.82,1.52-1.33,2.92a6.122,6.122,0,0,1,1.77.42c-0.15.28-.3,0.56-0.44,0.84a18.626,18.626,0,0,0-3.11,1.67h0.89c0.69,0.62.81,0.32,1.33,1.25a1.876,1.876,0,0,0-1.33,1.26h1.77a1.937,1.937,0,0,0,.45,1.25c0.7,0.45,4.38,1.8,3.1,2.51-0.95.84-2.84,1.02-3.55,2.09h0.89c1.75,1.52,4.11,1.72,7.1,2.09v1.26h-1.78c-0.49,1.2-.07.77-1.33,1.25a3.491,3.491,0,0,1,.89,1.25c-1.37-.03-1.78-0.24-2.22,0a27.266,27.266,0,0,1,1.78,2.09,3.061,3.061,0,0,1,2.22-.83c-0.15.42-.3,0.83-0.45,1.25a4.953,4.953,0,0,1,2.66.42h-0.44c-0.98.91-1.33,0.48-1.77,2.09h-1.78v1.67c-2.5.45-1.27,1.18-2.22,1.67-1.95,1.03-3.82-1.52-6.21,0h0.44c2.58,2.32,4.35.83,7.55,0.42a4.774,4.774,0,0,1-.45,1.67h1.33a3.141,3.141,0,0,1,2.22-.83v1.25a2.5,2.5,0,0,1,3.11,1.26c-1.72.9-2.85,1.85-3.11,4.18-3.17.13-5.34,1.4-8.43,0.42V1060h0.45v0.42c4.63,1.65,3.51-.06,7.98-0.42-0.08,1.27-.17.29,0.89,1.26a2.626,2.626,0,0,0-.89.83c2.13-.68,4.02-0.01,4.88,1.68-1.14.81-2.24,1.34-2.66,2.92h-2.22c0.21,1.27.88,1.32,0.45,1.67a8.593,8.593,0,0,1-1.78.84v0.42h0.45c1.61,0.89,3.71-.48,5.32.42-1.74,1.3-1.35,1.67-.89,3.34-1.59.18-1.11-.2-1.77,0.84h1.33a10.263,10.263,0,0,1,5.32-1.26v0.42c-1.49,1.43-.8,2.31-2.66,4.6,1.52,0.09,2.92.23,3.55,1.25-1.44.35-.68-0.2-1.33,0.84h0.89a6.178,6.178,0,0,1,3.1-.42v0.84c-1.32.81-1.74,1.6-3.55,2.09V1083a6.5,6.5,0,0,1,3.11.83h-0.89a11.129,11.129,0,0,1-2.22,1.67v0.42h0.45c0.97,1.08.14,1.19,2.66,1.26,0.81-.52,2.53-0.46,3.99-0.42v0.42h-0.44c-0.83.7-1.63,0.66-2.22,1.67a3.592,3.592,0,0,1,1.33,1.67,24.978,24.978,0,0,0-3.55.84v0.42a3.964,3.964,0,0,1,2.22.41h-0.89c-0.77,1.81-.65.91-2.22,2.09q3.33-.4,6.66-0.83v0.83a10.608,10.608,0,0,0-2.66,2.93h2.66a28.107,28.107,0,0,0,3.55,0v0.84c-2.4.56-1.76,1.39-3.55,1.67v1.25a32.225,32.225,0,0,0,6.66,0v0.84a5.809,5.809,0,0,0-1.78.42,3.523,3.523,0,0,1,.89,1.25c-1.94.02-8.95,1.29-10.21,2.09h-0.44v0.42c2.97-.95,11.39-4.67,18.19-3.55-3.86.28-15.71,5.09-18.45,5.75,0.93,63.86.01-60.56,0,2.52-12.72-.02-10.73.19-820.248-0.99-0.083-.98-0.081-37.46-0.437-37.96-0.718,2.69,1.223-63.1-3.112-63.23-0.168-1.06.26-.66-1.328-0.84-0.426-.25-0.849-0.05-2.219-0.01a10.333,10.333,0,0,0-.879-2.09,2.347,2.347,0,0,1-1.333.41c0.339-1.66.5-1.44,1.784-2.08,0-.14,0-0.28,0-0.42-1.438-.35-0.678.2-1.328-0.84a4.9,4.9,0,0,0,2.664-.41h-0.443c-0.213-1.15.249-.49,0.89-0.83a1.6,1.6,0,0,0,.886.42c0.021-.97.228-0.72,0.454-2.508a2.848,2.848,0,0,1-2.219-.008c0.016-1.458-.051-1.388-2.657-1.263q0-.627,0-1.255l1.775,0.007,0.447-.835a2.623,2.623,0,0,1-.884-0.839l7.543,0.027c0-.14,0-0.279,0-0.419-2.433-.148-3.46-0.944-5.318-1.69,0-.14,0-0.279,0-0.419a2.644,2.644,0,0,0,.891-0.832c-1.582-.254-1.493-0.312-2.214-1.263,1.667-.114,3.756-0.531,4.444-1.656-2.892.034-4.06-.7-4.871-2.526a4.813,4.813,0,0,0,.893-1.251l-2.661-.427q0-.627.005-1.254l2.219,0.008q0-.627,0-1.254a38.366,38.366,0,0,0,11.54-.8c0-.139,0-0.279,0-0.418-2.929-.465-2.6-2.016-6.647-2.114-0.383-1.565-.785-1.153-1.322-2.513a1.547,1.547,0,0,0,.889-0.415,3.644,3.644,0,0,1-2.655-1.681l2.218,0.008c2.322,1.5,9.35,0,12.428-.793,0-.139,0-0.278,0-0.418-5.919-.024-7.726-2.817-13.743-2.975l0-.836a6.1,6.1,0,0,0,1.778-.829c0-.14,0-0.279,0-0.418-1.582-.254-1.493-0.312-2.214-1.262,2.31-.086,11.347-0.653,12.875-1.627a3,3,0,0,1-1.774-.425,1.478,1.478,0,0,1-.44-0.837l3.553-.824c0-.139,0-0.279,0-0.418-3.348.37-5.252-.274-8.429-0.448a8.3,8.3,0,0,1-.879-2.093l-1.331,0c-0.3-1.043-1.043-.779-0.439-1.255a5.051,5.051,0,0,1,2.664-.409q0-.627,0-1.254c1.653,0,3.849-.137,4.884-0.819,1.5-.4,1.843-0.549,2.227-2.083l-0.888,0a5.061,5.061,0,0,1-2.664.409c-1.016-2.091-3.48-2.334-4.418-4.614,2.72-.047,3.152-0.308,5.766.438q0-.627,0-1.254l-1.775-.006c-0.9-1.542-2.163-2.248-2.645-4.19l2.662,0.009,0-.836c2.655-.989,3.987,1.568,6.657-0.394-1.988-.615-1.679-2.155-3.094-2.938-0.344-.19-0.945.907-1.776,0.412a20.573,20.573,0,0,1-4.863-4.616c2.884-.189,3.376-1.178,5.325.019l0-.836c-0.592-1.311.321-1.11,0.9-2.5-1.693-.319-1.863-0.52-2.21-2.1-0.549-.657-0.284-0.215,0-0.836,0.65-1.061-.094-0.472,1.335-0.832,0.912,0.462,3.761-.37,4.443-1.656-2.576-.223-1-0.494-2.213-1.262a13.662,13.662,0,0,1-2.219-.008q0.225-.627.449-1.253a17.846,17.846,0,0,1-3.1-.847q0-.627,0-1.254l2.663,0.009q0-.627.005-1.254c2.831,0.127,9.028,2.589,10.642,1.71-1.274-.113-6.7-2.517-7.086-3.369a8.02,8.02,0,0,0,1.78-1.248l-0.444,0c-0.57-1.331-1.111-.943-1.766-2.1,0.974-1.105.248-.754,0.011-2.927,2.317,0.321,2.7,1.27,4.874,1.69l0-.836c-1.627-1.4-.355-2.368.015-3.763-1.114-.658-1.266-1.618-1.317-3.349,1.781,0.163,2.256.54,3.551-.405-1.159-.588-1.144-1.033-1.321-2.513l2.217,0.426a9.335,9.335,0,0,0-.431-3.346Z"/>
  <path id="mountain-1-plus" d="M1896.78,980.175l5.24,0.811c-2.27,3.6-.83,2.649-1.75,6.485l3.5-.81c-0.59-1.351-1.17-2.7-1.75-4.054l6.99,1.622c-1.46-2.162-2.91-4.324-4.37-6.486,0.58-.27,1.16-0.54,1.75-0.811,1.16,0.271,2.33.541,3.49,0.811-1.16-.81-2.33-1.621-3.49-2.432l4.36-1.621-1.74-5.675c2.04,0.81,4.07,1.621,6.11,2.432-1.75-1.621-3.49-3.243-5.24-4.864v-0.811l5.24,1.622c-0.58-1.351-1.16-2.7-1.75-4.054,2.24-2.143,2.26-4.873,5.24-6.485,1.87,2.818,3.99,3.192,7.87,4.053-0.3-.81-0.59-1.621-0.88-2.432,5.12,2.294,8.16,2.8,14.85,2.432l-0.87-3.243-8.74-1.621c0.29-.54.58-1.081,0.88-1.621l1.74-.811c-4.21.875-12.99,0.678-15.72-3.243l2.62,0.811c-1.75-1.081-3.49-2.162-5.24-3.243h6.11V943.7l5.25,2.432c-0.3-.811-0.59-1.622-0.88-2.432,4.47,2.073,13.77,3.506,20.09.81-1.16-.81-2.33-1.621-3.49-2.432v-0.81l6.11,0.81c-0.58-1.081-1.16-2.162-1.75-3.243,5.3,0.544,5.73-.645,10.48-1.621V936.4l-9.6-.81c1-3.365-1.64-3.236-5.24-8.107h1.74l-0.87-1.621c4.04,0.946,9.77,2.5,13.97.81-5.27.229-8.2,0.073-10.48-2.432,0.88,0.27,1.75.541,2.62,0.811-1.16-1.081-2.33-2.162-3.49-3.243,4.61,0.2,8.17.082,10.48-1.621-3.65,1.053-7.63.833-10.48-.811q6.12-2.837,12.23-5.675-5.685-1.215-11.36-2.432l-0.87-4.053c1.59,0.3,6.91.4,10.48-1.621-1.16-.811-2.33-1.622-3.49-2.433,6.84,0.544,5.75-.259,9.6-4.053-5.31.866-11.23-.165-13.97-4.053h9.61c-0.58-.811-1.17-1.622-1.75-2.432l6.99-.811c-3.87-.824-3.51-0.536-5.24-3.243,3.73,0.272,3.43,1.318,5.24-2.432-4.13-.953-2.78-0.108-4.37-3.243,0.87,0.541,1.75,1.081,2.62,1.622-0.58-1.081-1.16-2.162-1.75-3.243l4.37,0.811c0.05-3.679.17-4.659,1.75-6.486h0.87c0.56,2.947.35,2.454,1.75,4.054l3.49-.811c-0.58-.811-1.16-1.621-1.75-2.432,4.91-.166,7.92-1.027,10.49-3.243a39.545,39.545,0,0,1-13.98-4.864c1.57-1.655.01-.573,2.62-1.621,1.9-1.607,6.69-1.852,8.74-3.243-0.88-.54-1.75-1.081-2.62-1.621l7.86-2.432c-0.88-.27-1.75-0.541-2.62-0.811l4.36-1.621q-9.165-2.433-18.34-4.864l0.87-1.622c7.2,1.012,6.63-.1,13.98.811q-1.755-1.621-3.49-3.243c4.1,0.567,5.8.989,8.73-.811q-3.06-1.215-6.11-2.432c3.49-1.615,4.34-.531,6.11-4.053-1.46-.54-2.91-1.081-4.37-1.621,2.89-3.146.94,0.08,0.88-4.054l4.36,0.811c-0.12-3.988.05-6.135,1.75-8.107h0.87c-0.23,7.8,1.28,8.271,4.37,12.16l-4.37.811c0.29,1.081.59,2.162,0.88,3.243q2.61,0.4,5.24.81c-0.59.811-1.17,1.622-1.75,2.432-0.58.271-1.16,0.541-1.75,0.811h7.86v0.811c-1.45,1.081-2.91,2.162-4.36,3.243l12.22-.811c-1.76,3.492-8.58,3.48-13.97,5.675h6.11l-0.87,1.621-6.99.811c0.29,0.54.59,1.081,0.88,1.621,4.95,0.025,9.01-.689,11.35,2.432-1.75.811-3.49,1.621-5.24,2.432l10.48-1.621v0.81c-0.87,1.081-1.75,2.162-2.62,3.243l-3.49.811c1.5,1,2.29,1.077,3.49,2.432h-1.75q-6.975,1.622-13.97,3.243l0.87,1.621c9.65,2.1,21.98-2.054,23.58,2.432-2.45.449-4.77,2.48-9.6,4.864,2.64,1.021,1.04-.015,2.62,1.621-4.41.445-9.58,1.825-12.23,4.054q5.235-.812,10.48-1.621c-0.58.81-1.16,1.621-1.75,2.432l-9.6,3.242,7.86-.81c-0.99,2.948-.99,2.218-2.62,4.053l3.49,0.811h3.49l-0.87,1.621c-7.75.883-7.46,4.806-13.97,3.243,1.45,0.81,2.91,1.621,4.36,2.432l-1.74,2.432c6.46-.461,13.64-0.841,15.72,2.432-1.17.54-2.33,1.081-3.5,1.621,6.73-.27,2.35.633,8.74,0.811-0.58,1.621-1.17,3.243-1.75,4.864,7.52-1.657,10.19-4.8,16.6-7.3-0.59-.811-1.17-1.622-1.75-2.432,5.85-.684,5.03-2.4,8.73-2.432-5.3-4.444-9.21-1.813-12.22-7.3l4.36,0.81-1.74-2.432c3.88,0.395,6.24.769,9.6-.81-2.73-1.308-2.05-.741-3.49-3.243,3.22,0.663,5.16.69,7.86-.811-2.36-1.3-1.2-.275-2.62-2.432,3.92-.132,2.49.805,5.24-1.621-7.08,1.241-14.38-1.693-18.34-3.243v-0.811l0.87-1.621c6.27,2.19,6.41.17,13.98,1.621-3-2.2-2.8-2.021-4.37-4.053H2047l-6.98-2.432c3.95-1.084,5.27-.59,6.98-4.053-3.14-1.113-2.77-.729-4.36-3.243,1.16,0.27,2.33.54,3.49,0.811-0.87-1.081-1.75-2.162-2.62-3.243l4.37,0.81,1.74-8.106c0.88,0.27,1.75.54,2.62,0.81-0.55,4.437-1.05,6.643.88,9.729,3.14,0.192.33-.386,2.62,1.621-4.32.661-2.6-.542-4.37,2.432l0.87,1.621h5.24c-1.97,2.178-2.98,2.454-3.49,4.054h8.74c-1.61,1.677-2.47,1.729-5.25,2.432v0.81c7.7,0.133,15.48-1.721,20.09-4.864-5.04-.821-11.95-3.4-13.1-5.674-1.78-1.46-.62-0.013-1.74-2.432q6.54-1.216,13.1-2.433c-1.17-.81-2.33-1.621-3.5-2.432l6.99-.81c0.01-4.351.43-1.705,4.37-5.675-9.62.308-17.72-1.773-20.96-4.864,0.87-.27,1.74-0.541,2.62-0.811q3.045,0.811,6.11,1.622l-0.87-3.243,8.73,2.432c-2.99-2.2-2.79-2.022-4.37-4.054h9.61l-6.99-4.053,6.99-.811v-3.242c-3.86-.627-3.24-0.49-5.24-2.432,1.16-.271,2.33-0.541,3.49-0.811-2.35-1.3-1.2-.275-2.62-2.432q2.625,0.4,5.24.811,0.885-4.459,1.75-8.918h0.87c-0.1,6.919.82,9.394,5.24,12.16-2.28,1.733-2.9,1.22-4.36,4.054l0.87,1.621,5.24-.811h-2.62v-3.242c5.14,1.469,10.98,5.149,16.6,3.242-4.17-.88-10.38-7.59-11.36-12.16q5.235,1.217,10.48,2.432c-3.03-2.322-6.5-1.13-4.37-3.242l-1.74-3.243,7.86,2.432,0.87-2.432c-2.79-.605-4.96-1.846-6.11-5.675h2.62q2.61,1.216,5.24,2.432c-1.46-2.162-2.91-4.324-4.37-6.485,0.29-.271.58-0.541,0.88-0.811q5.235,2.836,10.48,5.675c-4.95-3.818-6.02-4.869-11.36-8.107,2.49-1.7,2.57-1.335,6.12-.811-0.88-.81-1.75-1.621-2.62-2.432v-0.811q3.48,0.406,6.98.811c-1.16-1.081-2.33-2.162-3.49-3.243,1.72-.935,3.06-1.09,4.37-2.432,1.58-3.627-2.12-2.128,1.74-4.053,0.29-.811.58-1.622,0.88-2.432l1.74,0.811c1.22,2.862,1.96,4.563.88,8.106,2.48,0,2-.5,4.36.811-1.45,1.081-2.91,2.162-4.36,3.243l7.86-.811c0.36,4.027-1.04,1.031,2.62,3.243q-4.365,2.837-8.74,5.675l11.36-3.243c0.13,0.647,0,1.627.87,0.811-1.75,1.891-3.49,3.783-5.24,5.674l6.99-1.621v2.432q-5.25,2.836-10.48,5.675v0.811q6.54-1.622,13.1-3.243l0.87,1.621-6.99,4.054v0.81q5.25-.81,10.48-1.621v0.811c-1.46,2.419-1.46,1.952-1.74,4.053-5.4,1.154-3.22,4.532-9.61,6.485V845.6h4.37c4.1-1.527,9.43-4.172,13.1-3.243-0.94,1.367-.62.1,0,1.622l0.87-1.622v2.432c-7.24,1.326-10.53,6.97-16.59,9.729a12.287,12.287,0,0,1,2.62,2.432h-6.99l0.87,1.621c5.29-.383,8.15-1.534,10.48,0l-1.74.811c8.48-1.106,16.32-3.152,20.09-2.432-4.9,5.851-17.45,10.99-27.08,9.728l0.87,1.621c4.42-.077,7.62-0.969,9.61,2.432-0.87.541-1.75,1.081-2.62,1.622,11.85-2.462,16.18-9.149,29.7-6.486l-6.99-4.864c2.78,0.509,8.9,2.515,12.23,1.621-5.08-1.363-6.03-2.014-8.74-6.485l6.12,1.621q-1.32-2.431-2.62-4.864,3.045,1.216,6.11,2.432c-1.75-1.351-3.49-2.7-5.24-4.053v-0.811c3.61-.857,4.1-1.667,7.86-0.811-1.16-1.351-2.33-2.7-3.49-4.053,3.69-1.938,2.67-3.978,6.98-5.675v1.622c0.59-.27,1.17-0.541,1.75-0.811-0.87,5.148-1.9,2.852,2.62,5.675-0.87.81-1.75,1.621-2.62,2.432l5.24-.811c-0.58.811-1.16,1.622-1.75,2.432,3.47,0.1,1.81-.726,4.37.811v0.811c-3.4.814-2.62,0.314-4.37,2.432l4.37-.811c-1.16,1.621-2.33,3.243-3.49,4.864q2.61-1.217,5.24-2.432c1.2,1.179,1.05,2.915,0,1.621-1.17,1.621-2.33,3.243-3.5,4.864h0.88c3.12-1.147,3.35-1.247,6.99-.81-0.3.54-.59,1.081-0.88,1.621-2.27.345-.48-0.791-2.62,0.811h5.24c-1.82,3.012-3.24,3.542-4.37,7.3,0.88,0.27,1.75.54,2.63,0.811q2.61-.812,5.24-1.622v2.432c-1.05,2.373-1.15.687,0.87,2.432,3.43,1.749,10.72,3.3,14.85,1.622-6.25-1.082-10.22-3.936-13.98-7.3v-0.811h16.6c-5.78-5.052-12.47-6.865-14.85-15.4h0.87c6.31,3,10.97,6.635,18.34,6.485-8.3-6.733-11.15-4.376-15.72-13.781V845.6c6.74,1.349,12.01,6.564,19.22,4.053q-5.25-1.62-10.48-3.242l0.87-1.622,3.49-.81c-2.95-2.117-2.58-.336-3.49-4.864h0.87c2.91,0.81,5.83,1.621,8.74,2.432-3.58-2.706-6.83-6.006-10.48-6.486l0.87-3.242q6.99,1.62,13.97,3.242c-2.96-2.963-8.76-10.23-8.73-9.728l-0.87-2.432q5.67,1.216,11.35,2.432c-3.4-2.758-7.08-3.808-8.73-6.485,3.22,0.465,8.27,2.036,11.35,0a13.9,13.9,0,0,1-6.99-5.675c0.3-.27.59-0.541,0.88-0.811q3.495,1.621,6.98,3.243c-2.59-3.823-2.39-2.522-3.49-6.486l0.87-.81q4.38,2.432,8.74,4.864c-4.67-4.095-4.18-3.656-9.61-8.107v-0.811l6.12,0.811c-1.31-1.31-2.32-1.716-3.5-3.243,4.05-.247,3.74-0.441,6.99.811-0.87-1.621-1.75-3.243-2.62-4.864,4.35-.849,2.92.282,4.37-3.243-2.9-.438-0.39.2-1.75-2.432,3.87-.421,1-0.333,5.24-2.432,1.26,5.068.84,8.23,6.11,8.918q-2.61,2.432-5.24,4.864c3.66-.916,4.05-1.25,7.86-0.811v1.621q-2.61.812-5.24,1.622c4.52-.773,5.68-1.949,8.74,0v0.81l-6.99,4.054,8.73-2.432c-1.16,1.891-2.33,3.783-3.49,5.675l6.99-1.622c-0.29,1.081-.59,2.162-0.88,3.243q-6.105,2.837-12.22,5.675v0.81l17.46-3.242c-1.33,2.173-4.96,4.291-8.73,5.674v0.811q5.235-1.215,10.48-2.432c-0.8,2.96.03,1.658-1.75,3.243-1.42,4.084-2.98,7.337-9.6,8.917v0.811l16.59-4.053v3.242l-14.85,9.728c3.31,1.547,1.8.348,2.62,2.432h-6.11l0.87,1.622,9.61-1.622c-0.58.811-1.16,1.622-1.75,2.432q4.815-1.215,9.61-2.432-2.175-1.215-4.37-2.432c8.2-2.61,19.19,3.513,27.95,0-15.32.231-20.01-8.913-24.45-14.592v-0.811q10.47,3.648,20.96,7.3c-0.58-.271-1.17-0.541-1.75-0.811,2.34-2.671,2.16-2.137,6.12-1.621-3.67-4.112-19.75-9.424-21.84-9.729v-3.242l16.6,2.432c4.3-1.206,8.02,1.17,11.35-.811-4.57,0-4.3.739-6.99-2.432l4.37-.811c-10.92-2.307-7.56-7.338-16.59-8.917l0.87-3.243c6.09,0.977,11.66,4.913,17.47,3.243-7.46-1.8-9.12-6.929-12.23-11.35l0.87-.81c2.98,1.084,6.46,2.01,9.61.81-4.04-1.239-4.91-1.692-6.11-5.674h0.87c3.85,1.9,9.8,5.039,14.85,3.242-8.52-.788-9.18-4.536-13.1-5.675v-3.242q3.48,0.81,6.98,1.621l-0.87-2.432c-2.1-1.419-1.46-.833-2.62-3.243l8.73,2.432c-2.91-2.613-4.48-3.788-7.86-4.053,3.08-3.282,4.45-1.786,9.61-.811q-3.06-1.621-6.11-3.242l1.74-.811,6.12,1.621c-1.46-1.351-2.91-2.7-4.37-4.053,2.64-1.6,2.79-.009,2.62-1.622v-6.485c2.89-.149,1.7.2,4.37-1.621v1.621c2.54,2.751,1.2,1.806,2.62,6.485,4.32,0.661,2.6-.541,4.36,2.433-2.62,1.041-1.96.509-3.49,2.432,3.12-1.148,3.36-1.248,6.99-.811v1.621q-4.365,1.216-8.74,2.432v0.811q6.12-1.217,12.23-2.432v1.621l-7.86,2.432c2.14,2.055,1.07.439,1.75,2.432l-4.37,1.622v0.81q5.235-2.432,10.48-4.864V784.8c-1.16,1.892-2.33,3.783-3.49,5.675l6.99-2.432V792.1c-3.83.18-4.8,1.956-4.37,4.054l6.99-2.432,0.87,3.242c-2.78.291-3.29,1.127-6.99,2.432V800.2l10.48-1.621v0.81c-3.24,5.45-5.04,9.561-12.22,11.35v0.81l16.59-4.053c0.58,1.081,1.16,2.162,1.75,3.243-4.68.542-7.15,3.515-11.36,6.485q4.8-1.215,9.61-2.432v3.243h-2.62c1.97,3.343,2.21,2.1,2.62,5.675-3.87-.7-10.57,3-17.47,1.621,6.76,7.083,17.64-2.885,27.08-4.053-0.52,3.307.32,1.828-.88,3.242-3.5,5.639-11.73,9.049-17.46,13.782,10.82-2.892,14-9.222,21.83-12.971,1.21,4.981,2.13,3.466,2.62,6.486l7.86,0.81-8.73-5.675V822.9q8.73,2.836,17.47,5.675c-0.3-.811-0.59-1.622-0.88-2.432q-6.99-5.269-13.97-10.539V814.8l12.22,1.622c-3.09-3.266-4.91-5.141-6.98-9.729l11.35,3.243-7.86-8.917c4.46-2.349,9.47,2.39,14.85,1.621v-0.811q-4.8-1.621-9.61-3.242v-1.622c0.58-.54,1.17-1.081,1.75-1.621l5.24,0.811-0.87-1.622c-2.88-1.331-2.79-1.647-4.37-4.053,3.85-.6,5.72.366,3.49-1.622,1.71-4.776,2.63-9.587,7.86-11.349,0.27,3.693.67,11.627,7.86,12.971-1.16,1.621-2.33,3.243-3.49,4.864,4.33-.321,4.41-0.95,6.99.811q-5.25,3.242-10.48,6.485v0.811h2.62c4.62-2.16,6.89-3.8,13.97-4.054V800.2c-7.05,4.253-10.69,8.7-15.72,14.592l14.85-8.107q-1.755,4.865-3.5,9.729c3.88-1.619,6.99-3.295,9.61-1.622-1.59,3.039-2.59,3.007-5.24,4.864l8.73,0.811-1.74-2.432c6.14,0.339,11.1,1.395,14.85-.811q-4.815-1.215-9.61-2.432,2.175-1.621,4.37-3.243c-8.37-3.7-17.53-9.654-20.09-18.645q10.47,2.432,20.96,4.864c-0.87-.811-1.75-1.622-2.62-2.432-3.11-6.311-9.92-10.145-12.23-16.214l13.98-.81c-4.46-1.338-6.59-2.936-7.87-7.3,0.88-.27,1.75-0.54,2.62-0.81,4.96,2.264,8.69,4.315,15.73,4.864-0.88-1.081-1.75-2.162-2.62-3.243-4.84-1.64-10.59-4.965-12.23-9.728l12.23,1.621L2433.05,754q6.54,1.622,13.1,3.243c-3.33-3.487-7.2-4.392-8.74-9.728h5.24l7.86,3.242c0.29-.54.59-1.081,0.88-1.621-3.52-1.809-7.05-2.208-9.61-4.864l0.87-1.621,6.99,0.81-0.87-1.621c-3.05-1.484-2.35-.684-3.5-4.053,5.55-2.153,3.87-9.823,9.61-13.782,1.08,7.5,2.53,10.054,7.86,14.592-1.16,1.351-2.33,2.7-3.49,4.054l6.98-.811c-1.91,5.406-5.76,4.859-9.6,8.107v0.81h0.87c4.63-2.531,10.49-5.636,14.85-1.621-6.24,1.679-13.57,8.1-16.6,12.971,7.34-1.942,8.58-6.693,16.6-8.107q-2.625,4.863-5.24,9.728,5.235-1.621,10.48-3.242v0.81q-4.365,6.079-8.74,12.16h4.37l7.86-3.242c-1.24,5.4-4.36,7.38-9.61,8.917v0.811q7.86-.812,15.73-1.621-1.32,3.241-2.62,6.485l-6.12.811c1.42,3.754,1.58,5.007,0,8.107l-6.99,4.053c10.13-.436,14.1-5.046,22.71-4.053v0.81c-3.89,4.594-10.1,6.853-12.22,12.971h0.87l12.23-2.432-6.99,4.053c1.8,3.685,3.55,4.471,2.62,8.918h-1.75l-19.21,3.243V822.9h15.72v0.811c-1.75.54-3.49,1.081-5.24,1.621,11.17-2.568,14.81-9.532,27.07-10.539l-1.74,7.3c-11.45,3.661-19.92,14.35-28.82,21.078,14.43-2.787,21.45-11.308,34.06-13.782-1.72,7.123-7.33,11.834-11.36,17.025q2.625,0.4,5.24.81c-1.45.541-2.91,1.081-4.36,1.622h4.36c-1.58,1.587-2.99,2.161-4.36,4.053,4.71-1.353,4.22-.12,13.1,0-0.39,3.4-.44,2.945.87,5.675q4.365,0.81,8.74,1.621-2.19-2.026-4.37-4.053c-1.79-5.835-5.05-6.09-6.99-11.35l10.48,1.622c-2.04-1.621-4.07-3.243-6.11-4.864v-0.811h9.61c-2.47-2.971-4.72-3.93-6.12-8.107l7.86,1.622q-2.61-3.648-5.24-7.3,5.235,1.217,10.48,2.432-3.495-3.242-6.98-6.485c0.87-.27,1.74-0.54,2.62-0.811,0.34-2.045,2.55-1.5,5.24-3.242-0.88-.811-1.75-1.622-2.62-2.432,1.16-.811,2.32-1.622,3.49-2.432a7.484,7.484,0,0,1-.87-0.811c0.84-4.063,1.14-6.689,5.24-8.107,0.87,7.131,5.18,8.663,2.62,13.782h8.73c-1.37,2.767-6.12,3.19-9.61,5.674l10.48-.81c-2.54,2.05-4.43,2.643-6.11,5.674l6.99-2.432c-1.17,2.432-2.33,4.865-3.5,7.3h0.88l7.86-1.622c-1.97,3.359-5.46,2.983-6.99,8.918l7.86-2.432,0.87,2.432a14.337,14.337,0,0,0-9.6,5.674q6.105-.81,12.22-1.621-4.8,7.3-9.6,14.592l9.6-2.432c0.08,7.784,1.69,11.069-.87,18.646l-7.86,2.432v0.811l8.73-.811v10.539c-1.44,1.948-2.58,2.536-4.36,4.053l4.36-.81c-0.29,59.984-.61,152.718-0.48,149.288-988.02-.36-917.25.22-989.07,0.1v-1.84c3.71-1.76,4.58-4.53,6.98-7.3-3.19-.86-2.57-0.66-4.36-2.43,1.16-2.43,2.33-4.87,3.49-7.3-2.61-1.36-2.1-1.36-4.37-1.62,1.17-2.43,2.33-4.86,3.5-7.3-4.26-1.14-4.31-1.51-5.24-5.67l3.49-.81h-1.75c-0.87-1.08-1.74-2.16-2.62-3.24v-0.82q3.93,0.825,7.86,1.63c-1.45-2.44-2.91-4.87-4.36-7.3l4.36,0.811c-1.16-1.351-2.33-2.7-3.49-4.054l4.37,0.811q-1.32-2.431-2.62-4.864l4.36,1.621a9.35,9.35,0,0,0-3.49-3.242v-0.811l5.24,0.811c-1.46-.811-2.91-1.622-4.37-2.432h1.75l6.99-9.729q2.61,2.026,5.24,4.054v-0.811c0.13-1.426-.28-1.757,5.24-1.621-0.29-.541-0.58-1.081-0.88-1.622q-3.045-2.026-6.11-4.053c3.7-.235,1.85.932,2.62-2.432l6.99,1.621q-2.625-2.026-5.24-4.053c2.04-2.632.9-2.22,4.36-1.621-1.03-6.447.55-12.145,5.25-15.4,0.77,3.895-.35,4.37,2.62,5.674,1.96,2.11.99,0.533,3.49,1.622-1.57,3.677-1.84,7.431,3.49,8.917-0.64-4.688,1.4-5.176.88-10.539,1.16,0.271,2.33.541,3.49,0.811-1.53-4.467.16-7.707,4.37-8.917q2.175,4.458,4.36,8.917c-2.03,2.12-.4.792,2.62,1.621-1.13,5.72-.02.007,1.75,5.675-2.34.253-2.09-.31-4.37,1.622h6.99c-1.11-3.689-1.46-5.126,4.37-6.486-0.85,5.9,5.47,4.328,1.74,12.971,1.46-.27,2.92-0.54,4.37-0.811,0.72,2.812-1.01,1.026,1.75,2.432-1.17,1.622-2.33,3.243-3.5,4.864l6.12-.81-6.99,6.485,0.87,1.622h3.5c2.63-2.791,4.78-6.5,8.73-8.107,0.88,1.081,1.75,2.162,2.62,3.243l-1.74-3.243c3.89-3.552,2.72-9.614,9.6-12.16,2.43,10.062,3.74,10.506,8.74,16.213l-6.12,3.243h13.1c-2.09-2.765-2.87-2.623-3.49-7.3h0.87c1.1,2.45-.01.969,1.75,2.432-0.22-4.147.79-2.386-.87-7.3,2.51,0.492,1.42,2.165,2.62,0,2.65-3.487,2.77-7,6.11-8.107,2.11,6.629,3.17,7.789,8.74,11.349q-2.19-2.431-4.37-4.864c3.55-2.711,2.81-.7,2.62-6.485,1.45,0.54,2.91,1.081,4.37,1.621-2.8-6.282,2.95-11.058,3.49-16.213h0.87c4.12,3.2,6.4,6.209,12.23,8.106q-5.235-5.268-10.48-10.538h0.87q5.25,1.62,10.48,3.242-2.61-1.622-5.24-3.242v-4.054c0.88,0.27,1.75.541,2.62,0.811q-3.045-2.026-6.11-4.053a17.844,17.844,0,0,1,10.48.81q-2.625-3.648-5.24-7.3h4.37c-0.88-.811-1.75-1.621-2.62-2.432l4.36-1.621h-1.74c-1.7-2.463-.29-0.847-2.62-1.622,2.16-1.934,2.19-1.4,5.24-.81-1.31-1.311-2.32-1.717-3.5-3.243l7.86,1.621c-2-1.924-3.67-2.347-5.24-4.864,5.24-.694,3.66-2.474,6.12-7.3,2.91,1.872,3.49,2.887,6.11,3.243V921c-1.95.042-.26-0.1-0.87,1.622h2.62c-1.17,1.081-2.33,2.162-3.5,3.243l5.24-.811c-0.87,1.081-1.74,2.162-2.62,3.243h4.37c-2.04,1.891-4.07,3.783-6.11,5.674q3.495-1.62,6.98-3.242v0.81c-1.45,1.351-2.91,2.7-4.36,4.054l6.11-1.622q-2.175,3.648-4.37,7.3l10.49-1.622c0.75-5.159,1.18-4.317,0-8.917q2.61,0.4,5.24.81l0.87,3.243,0.87-3.243c0.1,6.32,1.36,6.223,0,9.729h8.74c-1.17-.541-2.33-1.081-3.5-1.622,3.52-3.324,5.56-4.059,6.12-10.539,4.55,2.106,12.41,13.64,20.08,7.3-4.2.978-5.61,0.113-8.73-1.621q-0.87-2.837-1.75-5.675c5.02-1.863.88-1.564-.87-6.485h0.87l7.86,3.243q-2.175-4.46-4.36-8.918l6.98,0.811q-2.61-2.838-5.24-5.675,2.625,0.81,5.24,1.621c-0.87-1.081-1.74-2.162-2.62-3.242,0.3-.271.59-0.541,0.88-0.811,0.87,0.54,1.74,1.081,2.62,1.621-0.29-1.351-.58-2.7-0.88-4.053-2.5-.363-1.38.865-3.49-1.621q4.365,1.215,8.74,2.432l-6.12-6.486,0.87-.811c0.88,0.271,1.75.541,2.62,0.811-0.87-.81-1.74-1.621-2.62-2.432,6.36-1.161,4.6-3.84,7.87-7.3,1.16,0.54,2.32,1.081,3.49,1.621-0.06,7.713,2.06,6.112,6.11,8.918l-0.87,1.621c-1.75.811-3.49,1.622-5.24,2.432l6.99-1.621v0.811c-1.17,1.08-2.33,2.161-3.5,3.242h5.24c-0.87.811-1.74,1.622-2.62,2.432-1.16,1.351-2.33,2.7-3.49,4.054l6.99-3.243v0.811q-2.19,2.432-4.37,4.864h0.87l4.37-1.622c0.58,0.541,1.16,1.081,1.75,1.622-1.46,2.432-2.91,4.864-4.37,7.3l11.35-.811c-1.19,2.159-8.22,5.889-12.22,7.3l1.74,3.243-4.36.811q9.165-1.216,18.34-2.432v0.81c-1.46,1.622-2.91,3.243-4.37,4.864q-6.12,2.027-12.23,4.054c2.67,0.3,7.69.212,6.12,2.432q5.67-2.431,11.35-4.864c0.58,0.54,1.17,1.081,1.75,1.621l-6.12,6.486q-3.045,2.026-6.11,4.053c10.12-2.887,15.7-.57,22.71,2.432-1.46-.811-2.91-1.621-4.37-2.432v-4.864l4.37-.811c-0.94-1.5,1.47-9.91,6.11-11.349,0.04,7.355,6.05,9.327,6.99,8.917-1.21,1.361-2,1.421-3.49,2.432,4.89,1.45,1.51,1.558,5.24,4.054-1.17.54-2.33,1.081-3.5,1.621,1.17,0.54,2.33,1.081,3.5,1.621-0.88.811-1.75,1.622-2.62,2.432,4.02,0,2.63-.753,5.24.811q-2.19,2.838-4.37,5.675l7.86-1.622v0.811c-0.87,1.081-1.75,2.162-2.62,3.243-0.87.54-1.75,1.081-2.62,1.621l3.49-.81v4.053c-2.27,1.135-2.91,1.307-4.36,3.243q5.235-1.621,10.48-3.243v0.811l-6.99,7.3,7.86-2.432c-0.41-1.374,4.05-12.607,8.73-17.835,2.73,2.169,2.57,2.766,5.24,3.242l-1.74,3.243,4.36,0.811-1.74-5.675c2.88,0.324.9,0.11,5.24-1.621-1.74-1.658-1.39-.634-2.62-3.243,4.19-.528,3.92-0.706,3.49-5.675,0.88,0.27,1.75.541,2.62,0.811l6.12,7.3-4.37.811v0.81l5.24,0.811c-0.58.811-1.17,1.622-1.75,2.432,1.46-.54,2.91-1.081,4.37-1.621,0.4,3.559,1.57,3.424,4.37,6.485-1.12.5-1.77,0.018-.88,0.811,0.92,1.591-.41,2.394,2.62,1.621C1895.91,974.5,1896.55,973.06,1896.78,980.175Z"/>
</svg>
