<svg xmlns="http://www.w3.org/2000/svg">

  <path id="pine-2" d="M723.478,1440H288.45v-0.97l6.291-6.78-0.484-.48c-2.9.65-5.807,1.29-8.71,1.94v-0.97c6.129-5.49,9.033-10,13.065-15.97-18.065,9.52-20,10.16-30,14.03q11.854-11.61,23.711-23.23c13.852-16.12,30.825-37.14,38.228-59.52-11.574,14.78-20.476,18.02-36.776,25.17,9.25-10.76,20.34-37.78,22.2-44.04,0.458-1.54-17.264,3.65-35.264,12.1a297.5,297.5,0,0,0,26.13-31.94c-0.161-.32-0.322-0.64-0.484-0.97l-22.743,6.78c15.906-18.62,35.153-41.06,52.745-70.65-6.709,5.24-14.456,10.48-24.679,12.1,12.646-13.8,21.351-31.94,28.006-51.3-8.87,3.23-18.328,6.29-27.038,8.71,0.161-.8,1.714-2.09,1.875-2.9,21.882-27.78,39.26-81.06,50.387-129.69,4.032-16.12,6.452-32.58,9.678-48.87h0.967c9.435,37.85,31.483,93.58,45.971,120.49q7.741,12.585,15.485,25.17-12.337-3.885-24.679-7.75c0.77,19.58,15.946,33.27,25.163,45.49h0.484q13.548-17.175,27.1-34.36l-28.066,7.74q10.161-11.85,20.324-23.71c15.242-19.35,30.911-42.58,44.942-62.42-0.161-.16-3.165,2.58-3.326,2.42-4.9,5.02-18.3,10.66-27.583,12.1,11.634-12.17,27.658-36.44,33.389-61.46q-15.966,4.6-31.937,9.2c13.873-17.97,25.512-41.09,35.325-65.33,19.138-47.275,28.446-94.14,40.164-154.366h0.484c13.766,35.978,27.517,84.062,45,122.911a343.53,343.53,0,0,0,30.486,53.715q-15.242-4.845-30.486-9.68c-1.077,24.87,54.677,84.04,56.617,87.59l-38.228-6.78c16.066,23.32,31.81,46.17,54.136,61.94-15-1.77-29.943-4.03-44.942-5.81,12.181,23.11,32.012,46.45,45,59.52-8.71-2.41-15.788-2.41-28.127-8.71,0.161,0.49,7.581,10.65,7.742,11.13,19.581,24.22,32.058,40.12,51.839,57.1-33.166-3.92-35.963-6.55-52.262-15.96,22.9,27.98,45.812,54.03,68.714,78.87-40.671-22.75-47.96-13.99-71.134-21.29l-0.967.48c0.947,24.87,48.124,74.03,64.359,93.88,7.1,4.03,11.291,8.07,16.936,12.1V1440ZM470.4,1208.21c-11.693,1.45-22.425,5.13-31.03,10.64,6.129,7.74,12.8,15.97,18.933,23.71-10.645-2.09-21.293-3.06-31.938-6.29,11.348,16.8,23.327,32.88,37.2,45.97,8.258-10.35,21.766-33.04,31.514-53.23-10.045,13.22-15.193,19.46-45.063,29.52,11.391-12.78,20.13-31.22,25.223-49.36C473.624,1208.85,472.817,1208.53,470.4,1208.21Zm-36.776,73.55c4.032,7.9,8.489,14.36,13,21.29,4.354-5.48,9.255-11.45,13.609-16.93Q446.93,1283.93,433.621,1281.76Zm43.974,16.45c-7.419,4.84-15.747,9.68-23.166,14.52,0.161,0.48.322,0.97,0.483,1.45,2.9,2.9,5.263,6.29,8.166,9.2C467.433,1315.15,473.241,1306.44,477.6,1298.21Zm-28.973,26.62q3.387,4.83,6.774,9.68,1.936-2.91,3.872-5.81Zm34.3,27.58c-2.419,1.61-6.23,3.71-8.65,5.32v0.49c1.129,1.13,2.2,2.74,3.327,3.87C480.31,1359.17,481.712,1357.95,482.918,1352.41Zm-26.554,16.94q3.872,5.07,7.743,10.16c0.483-.32.967-0.65,1.451-0.97l2.9-3.39Q462.414,1372.255,456.364,1369.35Z"/>
  <path id="pine-1" d="M2315.99,775.873c2.96,8.143,10.41,17.5,10.34,25.539-0.46-10.082-3-7.792,11.87-9.991l1.11,1.11c-5.55,11.846-4.76,16.624-10.31,28.469,4.44-5.923,2.54-4.777,6.98-10.7l19.99-1.111v2.221c-3.33,2.591-2.64,4-5.97,6.589,3.7,2.221,3.38,5.628,7.08,7.849l-1.11,2.221c-7.03,0-8.94,2.93-15.97,2.93,5.55,3.7,5.98,4.474,11.53,8.176-4.79,4.209-4.33,4.126-13.02,6.268,9.08,14.733,1.74,4.3,5.49,9.556,13.01-10.364.49-.136,13-11,6.66-1.481,10.08-5.565,16.74-7.045,1.98,11.409.08,0.079,1.71,9.4,3.36,7.359-.21.183,3.84,6.149l-11.1,12.216,12.21,5.553-1.11,3.332-22.21,7.774v3.332l15.55,3.331-1.11,3.332q-7.215,6.108-14.44,12.217l18.88-3.332q12.21,9.995,24.43,19.99l-1.11,2.221q-13.32,5.553-26.65,11.106c-16.44-2.744-15.84-4.335-15.55-3.332-4.44-2.961-8.54,1.639-12.98-1.322-5.88,4.245-5.2,1.432,5.21,10.207,16.59,12.72,63.51-14.169,77.74,11.106q-8.325,7.773-16.66,15.548c-10.5-3.282-10.87-3.281-10,3.332a181.752,181.752,0,0,0-21.1,6.663c-8.88-2.591,2.61,1.373-14.29-5.05,0.37,1.11-5.59,4.115-5.22,5.225,27.21,16.367,9.54,14.809,41.8,1.046,0,3.7.52,1,10.45,6.27,12.84-5.994,10.25-6.846,25.01,1.394l-13.32,13.327c-18.77,4.091.11-.7-17.96,3.051-8.83,15.21.52-.42-9.81,15.83-33.33-2.92-17.12-1.07-33.04-3.29,26.77,19.08,24.6,18.01,44.15,7.73-0.74,3.33,4.67,4.61,3.93,7.95,20.9,3.58,17.05,2.54,38.27,7.6q-9.435,12.765-18.88,25.54h-57.75c8.2,23.28,37.23,17.84,53.31,7.78l6.66,5.55c0.92,9.01-.58-0.1.34,7.87,11.47,2.96,15.95,4.72,27.43,7.68-12.34,7.56-15.51,18.19-37.76,16.66l7.77,11.1-25.54-1.11c-2.18,6.97.5-2.41-3.34,7.78l54.42,1.11-13.32,11.1c10.36,11.85,8.14,8.52,6.66,10l-14.44-1.11,3.33,5.55,42.21-4.44c-14.53,33.15-12.41,19.25-47.76,29.98v1.11q35.535,3.33,71.08,6.67l-1.11,5.55q-11.115,5.55-22.21,11.11l7.77,5.55-12.22,3.33q2.22,2.775,4.45,5.55l-27.77,1.11q37.2,5.01,74.41,10-8.88,4.44-17.77,8.88,4.995,6.12,10,12.22c-105.27,16.58-102.84,14.55-105.51,18.88q50.52,9.435,101.06,18.88c8.35,12.32.26,0.26,7.78,12.22h-23.32c13.25,13.86.22,0.58,11.76,14.04-35.19,7.38-18.5,6.1-45,5-22.4,6.8-22.6,8.7-23,9,19.68,16.51,20.28,15.45,72,5,17.87,14.74,16.63,14.26,17,15-4.3,17.79-3.68,21.05-5,20-43.18,4-47.65,14.58-53.31,23.02,15.92,4.08,23.84-1.85,47.76,12.22-41.13,16.97-36.27,10.5-34.45,37.76-141.55-.73-146.1.34-278,1,14.69-31.96,15.81-33.7,15-34-26.16,9.24-43.72,9.78-45,9,6.81-19.86,7.83-15.33-2-29-2.59,1.48,53.59-19.48,51-18,0.18,1.16-1.95-11.41-65-6,12.5-8.67,5.85-4.58,17-18,0-.37-26-7.63-29-10,17.03-1.11,83.97-6.89,101-8-69.69-10.23-79.64-13.67-91.49-25.82,38.44-4.75,59.01-3.39,83.49-15.18-21.8-4.28-74.7-3.33-87.93-7.03,7.52-19.04-.12-5.89,4.44-26.66,15.6,0.51,69.27,9.31,76.63-14.44q-7.215,2.79-14.44,5.56c0.06-15.17-29.05-12.95-41.09-24.44l5.55-4.44q-7.77-4.995-15.55-9.99l37.76,5.55-2.22-6.66c17.78,8.74,41.83,3.11,57.75-5.56q-12.21-5.55-24.43-11.1-6.1,2.775-12.22,5.55v-8.88l-26.65,1.11q2.22-3.885,4.44-7.78h-28.87l11.1-7.77v-1.11q-6.66-2.775-13.32-5.56l79.96-11.1q-7.77-4.44-15.55-8.89c12.96-4.44,5.56-1.01,28.44-11.73h-14.63c-10.18.96-32.71,5.96-61.57-18.25,0.37-.37.74-0.74,1.12-1.11q32.19-9.435,64.41-18.88-2.22-5-4.44-10l9.99-3.33q-10.545,4.44-21.1,8.89-18.315-12.225-36.65-24.44c15.18-1.85,28.88-3.49,44.06-8.13-17.46-5.66-23.7-12.23-36.28-19.63q29.415-5.55,58.86-11.11-30.54-19.98-61.09-39.978v-2.221c45.69-2.216,40.33,1.825,28.88-12.217h5.55c5.18,0.371,8.3-.913,13.49-0.542,0.37-1.481.67-5.836,1.04-7.317-8.14-5.922-14.16-7.319-22.3-13.242l-3.33-6.663h34.42c-1.11-2.591-.36-0.5,14.2-6.223,1.03,0.286-14.68-1.751-19.75-5.994l-2.22-5.552-3.33-4.443c0.67-.682.22-0.911-12.22,1.111q3.33-4.442,6.67-8.885l-24.44-5.553,1.11-3.331q11.67-4.443,23.33-8.885,12.21,6.108,24.43,12.216l-5.55-6.663c10.65,1.866,22.14,3.541,22.43,3.579-3.71-1.851-1.53-5.465-5.23-7.316,1.85-2.591-1.85-6.815,0-9.407-9.62-.37-9.8,2.408-19.43,2.038l-1.11-5.553c3.38-6.706.09,0.119,3.82-7.981-5.51-10.038-.18-0.513-6.04-10.9,0.5,0.653-.73,1.884-0.23-5.824-0.18-.588.69,6.258-0.88-8.613q14.445,3.886,28.88,7.774l4.44-2.221-7.77-12.217c4.07,1.481,3.65-1.88,7.73-.4-0.37-2.961,3.74-1.081,3.37-4.042l-9.99-4.442q-2.775-10.549-5.56-21.1c6.3-1.111,9.26,3.331,15.55,2.221,0.74,0.74,4.81,1.481,5.55,2.221,2.23,7.033,4.45,8.515,6.67,15.548q-6.1-18.878-12.22-37.76l1.11-2.221c10.37,3.7,8.19.829,13.33,12.216C2309.33,795.8,2314.11,786.726,2315.99,775.873Zm54.42,134.38h0Zm-52.2,49.976h0Zm-6.66,4.442h0ZM2302.66,968h0Zm121.06,91.067h0Zm3.33,93.29h0Zm43.31,53.31h0Zm-302.08,67.74h0Zm67.75,16.66h0Zm-17.77,71.08h0Z"/>

</svg>
